SplineFontDB: 1.0
FontName: Essays1743
FullName: Essays 1743
FamilyName: Essays1743
Weight: Medium
Copyright: Created by John Stracke with PfaEdit 1.0 (http://pfaedit.sf.net)
Comments: 2004-10-09: Added bunch of other Latin-derived chars.  Calling this 0.2; don't expect much change before 1.0.\n\n2004-10-04: Finished Latin-1 and Latin Extended A (plus miscellaneous other chars).\n\n2004-9-21: Finished the basic alphabet (Roman alphabet +  + ß).\n\n2004-6-7: Began.
Version: 000.400
ItalicAngle: 0
UnderlinePosition: -100
UnderlineWidth: 50
Ascent: 759
Descent: 265
XUID: [1021 117 711671440 1484612]
FSType: 0
PfmFamily: 17
TTFWeight: 500
TTFWidth: 5
Panose: 2 0 6 2 0 0 0 0 0 0
LineGap: 90
VLineGap: 0
ScriptLang: 3
 1 latn 1 dflt 
 1 DFLT 1 dflt 
 1 hani 1 dflt 
TtfTable: cvt  8
!$hWI!$VK#
EndTtf
LangName: 1033 "Copyright 2004, John Stracke.  Based on a 1743 translation of the essays of Montaigne." "" "" "" "" "" "" "" "" "Based on the typeface in a 1743 English translation of the essays of Montaigne.  PostScript/TrueType font designed by John Stracke." "" "http://www.thibault.org/fonts/" "http://www.thibault.org/fonts/" "Licensed under the GNU Lesser General Public License." "http://www.fsf.org/copyleft/lesser.html" "" "" "" "" "Essays" 
Encoding: unicode
DisplaySize: -24
AntiAlias: 1
FitToEm: 1
WinInfo: 32 32 31
TeXData: 1 10485760 0 346030 173015 115343 0 1048576 115343 783286 444596 497025 792723 393216 433062 380633 303038 157286 324010 404750 52429 2506097 1059062 262144
BeginChars: 65536 814
StartChar: exclam
Encoding: 33 33 1
Width: 301
Flags: W
Fore
180 237 m 5
 201 369 202.739 357.237 210 435 c 28
 220.122 543.408 223 585 220 714 c 5
 182.5 746.523 139.984 742.96 108 705 c 5
 102 576 112.015 512.799 117 390 c 28
 119.709 323.272 111 324 126 219 c 5
 144.664 206.981 165.093 220.551 180 237 c 5
117 12 m 28
 144.265 -4.33641 175.525 -1.47484 198 21 c 28
 220.475 43.4746 226.685 77.0453 207 102 c 28
 189.474 124.218 160.732 122.777 135 111 c 28
 111.985 100.467 101.621 82.1745 99 57 c 28
 97.043 38.1992 100.786 21.7148 117 12 c 28
EndSplineSet
EndChar
StartChar: numbersign
Encoding: 35 35 3
Width: 512
Flags: W
Fore
283.38 442.124 m 1
 289.326 458.449 297.867 473.343 309.984 486.5 c 8
 329.984 508.203 354.422 501.891 372.984 477.5 c 16
 382.285 465.279 388.009 452.107 391.542 438.064 c 1
 411.715 434.829 429.029 429.137 443.484 416 c 8
 468.484 393.281 476.172 367.344 452.484 344 c 16
 437.565 329.289 419.363 320.792 398.702 315.829 c 1
 399.037 311.262 399.456 306.652 399.984 302 c 0
 402.595 279.039 405.854 260.784 407.992 242.611 c 1
 421.292 239.008 433.123 233.417 443.484 224 c 8
 468.484 201.281 476.172 175.344 452.484 152 c 16
 438.476 138.188 421.575 129.854 402.461 124.779 c 1
 398.997 108.269 393.207 93.8406 381.984 81.5 c 8
 359.266 56.5 333.328 48.8281 309.984 72.5 c 16
 297.724 84.9352 289.779 99.6502 284.599 116.169 c 1
 282.071 116.12 279.532 116.065 276.984 116 c 0
 253.224 115.4 229.962 114.136 207.56 113.374 c 1
 203.942 101.537 198.543 90.9114 189.984 81.5 c 8
 167.266 56.5 141.328 48.8281 117.984 72.5 c 16
 104.113 86.5685 95.7667 103.555 90.6976 122.77 c 1
 71.2806 128.734 53.7188 137.97 38.4844 152 c 8
 16.7812 172 23.0938 196.438 47.4844 215 c 16
 58.3517 223.267 69.9724 228.707 82.2893 232.295 c 1
 82.2127 237.483 82.1181 242.721 81.9844 248 c 0
 81.3727 272.225 80.0704 295.932 79.3141 318.737 c 1
 64.3736 324.606 50.6829 332.766 38.4844 344 c 8
 16.7812 364 23.0938 388.438 47.4844 407 c 16
 59.5172 416.154 72.4736 421.842 86.2762 425.386 c 1
 92.0444 448.359 101.841 468.97 117.984 486.5 c 8
 137.984 508.203 162.422 501.891 180.984 477.5 c 16
 191.569 463.592 197.522 448.451 200.883 432.196 c 1
 208.138 432.582 215.507 433.151 222.984 434 c 0
 246.367 436.659 264.873 439.99 283.38 442.124 c 1
271.709 307.856 m 1
 249.801 307.216 228.342 306.081 207.619 305.376 c 1
 207.735 304.253 207.856 303.128 207.984 302 c 0
 210.658 278.485 214.012 259.906 216.145 241.296 c 1
 218.414 241.506 220.694 241.74 222.984 242 c 0
 242.41 244.209 258.47 246.882 273.96 248.947 c 1
 273.438 269.015 272.453 288.725 271.709 307.856 c 1
EndSplineSet
EndChar
StartChar: dollar
Encoding: 36 36 4
Width: 314
VWidth: 1080
Flags: W
Fore
177 42 m 1
 182.072 42.9121 172.366 120.591 178 122 c 8
 219.976 132.494 251.247 138.513 276 174 c 24
 304.146 214.352 308.248 252.224 293 299 c 24
 275.902 351.449 238.219 366.717 195 401 c 24
 160.887 428.06 107.965 415.391 99 458 c 24
 92.7832 487.547 115.221 511.867 144 521 c 24
 168.806 528.872 185.415 513.539 207 499 c 24
 231.982 482.173 245.026 413.816 258 441 c 16
 279 485 280.696 491.759 269 521 c 24
 254.365 557.589 228.008 573.592 190 584 c 16
 176.159 587.79 189 609 186 652 c 1
 174.157 687.837 123.699 664.954 114 661 c 1
 108 618 110.525 575.903 104 572 c 8
 54.6631 542.487 19.4971 510.436 17 453 c 16
 15 407 15 401 36 362 c 8
 61.1045 315.378 119.515 341.905 161 309 c 24
 184.835 290.095 208.134 276.401 207 246 c 24
 205.587 208.124 181.688 176.023 144 172 c 24
 85.9053 165.799 49 311 25 263 c 0
 0 216 6.91705 189.75 30 154 c 24
 44.9482 130.849 66.2646 128.684 93 122 c 16
 95.395 121.401 87 96 96 57 c 1
 117.387 24.2998 174.401 42.4814 177 42 c 1
EndSplineSet
EndChar
StartChar: percent
Encoding: 37 37 5
Width: 793
VWidth: 1080
Flags: W
Fore
183.74 539.562 m 28
 168.623 531.706 156.702 531.176 140.24 535.562 c 28
 114.678 542.374 97.7646 551.536 84.7402 574.562 c 28
 72.6123 596.003 73.4619 613.881 80.2402 637.562 c 28
 86.8076 660.512 95.127 675.926 116.24 687.062 c 28
 140.225 699.713 160.504 698.984 185.74 689.062 c 28
 203.064 682.251 211.354 672.182 219.74 655.562 c 28
 230.922 633.404 235.623 616.408 228.74 592.562 c 28
 221.22 566.511 207.801 552.066 183.74 539.562 c 28
108.74 505.562 m 4
 149.24 483.062 177.67 480.981 216.74 497.062 c 28
 252.924 511.955 270.151 535.848 282.24 573.062 c 28
 295.298 613.261 294.743 644.675 273.24 681.062 c 28
 255.492 711.094 232.135 720.479 198.74 730.562 c 28
 163.458 741.215 138.507 744.13 104.24 730.562 c 28
 75.6367 719.237 60.6484 704.003 46.7402 676.562 c 20
 28.3252 640.23 27.5801 609.908 42.2402 573.062 c 12
 55.9014 538.726 80.374 521.321 108.74 505.562 c 4
618.74 101.562 m 24
 603.623 93.7061 591.702 93.1758 575.24 97.5625 c 24
 549.678 104.374 532.765 113.536 519.74 136.562 c 24
 507.612 158.003 508.462 175.881 515.24 199.562 c 24
 521.808 222.512 530.127 237.926 551.24 249.062 c 24
 575.225 261.713 595.504 260.984 620.74 251.062 c 24
 638.064 244.251 646.354 234.182 654.74 217.562 c 24
 665.922 195.404 670.623 178.408 663.74 154.562 c 24
 656.22 128.511 642.801 114.066 618.74 101.562 c 24
543.74 67.5625 m 0
 584.24 45.0625 612.67 42.9814 651.74 59.0625 c 24
 687.924 73.9551 705.151 97.8477 717.24 135.062 c 24
 730.298 175.261 729.743 206.675 708.24 243.062 c 24
 690.492 273.094 667.135 282.479 633.74 292.562 c 24
 598.458 303.215 573.507 306.13 539.24 292.562 c 24
 510.637 281.237 495.648 266.003 481.74 238.562 c 16
 463.325 202.23 462.58 171.908 477.24 135.062 c 8
 490.901 100.726 515.374 83.3213 543.74 67.5625 c 0
EndSplineSet
Ref: 47 47 N 1 0 0 1 0 0
EndChar
StartChar: ampersand
Encoding: 38 38 6
Width: 943
Flags: W
Fore
346.242 639 m 24
 366.226 658.915 374.805 687.443 353.242 711 c 0
 312.883 755.091 253.242 729 200.242 702 c 0
 143.448 665.49 124.94 621.498 124.242 558 c 24
 123.811 518.76 159 513 169.242 468 c 1
 132 414 127.242 492 70.2422 333 c 8
 39.3193 246.742 64.0263 176.873 118.242 103 c 24
 160.288 45.71 208.092 30.3779 277.242 14 c 16
 391.242 -13 445.242 0 547.242 21 c 8
 617.099 35.3818 641.455 84.7021 685.242 141 c 16
 748.242 222 711.965 273.993 711.242 360 c 24
 710.975 391.879 682.214 414.707 700.242 441 c 24
 728.808 482.661 788.89 436.992 826.242 471 c 24
 874.667 515.089 886.242 585 880.242 630 c 8
 873.097 683.594 807.394 709.519 756.242 692 c 24
 716.141 678.266 700.722 635.523 709.242 594 c 24
 716.742 557.45 794.366 565.928 781.242 531 c 24
 747.909 442.285 629.728 555.733 538.242 531 c 24
 491.17 518.274 453.346 510.942 430.242 468 c 24
 400.261 412.276 394.977 351.217 439.242 306 c 24
 471.257 273.297 516.94 273.553 556.242 297 c 24
 585.93 314.711 611.08 349.013 592.242 378 c 24
 569.29 413.317 516.381 350.774 484.242 378 c 24
 467.951 391.801 463.374 414.252 475.242 432 c 24
 501.273 470.928 548.117 474.682 592.242 459 c 24
 629.951 445.598 645.255 416.754 655.242 378 c 24
 672.091 312.62 666.001 262.971 628.242 207 c 24
 593.904 156.1 552.46 142.222 493.242 126 c 24
 426.664 107.762 383.232 110.337 316.242 127 c 24
 260.717 140.812 216.889 146.682 186.242 195 c 24
 146.1 258.288 138 285 178.242 387 c 8
 194.954 429.359 256.82 389.071 290.242 420 c 24
 315.972 443.811 336.531 471.987 322.242 504 c 24
 302.315 548.644 221.926 503.046 205.242 549 c 24
 192.91 582.968 219.986 610.238 250.242 630 c 24
 281.726 650.563 319.607 612.456 346.242 639 c 24
EndSplineSet
EndChar
StartChar: quotesingle
Encoding: 39 39 7
Width: 288
Flags: W
Fore
117 492 m 1
 72 519 67.3118 531.103 55 567 c 24
 42.3418 603.907 46.1346 629.83 58 667 c 24
 69.5459 703.168 75.8183 736.497 112 748 c 24
 158.591 762.812 199.5 741.985 229 703 c 24
 262.322 658.964 253.41 616.031 242 562 c 24
 234.713 527.494 212.356 515.213 198 483 c 24
 162.757 403.918 241 276 126 273 c 1
 105.579 293.512 123 383 117 492 c 1
EndSplineSet
EndChar
StartChar: parenleft
Encoding: 40 40 8
Width: 256
Flags: W
Fore
138 -234 m 12
 156.428 -273.312 264.812 -246.129 246 -207 c 20
 171 -51 152.704 -60.7316 129 45 c 28
 102.381 163.735 106.775 237.01 127 357 c 28
 146.805 474.499 166 513 229 645 c 12
 235.906 659.469 208.925 683.734 198 672 c 20
 117 585 84.7892 511.649 56 393 c 28
 21.2383 249.735 30.5079 160.538 54 15 c 28
 70.332 -86.1777 93 -138 138 -234 c 12
EndSplineSet
EndChar
StartChar: asterisk
Encoding: 42 42 10
Width: 534
Flags: W
Fore
371 549 m 1
 407 573 489.843 626.365 449 660 c 16
 398 702 362 636 317 567 c 1
 290 648 338.44 717.703 278 717 c 24
 216.705 716.286 245 684 242 564 c 1
 179.062 630.871 139.038 694.676 98 645 c 24
 59.9307 598.918 146 585 197 528 c 1
 128 513 26.1699 549.006 31 482 c 24
 36.1162 411.026 158 456 212 459 c 1
 179 402 44.1689 363.856 98 318 c 16
 179 249 188 375 239 414 c 1
 251 303 213.79 264.314 275 261 c 24
 338.185 257.578 314 303 329 414 c 1
 395 366 394.02 289.959 437 324 c 24
 486.221 362.983 404 402 365 468 c 1
 449 483 506.968 446.147 509 504 c 24
 510.987 560.574 434 537 371 549 c 1
EndSplineSet
EndChar
StartChar: plus
Encoding: 43 43 11
Width: 346
Flags: W
Fore
226.718 283.043 m 5
 229.999 282.842 233.413 282.502 237 282 c 12
 264.547 278.156 286.547 277.422 303 255 c 28
 319.656 232.281 324.781 206.344 309 183 c 20
 291.353 156.91 266.842 150.454 238.5 148.5 c 13
 234.656 120.953 233.922 98.9531 211.5 82.5 c 28
 188.781 65.8438 162.844 60.7188 139.5 76.5 c 20
 114.17 93.6336 107.263 117.248 105.094 144.547 c 5
 76.9359 147.09 52.1965 156.482 33 183 c 12
 18.5312 203 22.7344 227.438 39 246 c 20
 56.6664 266.162 77.3184 269.512 100.41 270.167 c 5
 101.589 302.571 109.812 331.009 139.5 352.5 c 12
 159.5 366.969 183.938 362.766 202.5 346.5 c 20
 223.254 328.315 226.195 306.961 226.718 283.043 c 5
EndSplineSet
EndChar
StartChar: comma
Encoding: 44 44 12
Width: 322
Flags: W
Fore
132 -183 m 28
 103.767 -184.513 71.0448 -180.82 66 -153 c 28
 58.0293 -109.042 129.904 -113.275 147 -72 c 28
 155.06 -52.543 156.418 -36.8367 147 -18 c 28
 131.303 13.3945 78.8762 1.1142 75 36 c 20
 69 90 70.1991 131.224 111 162 c 28
 140.891 184.546 172.618 176.82 207 162 c 28
 233.602 150.533 246.555 134.611 258 108 c 28
 274.667 69.2471 271.848 41.4482 264 0 c 28
 252.507 -60.6992 239.355 -98.1062 198 -144 c 28
 177.985 -166.211 161.855 -181.4 132 -183 c 28
EndSplineSet
EndChar
StartChar: hyphen
Encoding: 45 45 13
Width: 346
Flags: W
Fore
33 183 m 28
 18.5273 202.992 22.7351 227.436 39 246 c 28
 69.8604 281.223 109.836 265.136 156 273 c 28
 187.333 278.338 205.521 286.398 237 282 c 28
 264.543 278.151 286.552 277.426 303 255 c 28
 319.664 232.278 324.784 206.342 309 183 c 28
 282.258 143.452 239.707 148.81 192 147 c 28
 128.466 144.59 70.282 131.499 33 183 c 28
EndSplineSet
EndChar
StartChar: period
Encoding: 46 46 14
Width: 303
VWidth: 1080
Flags: W
Fore
104 15 m 28
 142.68 4.72754 178.708 10.1953 203 42 c 28
 226.436 72.6836 220.667 106.669 203 141 c 28
 189.184 167.848 170.194 186 140 186 c 28
 109.806 186 90.8164 167.848 77 141 c 28
 59.333 106.669 62.2246 77.6709 77 42 c 28
 82.6992 28.2422 89.6074 18.8223 104 15 c 28
EndSplineSet
EndChar
StartChar: slash
Encoding: 47 47 15
Width: 793
VWidth: 1080
Flags: W
Fore
453 477 m 4
 547 580 526 592 612 686 c 5
 607 707 567.281 689.709 560 711 c 28
 555.203 725.027 564 738 577 745 c 5
 717 745 649 765 765 725 c 5
 777 709 772.3 687.087 757 674 c 28
 741.589 660.817 724 683 705 674 c 5
 572 532 594 530 495 408 c 4
 427 317 381 273 290 139 c 5
 286 127 268.386 114.254 276 100 c 28
 285.091 82.9795 317.247 106.076 324 88 c 28
 333.996 61.2432 298.38 51.4004 282 28 c 21
 179 28 168 14 68 28 c 13
 51.6201 48.2803 24.6192 53.9678 26 80 c 28
 27.2266 103.132 46.5985 113.135 68 122 c 28
 95.7441 133.492 125.825 98.8887 145 122 c 20
 296 304 331 352 453 477 c 4
EndSplineSet
EndChar
StartChar: zero
Encoding: 48 48 16
Width: 560
Flags: W
Fore
326 101 m 28
 295.766 85.2881 271.924 84.2266 239 93 c 28
 187.875 106.623 154.05 124.947 128 171 c 28
 103.744 213.881 105.444 249.637 119 297 c 28
 132.136 342.898 148.773 373.727 191 396 c 28
 238.969 421.302 279.528 419.844 330 400 c 28
 364.648 386.377 381.227 366.238 398 333 c 28
 420.363 288.685 429.767 254.691 416 207 c 28
 400.96 154.896 374.121 126.008 326 101 c 28
176 33 m 4
 257 -12 313.859 -16.1621 392 16 c 28
 464.368 45.7861 498.822 93.5703 523 168 c 28
 549.116 248.396 548.007 311.226 505 384 c 28
 469.505 444.063 422.79 462.834 356 483 c 28
 285.437 504.306 235.533 510.136 167 483 c 28
 109.794 460.35 79.8164 429.881 52 375 c 20
 15.1709 302.337 13.6807 241.691 43 168 c 12
 70.3223 99.3271 119.268 64.5186 176 33 c 4
EndSplineSet
EndChar
StartChar: one
Encoding: 49 49 17
Width: 560
Flags: W
VStem: 372 0<96 318>
Fore
162 15 m 12
 133.921 14.7305 145.178 64.5166 162 87 c 28
 174.421 103.6 203.209 76.3945 213 102 c 5
 222 444 207 54 216 405 c 5
 202.665 432.09 181.126 404.518 171 420 c 28
 149.779 452.446 152.986 499.53 180 519 c 5
 630 516 66 522 378 519 c 5
 408.129 493.855 413.054 455.344 396 420 c 28
 390.616 408.843 374.467 429.471 368 405 c 5
 374 -84 372 681 372 96 c 5
 376.097 84.0264 389.8 94.8418 396 87 c 28
 413.312 65.1064 432.906 16.542 405 16 c 20
 96 10 474 18 162 15 c 12
EndSplineSet
EndChar
StartChar: two
Encoding: 50 50 18
Width: 560
Flags: W
Fore
383 169.503 m 5
 428 188.125 446 188.125 479 166.399 c 5
 452 54.668 470 105.361 407 24.666 c 5
 143 12.252 314 18.458 92 21.5625 c 12
 76.0117 21.7852 83.3535 50.0635 92 63.9795 c 20
 173 194.332 236 194.332 299 315.375 c 12
 317.305 350.545 324.907 388.178 299 417.794 c 28
 275.33 444.854 242.494 438.553 209 427.105 c 28
 159.454 410.172 164 380.551 110 333.996 c 5
 83 380.551 91.3438 382.704 107 405.381 c 20
 152 470.557 165.022 480.591 218 498.49 c 28
 284.814 521.064 346.764 538.958 398 489.179 c 28
 443.491 444.98 433.533 386.647 416 324.685 c 28
 395.67 252.84 339.139 237.998 299 175.71 c 5
 284 126.052 302 172.606 281 119.844 c 5
 434 126.052 206 116.74 377 119.844 c 5
 385.67 127.015 368.663 156.816 383 169.503 c 5
EndSplineSet
EndChar
StartChar: three
Encoding: 51 51 19
Width: 560
Flags: W
Fore
144 66 m 5
 115.251 86.1367 130.568 123.572 144 156 c 5
 225 246 234 237 306 318 c 12
 322.977 337.099 307.258 364.204 288 381 c 28
 269.295 397.313 248.726 397.286 225 390 c 28
 175.119 374.682 182 322 126 300 c 12
 106.128 292.193 112.219 333.191 117 354 c 28
 132.098 419.703 170.688 462.277 217 495 c 4
 282.02 524.555 256 518.164 296 524 c 4
 312.106 526.35 360.304 515.162 396 498 c 4
 433.966 461.522 425.117 411.311 414 357 c 28
 401.485 295.861 354 270 333 219 c 5
 345.764 193.022 382.762 219.526 405 201 c 28
 437.586 173.854 442.999 143.83 450 102 c 28
 462.223 28.9727 459.797 -18.3721 432 -87 c 28
 409.5 -142.55 389.099 -179.206 336 -207 c 28
 260.152 -246.701 179.569 -280.431 117 -222 c 28
 81.085 -188.461 82.2529 -130.747 117 -96 c 5
 183 -90 147 -99 207 -96 c 5
 224.219 -108.183 206.479 -136.908 225 -147 c 28
 247.179 -159.084 268.354 -147.874 288 -132 c 28
 332.368 -96.1484 344.335 -56.6523 351 0 c 28
 354.914 33.2744 356.853 60.4717 333 84 c 28
 307.517 109.137 278.692 104.707 243 102 c 5
 202.034 98.8936 207 72 144 66 c 5
EndSplineSet
EndChar
StartChar: four
Encoding: 52 52 20
Width: 560
Flags: W
VStem: 240 96<-204 -100.467 -204 24>
Fore
240 114 m 5
 240 216 240 72 240 249 c 5
 230.264 269.257 217.155 288.774 195 285 c 5
 132 189 150 213 105 141 c 5
 101.13 127.504 94.7471 114.592 105 105 c 5
 285 111 51 102 240 114 c 5
337 -195 m 5
 309.243 -226.874 272.22 -231.354 240 -204 c 5
 237 -69 243 -60 237 30 c 5
 117 39 141 0 18 30 c 5
 -3.81836 35.0596 3.14648 63.1582 9 84 c 5
 192 381 117 291 303 516 c 5
 319.584 522.73 336.88 521.023 348 507 c 5
 363 357 357 369 339 114 c 5
 438 108 386 140 548 131 c 5
 572.781 92.6855 540.967 49.3105 503 24 c 5
 447.511 -12.9932 444 30 336 24 c 5
 336 -141 343 -87 337 -195 c 5
EndSplineSet
EndChar
StartChar: five
Encoding: 53 53 21
Width: 560
Flags: W
Fore
113 -92 m 28
 83.0703 -86.9668 59.1035 -100.275 43 -126 c 28
 30.584 -145.834 31.5537 -165.591 43 -186 c 28
 67.1455 -229.054 103.164 -239.821 151 -252 c 28
 196.41 -263.561 227.405 -263.181 271 -246 c 28
 362.15 -210.078 417.956 -171.004 463 -84 c 28
 500.792 -11.0029 516.654 51.9346 481 126 c 28
 466.362 156.408 441.3 164.221 409 174 c 28
 357.489 189.596 324.663 178.104 271 174 c 28
 240.312 171.653 223.42 166.68 193 162 c 21
 247 346 213 202 259 418 c 5
 290.697 416.978 295.757 425.773 307 413.18 c 4
 317.748 401.141 292.206 368.968 309 352 c 5
 411 340 335 356 495 344 c 13
 495 344 548.173 426.306 535 480 c 5
 524.156 524.199 495.886 546.203 454 564 c 5
 442.155 569.033 431.369 571.623 421 564 c 28
 389.396 540.766 422.604 491.234 391 468 c 28
 375.918 456.911 360.691 461.881 343 468 c 28
 303.626 481.618 299.007 545.629 259 534 c 5
 141 334 165 394 89 52 c 5
 94.2031 40.5225 106.459 38.7676 119 40 c 28
 174.55 45.458 184.602 105.492 239 118 c 28
 275.771 126.455 310.425 134.631 335 106 c 28
 389.889 42.0547 379.626 -42.6289 329 -110 c 28
 292.101 -159.104 238.693 -172.472 179 -158 c 28
 143.623 -149.423 148.897 -98.0371 113 -92 c 28
EndSplineSet
EndChar
StartChar: six
Encoding: 54 54 22
Width: 560
Flags: W
Fore
356 387.75 m 28
 306.561 417.468 257.205 412.735 206 385.85 c 28
 164.531 364.076 148.135 333.294 140 288.95 c 28
 127.624 221.485 136.46 171.035 182 117.95 c 28
 203.166 93.2773 226.644 86.7285 260 83.75 c 28
 298.423 80.3193 328.043 81.2754 356 106.55 c 28
 408.552 154.06 414.88 206.89 410 275.65 c 28
 406.596 323.62 398.768 362.043 356 387.75 c 28
346 19.1504 m 28
 281.919 5.84277 237.79 1.12207 178 26.75 c 28
 109.62 56.0596 61.2559 88.4932 44 157.85 c 20
 18 262.35 7.46973 334.396 38 440.95 c 28
 63.0166 528.26 94.8037 578.44 166 638.55 c 28
 245.038 705.281 306.26 746.482 412 746.85 c 28
 440.274 746.948 458 746.85 478 718.35 c 5
 404 661.35 382.234 672.847 332 630 c 28
 266.964 574.528 230 553.05 192 463.75 c 12
 186.453 450.716 190.943 436.169 204 429.55 c 5
 296 463.75 286.541 471.699 342 465.65 c 4
 403.721 458.917 447.329 442.425 482 393.45 c 28
 537.185 315.499 552 243.35 510 154.05 c 12
 489.649 110.78 467.742 89.8564 429 60 c 28
 400.688 38.1816 381.615 26.5459 346 19.1504 c 28
EndSplineSet
EndChar
StartChar: seven
Encoding: 55 55 23
Width: 560
Flags: W
HStem: 598 114<225 255>
Fore
90 -18 m 5
 180 250 180.018 188.032 232 322 c 5
 267.075 412.396 316 452 316 556 c 5
 304.883 586.548 276.509 598 244 598 c 5
 178.983 598 184 574 100 514 c 5
 75.9092 514 53.6406 521.152 46 544 c 5
 74 682 74 679 142 745 c 5
 166.244 759.359 191.245 757.619 214 741 c 28
 223.885 733.781 212.4 722.259 226 712 c 5
 404 712 304 712 532 712 c 5
 360 350 372 404 224 36 c 5
 208.688 21.3545 195.888 -6.52344 174 -8.88379 c 4
 108 -16 150 -18 90 -18 c 5
EndSplineSet
EndChar
StartChar: eight
Encoding: 56 56 24
Width: 560
Flags: W
Fore
319 98 m 28
 343 111.828 349.595 131.311 357 158 c 28
 365.97 190.328 370.089 214.036 355 244 c 28
 343 267.829 326.236 277.342 301 286 c 28
 265.587 298.15 238.633 302.449 205 286 c 28
 181.033 274.278 170.814 257.51 163 232 c 28
 152.697 198.364 154.464 174.034 169 142 c 28
 179.939 117.892 192.348 103.65 217 94 c 28
 254.071 79.4893 284.506 78.125 319 98 c 28
325 450 m 28
 342.106 459.742 346.447 473.437 353 492 c 28
 361.604 516.373 365.361 532.949 359 558 c 28
 352.771 582.532 344.212 598.19 323 612 c 28
 288.504 634.458 258.35 642.083 219 630 c 28
 189.997 621.095 174.865 603.924 163 576 c 28
 151.104 548.003 152.189 526.435 163 498 c 28
 173.014 471.662 185.001 454.863 211 444 c 28
 252.08 426.836 286.312 427.968 325 450 c 28
193 358 m 5
 139 392 114.672 405.655 95 456 c 28
 66.873 527.982 64.1787 587.175 103 654 c 28
 125.179 692.177 156.187 703.217 199 714 c 28
 268.734 731.564 316.63 729.685 383 702 c 28
 425.326 684.345 451.145 665.34 471 624 c 28
 491.287 581.761 490.462 548.883 477 504 c 28
 468.663 476.206 453.759 464.275 433 444 c 28
 403.743 415.425 389 414 347 384 c 12
 335.558 375.827 357.167 364.052 367 354 c 28
 401.271 318.963 447.352 325.465 470 282 c 28
 499.195 225.97 487.112 180.818 470 120 c 28
 458.858 80.4023 450.416 50.9238 415 30 c 28
 340.382 -14.085 274.725 -8.85059 193 20 c 28
 150.793 34.9004 124.637 54.8613 107 96 c 28
 82.0879 154.108 90.9717 198.738 113 258 c 28
 130.401 304.814 179 316 193 358 c 5
EndSplineSet
EndChar
StartChar: nine
Encoding: 57 57 25
Width: 560
Flags: W
Fore
396 132 m 28
 424.584 201.367 415.872 256.08 384 324 c 28
 372.162 349.226 357.899 362.72 332 373 c 28
 290.676 389.402 258.279 391.822 218 373 c 28
 192.666 361.162 181.684 344.232 172 318 c 28
 146.877 249.945 141.404 198.671 170 132 c 28
 182.183 103.597 198.952 88.5557 228 78 c 28
 269.845 62.7939 300.815 67.0898 342 84 c 28
 368.065 94.7021 385.265 105.948 396 132 c 28
366 32 m 5
 344 34 322.64 18.1875 294 14 c 28
 260.006 9.0293 239.099 0.793945 206 10 c 28
 159.939 22.8115 130.463 38.1816 104 78 c 28
 56.0762 150.111 42.1143 211.731 62 296 c 28
 79.3779 369.642 111.37 418.142 180 450 c 28
 261.454 487.811 332.438 484.261 410 439 c 28
 460.559 409.497 474.375 368.414 490 312 c 28
 518.738 208.241 506.917 141.198 484 36 c 28
 465.557 -48.6611 448.449 -99.0312 396 -168 c 28
 346.301 -233.354 307.063 -266.734 232 -300 c 5
 190.849 -318.236 178 -318 118 -318 c 5
 102.4 -309.384 95.5488 -293.256 100 -276 c 5
 172 -192 202 -204 262 -150 c 5
 315.563 -88.2402 350 -70 366 32 c 5
EndSplineSet
EndChar
StartChar: less
Encoding: 60 60 28
Width: 372
VWidth: 1080
Flags: HW
Fore
231.777 430.75 m 28
 269.59 437.828 309.277 437.5 330.527 416.5 c 5
 341.777 406.75 333.027 387.25 323.027 376.75 c 5
 314.277 365.5 289.277 378.25 278.027 370.75 c 5
 230.527 340 184.277 317.5 115.527 262.75 c 5
 155.527 202 224.277 181.75 300.527 122.5 c 5
 309.277 107.5 321.777 95.5 306.777 82.75 c 5
 259.277 69.25 244.277 72.25 200.527 69.25 c 4
 159.277 67 117.727 109.752 103.027 146.5 c 20
 95.5273 165.25 -12.7236 246.549 23.0273 268 c 4
 38.0273 286 81.543 325.555 125.527 359.5 c 28
 163.671 388.937 172.453 419.644 231.777 430.75 c 28
EndSplineSet
EndChar
StartChar: question
Encoding: 63 63 31
Width: 474
Flags: W
Fore
217 228 m 1
 196.6 212.612 170.132 226.183 154 246 c 1
 127 354 127 384 136 489 c 1
 226 519 226 492 289 507 c 1
 304.455 521.73 307.07 541.672 298 561 c 24
 277.283 605.144 231.74 598.79 190 624 c 24
 161.655 641.119 129.206 637.841 118 669 c 1
 109 711 115.686 734.205 145 750 c 1
 208 756 226 747 280 714 c 1
 316 657 338.504 630.713 347 569 c 24
 354.38 515.391 370 477 325 432 c 8
 290.929 397.929 246.431 416.633 217 372 c 1
 220 321 208 288 217 228 c 1
187 33 m 24
 164.857 31.4268 149.436 36.0781 133 51 c 24
 107.405 74.2373 87.9072 98.6475 97 132 c 24
 104.942 161.131 130.063 173.063 160 177 c 24
 189.733 180.909 213.711 173.768 232 150 c 24
 253.512 122.043 258.027 90.8926 241 60 c 24
 229.635 39.3789 210.486 34.6689 187 33 c 24
EndSplineSet
EndChar
StartChar: at
Encoding: 64 64 32
Width: 527
VWidth: 1000
Flags: W
Fore
339.875 312.75 m 24
 339.125 326.25 334.625 336 322.625 342.75 c 24
 314.375 346.5 308.375 343.5 299.375 341.25 c 24
 285.875 337.5 279.125 333 267.875 325.5 c 24
 254.375 317.25 246.125 313.5 237.125 301.5 c 24
 231.875 294 228.125 288.75 228.125 279.75 c 24
 228.875 257.25 231.125 236.25 252.125 227.25 c 24
 261.125 222.75 267.875 231 277.625 234.75 c 24
 294.875 242.25 307.625 243.75 320.375 258.75 c 24
 334.625 275.25 342.125 290.25 339.875 312.75 c 24
401.375 238.5 m 8
 405.982 213.179 431.625 232.5 451 282 c 0
 480.105 356.358 453.217 403.413 448 444 c 0
 444.901 468.109 393.238 559.378 367 576 c 0
 343.003 591.202 219.69 592.635 168 531 c 0
 143.029 501.226 17.1445 229.913 142 155 c 0
 262 83 430.984 146.121 431 128 c 0
 431.02 106.238 326 61 236 61 c 0
 163.439 61 119 61 71 120 c 0
 0.0566406 207.201 15.2734 273.115 28 372 c 24
 40.6777 470.503 53.0869 545.03 133 604 c 24
 223.146 670.521 401.625 650.234 418 640 c 0
 490 595 561.496 323.187 451.625 181.5 c 24
 440.515 167.173 423.993 173.916 405.875 173.25 c 24
 389.122 172.634 378.188 170.389 363.125 177.75 c 24
 353.274 182.564 351.304 190.175 343.625 198 c 24
 337.541 204.2 336.495 212.678 327.875 213.75 c 24
 308.61 216.146 301.917 197.992 285.125 188.25 c 24
 273.796 181.678 268.691 174.448 255.875 171.75 c 24
 229.701 166.239 210.204 164.162 187.625 178.5 c 24
 171.236 188.907 166.702 202.384 162.125 221.25 c 24
 155.422 248.875 156.478 267.446 166.625 294 c 24
 174.208 313.843 184.22 322.957 200.375 336.75 c 24
 223.581 356.562 240.246 363.79 268.625 375 c 24
 287.957 382.637 304.229 374.659 320.375 387.75 c 24
 327.691 393.683 328.774 400.318 330.875 409.5 c 24
 334.593 425.753 333.973 435.868 330.875 452.25 c 24
 327.898 467.994 328.884 481.144 315.875 490.5 c 24
 306.364 497.34 297.329 494.457 285.875 492 c 24
 271.422 488.9 260.958 486.603 252.125 474.75 c 24
 240.572 459.247 244.625 438 243.125 426 c 8
 240.281 403.248 214.075 390.123 192.125 396.75 c 24
 172.715 402.61 165.352 423.283 168.875 443.25 c 16
 173.375 468.75 179.272 489.007 200.375 507 c 24
 229.732 532.031 256.332 534.549 294.875 536.25 c 24
 318.488 537.292 334.755 537.045 354.125 523.5 c 24
 374.808 509.037 384.216 493.6 388.625 468.75 c 16
 396.875 422.25 388 312 401.375 238.5 c 8
EndSplineSet
EndChar
StartChar: A
Encoding: 65 65 1
Width: 765
VWidth: 1080
Flags: W
Fore
496 327 m 5
 413 319 400 291 324 336 c 5
 358 398 347 396 347 396 c 21
 364 441 360 434 369 459 c 13
 369 459 381 518 398 566 c 5
 441 543 441 490 462 438 c 28
 479 396 499 367 496 327 c 5
745 14 m 12
 763 34 758 59 745 82 c 28
 724 121 677 107 651 142 c 5
 606 267 594 390 540 543 c 28
 518 608 518 637 472 705 c 5
 434 727 404 711 360 689 c 5
 262 499 269 536 188 279 c 13
 188 279 168 193 137 140 c 5
 117 125 90 149 65 135 c 28
 33 116 12 94 10 57 c 28
 10 39 25 33 34 18 c 21
 67 -5 70 7 85 11 c 13
 116 12 134 13 165 14 c 28
 217 17 261 -14 299 23 c 5
 310 37 309 69 307 125 c 5
 288 148 270 117 242 134 c 5
 245 185 238 223 276 253 c 5
 371 262 410 252 486 258 c 5
 543 250 544 202 544 202 c 21
 553 88 547 131 536 108 c 5
 467 94 468 126 444 100 c 28
 418 71 405 0 444 0 c 20
 521 0 522 -2 572 0 c 20
 631 2 677 0 728 11 c 5
 734 15 740 8 745 14 c 12
EndSplineSet
KernsSLIF: 87 -238 0 0 86 -238 0 0
EndChar
StartChar: B
Encoding: 66 66 2
Width: 631
VWidth: 1080
Flags: W
Fore
313 424 m 29
475 210 m 28
 478 270 446 327 387 334 c 20
 338 339 279 360 276 317 c 20
 270 237 265 210 267 145 c 12
 269 100 316 71 361 77 c 28
 429 85 472 142 475 210 c 28
301 666 m 5
 290 552 290 518 301 430 c 5
 336 400 370 430 410 448 c 28
 436 460 454 469 466 496 c 28
 485 535 485 568 466 607 c 28
 450 640 427 653 393 666 c 28
 359 677 347 680 301 666 c 5
48 666 m 5
 31 686 37 716 57 734 c 5
 154 759 203 754 296 742 c 28
 402 729 480 737 560 666 c 28
 593 637 600 606 603 563 c 28
 606 522 602 494 577 461 c 28
 540 412 543 421 441 384 c 5
 509 336 542 357 577 307 c 28
 608 265 608 228 603 176 c 28
 597 117 591 70 543 34 c 28
 458 -31 377 7 270 0 c 28
 177 -6 162 -17 31 0 c 5
 7 29 20 70 48 94 c 5
 94 111 130 62 159 94 c 5
 162 205 143 203 142 273 c 21
 151 413 168 663 168 663 c 13
 136 697 128 649 48 666 c 5
EndSplineSet
EndChar
StartChar: C
Encoding: 67 67 3
Width: 691
VWidth: 1080
Flags: W
Fore
617 148 m 20
 546 137 489 86 404 97 c 28
 326 106 274 129 225 191 c 28
 170 258 156 318 165 404 c 28
 175 505 205 572 284 634 c 28
 338 677 389 694 455 677 c 28
 521 660 542 612 583 558 c 28
 610 522 589 486 634 455 c 5
 674 535 691 581 659 650 c 28
 634 704 587 712 532 734 c 28
 494 749 470 753 430 754 c 28
 371 755 335 757 282 734 c 28
 199 698 156 661 102 589 c 28
 45 511 15 455 9 358 c 28
 4 290 17 247 51 188 c 28
 95 113 137 75 213 34 c 28
 264 7 300 -2 358 0 c 28
 463 3 551 -6 614 77 c 28
 631 99 645 152 617 148 c 20
EndSplineSet
Back
618.192 147.911 m 16
 547.081 136.533 489.771 86.1719 404.859 96.7109 c 24
 326.564 106.429 275.308 129.263 225.659 190.578 c 24
 171.288 257.725 157.07 317.967 165.926 403.911 c 24
 176.3 504.596 205.975 571.56 285.393 634.312 c 24
 339.224 676.847 389.634 694.15 456.06 676.978 c 24
 522.17 659.887 543.184 612.21 584.06 557.511 c 24
 610.787 521.744 589.748 486.4 635.259 455.111 c 1
 675.081 534.756 692.062 580.707 659.911 650.43 c 24
 635.087 704.261 587.765 711.518 532.859 733.866 c 24
 495.178 749.205 471.126 752.594 430.459 753.777 c 24
 372.278 755.473 335.995 756.917 282.548 733.866 c 24
 199.981 698.258 156.943 660.999 103.349 588.8 c 24
 45.5146 510.893 16.3594 455.184 9.48145 358.4 c 24
 4.61719 289.964 17.542 246.974 52.1484 187.733 c 24
 96.083 112.524 137.623 75.4893 214.281 34.1338 c 24
 265.434 6.53809 301.254 -1.75391 359.348 0 c 24
 463.537 3.14551 551.468 -5.56738 615.348 76.7998 c 24
 632.358 98.7324 645.6 152.296 618.192 147.911 c 16
EndSplineSet
EndChar
StartChar: D
Encoding: 68 68 4
Width: 750
VWidth: 1080
Flags: W
Fore
259 669 m 5
 298 705 344 689 395 674 c 28
 457 656 493 632 532 580 c 28
 581 516 599 465 600 384 c 28
 601 307 585 259 540 196 c 28
 502 142 465 120 404 94 c 28
 367 78 341 70 302 77 c 28
 275 82 241 84 242 111 c 20
 253 370 239 243 259 669 c 5
56 667 m 5
 75 668 77 685 94 688 c 28
 113 693 131 700 145 686 c 5
 134 302 142 370 134 100 c 5
 99 60 40 114 0 82 c 5
 -11 54 -11 28 0 14 c 5
 117 0 159 -1 262 0 c 5
 343 1 392 -8 469 17 c 28
 536 39 576 59 623 111 c 28
 675 168 689 215 708 290 c 28
 726 361 736 407 717 478 c 28
 696 554 666 596 606 649 c 28
 553 695 511 707 444 725 c 28
 334 755 267 749 154 748 c 28
 117 748 93 755 60 740 c 28
 33 728 0 708 5 688 c 5
 7 666 34 667 56 667 c 5
EndSplineSet
EndChar
StartChar: E
Encoding: 69 69 5
Width: 648
VWidth: 1080
Flags: W
HStem: 642 103<94 122 255.88 289.978>
Fore
452 644 m 5
 394 654 353 653 290 642 c 5
 273 639 258 647 247 634 c 5
 245 543 245 509 247 395 c 5
 304 384 321 375 375 387 c 5
 413 413 371 474 410 498 c 28
 429 510 453 507 469 489 c 5
 472 159 470 401 473 199 c 5
 428 179 419 185 401 208 c 5
 390 265 424 258 410 284 c 28
 400 303 382 304 362 310 c 28
 330 320 309 327 277 319 c 28
 260 314 249 312 239 293 c 5
 222 208 222 182 222 97 c 5
 229 81 240 75 256 69 c 5
 350 48 410 57 503 61 c 5
 557 89 529 117 589 191 c 5
 617 159 613 147 614 117 c 28
 616 70 620 29 583 0 c 5
 367 0 247 0 37 0 c 5
 19 6 -0 12 0 31 c 28
 0 49 20 54 37 60 c 28
 60 68 97 37 100 62 c 20
 119 258 131 343 122 642 c 5
 57 642 77 624 51 634 c 28
 32 643 15 656 17 677 c 28
 20 717 56 732 94 745 c 5
 466 742 410 757 572 728 c 5
 577 609 572 640 591 589 c 28
 597 571 622 561 617 548 c 5
 546 525 549 532 464 538 c 5
 450 555 490 550 481 592 c 4
 469 643 475 614 452 644 c 5
EndSplineSet
EndChar
StartChar: F
Encoding: 70 70 6
Width: 648
VWidth: 1080
Flags: W
HStem: 642 103<94 122 255.88 289.978>
Fore
393 0 m 21
 176 0 247 0 37 0 c 5
 19 6 -0 12 0 31 c 28
 0 49 20 54 37 60 c 28
 60 68 97 37 100 62 c 20
 119 258 131 343 122 642 c 5
 57 642 77 624 51 634 c 28
 32 643 15 656 17 677 c 28
 20 717 56 732 94 745 c 5
 466 742 410 757 572 728 c 5
 577 609 572 640 591 589 c 28
 597 571 622 561 617 548 c 5
 546 525 549 532 464 538 c 5
 450 555 490 550 481 592 c 4
 469 643 475 614 452 644 c 5
 394 654 353 653 290 642 c 5
 273 639 258 647 247 634 c 5
 245 543 245 509 247 395 c 5
 304 384 321 375 375 387 c 5
 413 413 371 474 410 498 c 28
 429 510 453 507 469 489 c 5
 472 159 470 401 473 199 c 5
 428 179 419 185 401 208 c 5
 390 265 424 258 410 284 c 28
 400 303 382 304 362 310 c 28
 330 320 309 327 277 319 c 28
 260 314 249 312 239 293 c 5
 222 208 222 182 222 97 c 5
 229 81 240 75 256 69 c 5
 350 48 288 66 382 70 c 5
 436 98 393 0 393 0 c 21
EndSplineSet
EndChar
StartChar: G
Encoding: 71 71 7
Width: 776
VWidth: 1080
Flags: W
Fore
703 119 m 4
 631 17 500 7 358 0 c 28
 300 -3 264 7 213 34 c 28
 137 75 95 113 51 188 c 28
 17 247 4 290 9 358 c 28
 15 455 45 511 102 589 c 28
 156 661 199 698 282 734 c 28
 335 757 371 753 430 754 c 28
 489 755 525 755 582 738 c 28
 636 721 657 705 709 669 c 5
 737 583 724 554 685 474 c 5
 639 505 664 544 633 576 c 28
 578 634 534 666 455 677 c 28
 387 686 338 677 284 634 c 28
 205 572 175 505 165 404 c 28
 156 318 170 258 225 191 c 28
 274 129 326 107 404 97 c 28
 472 88 526 94 575 137 c 5
 577 279 580 222 569 282 c 12
 560 328 484 293 458 333 c 28
 453 341 451 351 458 358 c 5
 782 378 475 361 748 375 c 5
 762 361 758 339 745 324 c 28
 735 312 707 332 705 316 c 20
 700 239 723 149 703 119 c 4
EndSplineSet
EndChar
StartChar: H
Encoding: 72 72 8
Width: 810
VWidth: 1080
Flags: W
VStem: 606 105<119 370>
Fore
43 694 m 28
 65 663 114 699 137 668 c 5
 131 259 114 361 119 85 c 5
 92 56 42 108 17 77 c 28
 5 61 10 39 26 26 c 5
 262 0 97 14 350 17 c 5
 369 31 371 50 362 68 c 28
 343 107 285 75 260 111 c 5
 251 361 273 54 253 375 c 5
 688 384 407 381 606 370 c 5
 606 88 612 265 600 111 c 12
 597 74 538 97 515 68 c 28
 498 47 504 27 498 0 c 21
 703 0 565 -9 761 9 c 13
 758 32 763 47 754 68 c 28
 743 92 720 95 711 119 c 5
 717 535 708 108 711 649 c 5
 728 680 770 670 786 702 c 28
 792 713 795 726 786 736 c 5
 655 756 657 754 532 742 c 5
 518 729 521 708 532 691 c 28
 552 662 598 687 617 657 c 5
 606 592 614 558 609 435 c 5
 421 432 668 432 259 435 c 5
 259 560 254 551 263 679 c 5
 291 707 342 660 370 691 c 28
 381 704 381 722 370 734 c 5
 97 742 353 740 46 745 c 5
 29 730 31 710 43 694 c 28
EndSplineSet
EndChar
StartChar: I
Encoding: 73 73 9
Width: 389
VWidth: 1080
Flags: W
Fore
245 678 m 5
 287 697 342 644 367 684 c 13
 367 684 381 722 370 734 c 5
 97 742 353 740 46 745 c 5
 29 730 31 710 43 694 c 28
 65 663 114 699 137 668 c 5
 131 259 129 361 135 85 c 5
 107 56 45 113 17 77 c 28
 5 61 10 39 26 26 c 5
 262 0 97 14 350 17 c 5
 369 31 373 51 362 68 c 28
 341 103 285 58 260 94 c 5
 251 344 265 357 245 678 c 5
EndSplineSet
EndChar
StartChar: J
Encoding: 74 74 2
Width: 379
VWidth: 1000
Flags: W
VStem: 193 99<-54 524>
Fore
193 671 m 5
 195 176 193 192 192 -96 c 5
 188 -119 184 -129 171 -146 c 28
 161 -158 155 -168 140 -171 c 28
 125 -174 115 -167 101 -159 c 28
 81 -148 81 -123 59 -120 c 28
 43 -119 35 -129 25 -141 c 28
 13 -156 6 -168 8 -187 c 28
 10 -208 19 -221 36 -233 c 28
 53 -245 67 -244 87 -245 c 28
 112 -245 127 -243 150 -234 c 28
 179 -222 193 -209 217 -189 c 28
 244 -165 263 -153 279 -121 c 28
 291 -97 290 -78 292 -54 c 5
 286 308 296 311 286 647 c 5
 303 682 344 675 360 709 c 5
 365 719 367 729 360 738 c 5
 336 768 302 757 264 760 c 5
 204 765 157 764 110 749 c 5
 108 736 105 718 116 704 c 5
 136 677 175 699 193 671 c 5
EndSplineSet
EndChar
StartChar: K
Encoding: 75 75 3
Width: 725
VWidth: 1080
Flags: W
VStem: 111 114<401 656.683> 111 122<657 666>
Fore
111 657 m 20
 117 367 117 324 131 85 c 5
 82 77 43 111 11 77 c 28
 -2 62 -3 40 11 26 c 5
 230 26 128 17 284 17 c 5
 301 28 311 48 302 65 c 28
 285 95 238 56 216 82 c 5
 208 188 208 213 216 287 c 5
 229 313 247 333 276 330 c 5
 395 205 344 256 452 128 c 5
 458 105 459 83 441 68 c 28
 414 46 375 93 350 68 c 28
 334 52 331 29 350 10 c 5
 694 10 l 5
 719 36 714 69 691 91 c 28
 670 111 644 79 617 91 c 5
 435 310 469 284 333 404 c 5
 478 583 457 572 558 657 c 5
 581 677 623 668 626 700 c 28
 628 722 605 729 583 739 c 5
 418 750 614 750 421 747 c 5
 393 735 364 720 370 691 c 28
 377 655 447 685 455 649 c 5
 296 441 356 526 250 375 c 5
 236 374 230 388 225 401 c 5
 228 577 236 475 233 666 c 5
 257 689 295 642 319 666 c 28
 340 687 340 721 319 742 c 5
 82 740 270 740 63 742 c 5
 38 725 21 695 37 668 c 28
 52 643 110 686 111 657 c 20
EndSplineSet
EndChar
StartChar: L
Encoding: 76 76 4
Width: 708
VWidth: 1080
Flags: W
VStem: 200 129<48 206 227 576.784>
Fore
114 731 m 5
 94 713 97 688 105 663 c 5
 159 637 184 619 200 577 c 5
 206 338 189 296 192 74 c 5
 126 54 115 88 49 85 c 5
 21 37 18 39 41 14 c 5
 328 -14 350 0 600 14 c 5
 624 11 660 0 660 0 c 21
 674 128 674 128 651 245 c 13
 611 238 557 267 549 228 c 20
 538 171 560 151 558 88 c 5
 449 40 434 48 329 48 c 5
 323 344 332 284 326 586 c 5
 331 605 341 617 358 629 c 28
 384 645 418 620 435 646 c 28
 454 674 444 710 418 731 c 5
 154 742 350 742 114 731 c 5
EndSplineSet
EndChar
StartChar: M
Encoding: 77 77 5
Width: 861
VWidth: 1080
Flags: W
VStem: 88 86<145 454.704>
Fore
20 683 m 28
 28 655 72 680 88 657 c 5
 88 364 80 338 88 102 c 5
 74 83 42 106 28 85 c 28
 16 66 34 49 37 26 c 21
 162 23 145 31 242 34 c 13
 245 57 260 72 250 94 c 28
 236 127 191 114 174 145 c 5
 171 347 188 370 162 640 c 5
 307 358 287 334 395 58 c 5
 410 39 423 21 447 24 c 28
 461 25 464 38 472 49 c 5
 569 271 569 336 694 609 c 5
 691 330 711 290 691 122 c 5
 673 99 637 125 617 102 c 28
 598 80 612 57 609 28 c 21
 720 23 694 14 805 28 c 13
 805 62 824 87 805 114 c 28
 793 131 766 114 754 131 c 5
 748 313 758 516 762 648 c 5
 763 689 835 646 833 679 c 5
 864 700 828 742 828 742 c 5
 762 765 748 769 708 745 c 5
 447 239 l 5
 313 495 370 433 250 726 c 5
 176 746 139 754 60 734 c 5
 37 723 13 707 20 683 c 28
EndSplineSet
EndChar
StartChar: N
Encoding: 78 78 6
Width: 793
VWidth: 1080
Flags: W
VStem: 134 65<114 657>
Fore
649 688 m 5
 631 250 l 5
 464 478 472 458 250 726 c 5
 176 746 139 754 60 734 c 5
 37 723 11 706 20 683 c 28
 35 640 117 680 134 657 c 5
 134 364 125 338 134 102 c 5
 119 83 53 119 28 85 c 28
 15 66 34 49 37 26 c 21
 162 23 145 31 242 34 c 13
 245 57 262 74 250 94 c 28
 239 112 216 82 199 114 c 5
 196 316 228 313 202 583 c 5
 415 299 404 344 609 88 c 5
 623 69 636 52 660 54 c 28
 683 56 695 85 703 97 c 5
 717 361 694 370 708 680 c 5
 808 686 751 670 768 686 c 28
 785 703 800 744 777 746 c 20
 617 760 717 759 552 748 c 5
 563 727 534 705 552 688 c 13
 578 662 569 686 649 688 c 5
EndSplineSet
EndChar
StartChar: O
Encoding: 79 79 7
Width: 765
VWidth: 1080
Flags: W
HStem: 743 0<392.127 431>
Fore
205 376 m 28
 201 305 196 257 230 194 c 28
 260 141 292 114 350 95 c 28
 406 76 449 75 501 103 c 28
 566 139 587 188 614 257 c 28
 645 335 654 388 640 470 c 28
 629 536 614 580 563 624 c 28
 515 665 472 686 410 675 c 28
 329 661 289 614 245 544 c 28
 209 487 208 444 205 376 c 28
697 610 m 28
 768 509 758 418 735 297 c 28
 718 209 671 163 626 95 c 5
 546 -27 389 -29 265 24 c 5
 163 82 66 136 47 260 c 20
 28 388 30 481 108 584 c 28
 193 696 290 744 430 743 c 28
 546 743 630 705 697 610 c 28
205 376 m 24
 201 305 196 257 230 194 c 24
 260 141 292 114 350 95 c 24
 406 76 449 75 501 103 c 24
 566 139 587 188 614 257 c 24
 645 335 654 388 640 470 c 24
 629 536 614 580 563 624 c 24
 515 665 472 686 410 675 c 24
 329 661 289 614 245 544 c 24
 209 487 208 444 205 376 c 24
697 610 m 24
 768 509 758 418 735 297 c 24
 718 209 671 163 626 95 c 1
 546 -27 389 -29 265 24 c 1
 163 82 66 136 47 260 c 16
 28 388 30 481 108 584 c 24
 193 696 290 744 430 743 c 24
 546 743 630 705 697 610 c 24
EndSplineSet
EndChar
StartChar: P
Encoding: 80 80 8
Width: 631
VWidth: 1080
Flags: W
VStem: 118 118<94 333>
Fore
248 420 m 29
236 662 m 5
 226 548 226 514 236 427 c 5
 272 396 306 426 345 444 c 28
 372 456 390 466 402 492 c 28
 420 531 421 564 402 603 c 28
 386 636 363 650 328 662 c 28
 294 674 283 676 236 662 c 5
326 0 m 5
 210 0 165 -17 34 0 c 5
 10 29 23 70 51 94 c 5
 97 111 88 62 118 94 c 5
 120 205 120 273 120 273 c 21
 129 413 124 663 124 663 c 13
 124 663 111 649 31 666 c 5
 14 686 20 716 40 734 c 5
 139 736 182 740 279 742 c 12
 379 745 450 733 523 666 c 28
 555 636 563 606 566 563 c 28
 569 522 563 495 540 461 c 28
 502 401 464 373 398 347 c 28
 339 323 299 338 236 333 c 21
 237 253 240 175 244 110 c 13
 283 97 324 113 344 77 c 28
 359 50 350 19 326 0 c 5
EndSplineSet
EndChar
StartChar: Q
Encoding: 81 81 9
Width: 765
VWidth: 1080
Flags: W
Fore
129 425 m 28
 125 337 130 279 175 204 c 28
 206 152 236 123 293 104 c 28
 346 87 387 86 436 113 c 28
 500 149 517 198 543 266 c 28
 573 345 581 397 567 480 c 28
 557 545 542 587 495 633 c 28
 448 679 407 708 341 703 c 28
 264 696 222 655 177 593 c 28
 137 538 131 493 129 425 c 28
503 51 m 4
 480 35 612 -12 686 -43 c 28
 829 -103 908 -166 1064 -171 c 28
 1115 -172 1203 -87 1190 -137 c 20
 1179 -179 1197 -178 1181 -196 c 28
 1148 -236 1106 -228 1055 -236 c 28
 1013 -243 987 -244 944 -236 c 28
 813 -212 746 -170 623 -117 c 28
 501 -63 355 27 319 37 c 4
 285 46 252 59 220 73 c 5
 124 132 32 188 15 309 c 20
 -3 437 4 488 65 574 c 28
 144 686 231 750 369 753 c 28
 480 755 558 711 621 619 c 28
 690 518 679 427 657 306 c 28
 641 219 597 173 554 104 c 5
 539 81 522 63 503 51 c 4
EndSplineSet
EndChar
StartChar: R
Encoding: 82 82 10
Width: 759
VWidth: 1080
Flags: W
Fore
278 412 m 29
290 668 m 5
 280 555 280 512 290 425 c 5
 326 394 360 420 399 436 c 28
 426 447 444 457 456 483 c 28
 477 527 478 565 456 610 c 28
 440 643 417 656 382 668 c 28
 348 680 337 683 290 668 c 5
469 372 m 5
 456 367 612 236 742 40 c 5
 691 3 657 3 580 31 c 5
 489 142 369 342 341 342 c 5
 318 342 294 344 265 341 c 5
 266 262 270 184 273 119 c 13
 312 106 355 122 374 85 c 28
 385 64 380 45 356 26 c 5
 253 17 203 3 64 26 c 5
 40 54 52 79 81 102 c 5
 126 119 118 70 147 102 c 5
 150 213 150 282 150 282 c 21
 158 421 154 671 154 671 c 13
 154 671 140 657 61 674 c 5
 43 694 49 724 69 742 c 5
 169 744 211 751 308 751 c 4
 412 751 490 745 569 674 c 28
 601 645 608 615 612 572 c 28
 615 531 609 503 586 469 c 20
 552 420 518 394 469 372 c 5
EndSplineSet
EndChar
StartChar: S
Encoding: 83 83 11
Width: 460
VWidth: 1080
Flags: W
Fore
8 252 m 5
 24 269 42 263 60 253 c 28
 123 217 95 134 154 91 c 28
 189 65 220 61 265 65 c 28
 297 69 325 71 341 100 c 28
 373 155 360 209 324 262 c 28
 284 321 225 313 162 347 c 28
 121 370 83 367 58 407 c 28
 10 483 9 553 41 637 c 28
 58 682 84 705 128 722 c 28
 193 748 239 731 307 717 c 28
 346 709 380 713 401 680 c 5
 401 594 401 586 384 501 c 5
 307 482 341 631 273 671 c 28
 239 692 202 705 171 680 c 28
 111 631 110 552 145 484 c 28
 167 440 212 446 256 424 c 28
 312 395 366 405 401 353 c 28
 452 276 445 203 412 117 c 28
 392 63 363 34 310 12 c 28
 246 -15 199 -4 131 12 c 28
 80 25 80 28 11 74 c 5
 0 168 8 184 8 252 c 5
EndSplineSet
EndChar
StartChar: T
Encoding: 84 84 12
Width: 853
VWidth: 1080
Flags: W
VStem: 327 148<105 620.431> 327 165<97 105>
Fore
216 28 m 5
 199 45 194 69 208 88 c 28
 236 126 281 99 327 105 c 21
 321 361 361 449 347 668 c 5
 287 671 270 680 185 677 c 5
 106 630 165 580 82 464 c 5
 54 443 36 487 25 521 c 5
 59 671 33 603 67 717 c 5
 86 737 102 733 125 737 c 28
 244 755 313 728 432 728 c 28
 546 728 612 761 722 737 c 28
 737 734 746 730 757 720 c 5
 812 662 762 720 842 532 c 5
 835 504 810 483 782 489 c 5
 700 603 737 655 663 687 c 5
 603 673 552 667 475 662 c 5
 475 457 489 293 492 97 c 12
 492 69 545 102 560 80 c 28
 578 54 576 20 552 0 c 5
 430 0 370 0 216 28 c 5
EndSplineSet
EndChar
StartChar: U
Encoding: 85 85 13
Width: 802
VWidth: 1080
Flags: W
Fore
122 114 m 21
 100 333 131 528 128 663 c 13
 111 653 104 642 85 637 c 28
 63 631 42 621 26 637 c 28
 9 654 16 676 26 697 c 28
 35 716 48 724 68 731 c 5
 304 740 193 748 375 722 c 5
 397 705 410 675 393 654 c 28
 360 616 301 697 265 663 c 5
 256 427 239 418 270 210 c 5
 296 149 327 101 393 91 c 28
 484 76 557 129 606 196 c 5
 634 455 612 344 626 657 c 5
 603 686 548 641 532 674 c 28
 520 699 542 723 566 737 c 5
 722 740 620 740 754 734 c 5
 775 720 792 696 779 674 c 28
 766 651 731 685 713 666 c 5
 699 435 722 398 699 111 c 5
 674 62 638 44 586 26 c 28
 463 -19 375 -29 250 11 c 28
 190 31 172 74 122 114 c 21
EndSplineSet
EndChar
StartChar: V
Encoding: 86 86 14
Width: 682
VWidth: 1080
Flags: W
Fore
265 40 m 12
 272 7 336 10 350 40 c 20
 484 324 505 434 617 680 c 28
 630 707 666 722 651 748 c 5
 509 759 594 754 472 757 c 5
 461 748 457 735 464 722 c 28
 482 689 571 727 558 691 c 20
 481 489 486 495 381 247 c 12
 376 235 351 243 347 256 c 20
 267 543 253 484 193 705 c 12
 182 748 282 685 304 722 c 28
 310 731 304 742 296 748 c 5
 125 759 202 759 40 740 c 5
 27 729 24 712 31 697 c 28
 43 671 85 687 94 660 c 20
 185 381 205 293 265 40 c 12
EndSplineSet
EndChar
StartChar: W
Encoding: 87 87 15
Width: 1041
VWidth: 1080
Flags: W
Fore
603 620 m 21
 638 519 652 481 714 256 c 12
 718 243 743 235 748 247 c 20
 853 495 848 489 924 691 c 12
 938 727 849 689 831 722 c 28
 824 735 828 748 839 757 c 5
 961 754 876 759 1018 748 c 5
 1033 722 997 707 984 680 c 28
 871 434 850 324 717 40 c 12
 709 24 676 23 672 40 c 20
 633 206 580 367 543 492 c 5
 501 381 429 209 350 40 c 12
 343 25 313 24 309 40 c 20
 249 293 229 381 138 660 c 12
 125 702 53 659 31 697 c 28
 23 712 27 729 40 740 c 5
 202 759 125 759 296 748 c 5
 304 742 310 731 304 722 c 28
 282 685 182 748 193 705 c 20
 253 484 267 543 347 256 c 12
 351 243 376 235 381 247 c 20
 447 403 474 473 501 543 c 5
 461 660 l 12
 443 682 410 671 398 697 c 28
 391 712 394 729 407 740 c 5
 577 737 529 748 700 737 c 5
 708 731 714 720 708 711 c 20
 703 703 670 686 660 686 c 5
 623 682 603 620 603 620 c 21
478 742 m 5
EndSplineSet
EndChar
StartChar: X
Encoding: 88 88 16
Width: 793
VWidth: 1080
Flags: W
VStem: 506 280<23 31>
Fore
276 100 m 24
 285 83 317 106 324 88 c 24
 334 61 298 52 282 28 c 17
 179 28 168 14 68 28 c 9
 52 48 26 54 26 80 c 24
 26 103 47 113 68 122 c 24
 96 134 126 99 145 122 c 16
 296 304 236 228 358 353 c 8
 375 369 366 391 358 412 c 1
 205 597 348 425 172 658 c 1
 135 673 86 635 43 660 c 24
 26 670 12 684 17 703 c 24
 24 729 51 730 77 737 c 1
 213 759 247 768 378 728 c 1
 389 719 393 703 384 691 c 24
 362 663 308 718 293 686 c 1
 347 589 381 575 441 489 c 1
 535 592 526 592 612 686 c 1
 607 707 567 690 560 711 c 24
 556 725 564 738 577 745 c 1
 717 745 649 765 765 725 c 1
 777 709 772 687 757 674 c 24
 741 661 724 683 705 674 c 1
 572 532 600 552 501 430 c 1
 583 293 597 250 677 139 c 1
 728 122 751 147 777 117 c 24
 802 89 786 59 786 23 c 17
 575 23 668 31 506 31 c 9
 506 58 494 75 503 100 c 24
 509 114 536 99 532 128 c 1
 489 210 481 233 438 293 c 0
 430 304 405 306 395 293 c 16
 327 202 381 273 290 139 c 1
 286 127 268 114 276 100 c 24
EndSplineSet
EndChar
StartChar: Y
Encoding: 89 89 17
Width: 759
VWidth: 1080
Flags: W
Fore
191 14 m 5
 177 30 184 52 199 65 c 28
 226 90 268 47 293 74 c 5
 302 168 302 208 302 287 c 5
 236 424 176 475 94 614 c 5
 73 626 51 599 34 614 c 28
 12 634 6 668 26 691 c 5
 233 708 88 691 310 700 c 5
 327 688 338 667 327 649 c 28
 310 619 258 661 242 631 c 5
 296 486 330 449 370 324 c 5
 449 455 452 461 549 614 c 13
 516 628 476 615 464 649 c 28
 456 669 470 688 489 700 c 5
 651 711 523 711 720 700 c 5
 735 687 740 665 728 649 c 28
 703 613 654 656 617 631 c 5
 543 498 501 404 415 290 c 5
 407 182 398 191 412 68 c 12
 416 38 467 80 489 60 c 28
 502 48 508 30 498 17 c 5
 324 0 367 0 191 14 c 5
EndSplineSet
EndChar
StartChar: Z
Encoding: 90 90 18
Width: 768
VWidth: 1080
Flags: W
HStem: 26 59<265 572> 691 34<105 532>
Fore
105 15 m 28
 77 33 96 67 90 100 c 21
 372 481 302 404 532 657 c 13
 532 657 541 682 532 691 c 5
 276 691 509 691 250 691 c 5
 219 681 204 665 182 640 c 28
 142 594 142 569 105 503 c 5
 78 490 44 486 28 512 c 5
 57 626 48 617 105 725 c 5
 694 725 128 717 703 717 c 5
 710 704 693 695 686 683 c 5
 506 464 486 438 265 128 c 5
 259 112 253 97 265 85 c 5
 464 85 418 85 572 85 c 5
 618 104 638 131 666 174 c 28
 694 217 671 222 708 299 c 5
 725 306 742 297 751 282 c 5
 751 213 746 190 725 137 c 28
 707 89 702 50 657 26 c 5
 410 26 469 39 205 39 c 5
 164 33 139 -7 105 15 c 28
EndSplineSet
EndChar
StartChar: bracketright
Encoding: 93 93 21
Width: 262
Flags: W
Fore
219.777 300 m 4
 219.777 262.513 217.777 156 217.777 12 c 5
 161.412 -10.5459 219.777 0 143.777 8 c 12
 114.908 11.0391 93.9648 -16.0488 69.7773 0 c 28
 59.5986 6.75391 55.6055 18.9336 60.7773 30 c 28
 72.0957 54.2168 107.675 35.6631 123.777 57 c 28
 166.409 113.489 137.777 156 146.777 237 c 12
 152.083 284.754 151.228 312.021 153.777 360 c 28
 157.135 423.168 155.483 459.057 161.777 522 c 20
 173.777 642 157.137 653.615 99.7773 699 c 28
 82.248 712.87 57.7334 688.388 42.7773 705 c 28
 38.0801 710.217 38.0664 717.795 42.7773 723 c 28
 66.4473 749.154 97.6475 735.202 132.777 732 c 28
 166.334 728.941 246.777 759 215.777 708 c 5
 211.777 574 219.777 468 219.777 300 c 4
EndSplineSet
EndChar
StartChar: asciicircum
Encoding: 94 94 22
Width: 346
VWidth: 1080
Flags: W
Fore
134.297 453.225 m 4
 139.047 484.575 145.697 520.675 161.848 566.275 c 5
 202.697 544.425 207.447 467.475 222.647 444.675 c 4
 232.582 429.771 331.096 432.271 326.104 450.375 c 4
 317.796 480.516 308.28 511.75 296.747 544.425 c 12
 275.083 605.809 275.848 633.725 232.147 698.325 c 5
 196.047 719.225 167.547 704.025 125.747 683.125 c 5
 64.9248 565.204 46.6768 527.924 19.877 456.075 c 4
 14.7275 442.267 131.422 434.246 134.297 453.225 c 4
EndSplineSet
EndChar
StartChar: grave
Encoding: 96 96 24
Width: 288
VWidth: 1080
Flags: W
Fore
43.7295 683.125 m 5
 85.5293 704.025 114.029 719.225 150.13 698.325 c 5
 193.83 633.725 193.063 605.808 214.729 544.425 c 20
 226.263 511.75 235.778 480.516 244.087 450.375 c 4
 249.078 432.271 150.564 429.771 140.63 444.675 c 4
 125.43 467.475 84.5791 661.274 43.7295 683.125 c 5
EndSplineSet
EndChar
StartChar: a
Encoding: 97 97 3
Width: 417
VWidth: 1000
Flags: W
Fore
250 188 m 28
 249 206 243 219 227 228 c 28
 216 233 208 229 196 226 c 28
 178 221 169 215 154 205 c 28
 136 194 125 189 113 173 c 28
 106 163 101 156 101 144 c 28
 102 114 105 86 133 74 c 28
 145 68 154 79 167 84 c 28
 190 94 207 96 224 116 c 28
 243 138 253 158 250 188 c 28
178 427 m 28
 159 423 145 420 133 404 c 28
 117 383 123 355 121 339 c 12
 118 309 83 291 53 300 c 28
 27 307 17 335 22 362 c 20
 28 396 36 423 64 447 c 28
 103 480 138 484 190 486 c 28
 221 488 243 488 269 469 c 28
 297 450 309 429 315 396 c 20
 326 334 321 289 323 220 c 28
 325 178 320 154 326 112 c 28
 327 103 323 93 332 89 c 28
 360 77 372 142 400 129 c 28
 414 122 407 105 406 89 c 28
 404 58 405 35 383 13 c 28
 370 1 356 3 338 2 c 28
 315 0 301 -2 281 8 c 28
 268 14 265 25 255 35 c 28
 247 43 246 55 234 56 c 28
 209 59 200 35 177 22 c 28
 162 13 155 4 138 0 c 28
 103 -7 78 -10 47 9 c 28
 26 23 19 41 13 66 c 28
 4 103 5 128 19 163 c 28
 29 190 43 202 64 220 c 28
 96 246 118 256 155 271 c 28
 181 281 202 271 224 288 c 28
 233 296 235 305 238 317 c 28
 243 338 242 352 238 374 c 28
 234 395 235 412 218 425 c 28
 205 434 193 430 178 427 c 28
EndSplineSet
EndChar
StartChar: b
Encoding: 98 98 4
Width: 508
VWidth: 1000
Flags: W
Fore
251 425 m 28
 217 418 197 402 178 372 c 28
 148 322 153 282 155 224 c 28
 158 171 163 139 190 93 c 28
 203 69 213 52 239 44 c 28
 259 37 275 40 294 50 c 28
 341 76 361 106 384 155 c 28
 401 190 408 216 402 255 c 28
 395 308 375 337 341 378 c 28
 327 396 317 404 297 413 c 28
 280 421 269 428 251 425 c 28
105 788 m 5
 125 801 139 766 149 744 c 5
 153 634 153 532 151 462 c 5
 155 435 192 468 218 473 c 28
 247 479 263 487 292 490 c 28
 318 493 335 501 359 490 c 28
 412 466 430 430 456 378 c 28
 483 324 487 287 488 227 c 28
 489 190 487 168 474 134 c 28
 464 105 453 90 433 66 c 28
 411 40 402 12 368 8 c 20
 265 -5 108 -13 74 27 c 5
 67 146 66 564 71 658 c 5
 56 681 -3 666 9 689 c 5
 29 728 52 751 105 788 c 5
EndSplineSet
EndChar
StartChar: c
Encoding: 99 99 5
Width: 432
VWidth: 1000
Flags: W
Fore
345 338 m 28
 322 336 317 360 299 374 c 28
 280 387 273 403 250 408 c 28
 220 415 197 411 171 394 c 28
 149 380 142 364 133 339 c 28
 112 284 105 248 114 190 c 28
 120 148 129 121 159 93 c 28
 178 75 196 74 222 70 c 28
 246 67 263 63 284 76 c 28
 308 89 314 107 323 133 c 20
 334 163 377 147 375 121 c 4
 372 64 375 70 357 46 c 28
 340 23 321 18 294 9 c 28
 268 2 252 5 226 5 c 28
 200 4 185 1 161 8 c 28
 130 16 112 25 88 47 c 28
 54 80 34 106 24 150 c 4
 10 207 10 246 27 303 c 28
 43 361 58 398 105 434 c 28
 151 470 190 480 248 478 c 28
 289 476 309 476 345 440 c 12
 367 418 380 396 374 366 c 28
 370 351 361 339 345 338 c 28
EndSplineSet
EndChar
StartChar: d
Encoding: 100 100 6
Width: 444
VWidth: 1000
Flags: W
Fore
240 425 m 28
 273.731 417.857 292.072 400.452 310 371 c 28
 337.206 326.305 337.865 291.181 334 239 c 28
 330.957 197.92 321.761 173.976 300 139 c 28
 286.015 116.521 276.981 99.7627 252 91 c 28
 232.005 83.9863 217.758 89.3428 198 97 c 28
 158.431 112.335 132.607 125.087 110 161 c 28
 89.2988 193.886 86.5391 220.526 92 259 c 28
 99.3535 310.805 119.277 338.171 152 379 c 28
 165.522 395.873 175.639 404.372 195 414 c 28
 211.177 422.045 222.325 428.742 240 425 c 28
259 692 m 4
 265.364 669.727 326.942 712.369 318 691 c 5
 314 583 314 535 316 467 c 5
 311.71 441.26 290.838 478.639 274 484 c 28
 246.508 492.753 230.823 502.296 202 501 c 28
 174.896 499.781 158.504 494.156 136 479 c 28
 89.1953 447.478 67.0537 419.563 42 369 c 28
 15.7812 316.086 11.7305 280.028 10 221 c 28
 8.95898 185.493 11.833 164.373 24 131 c 28
 34.3096 102.723 44.8486 88.2188 64 65 c 28
 85.4336 39.0146 94.5547 11.0137 128 7 c 20
 183.341 0.359375 265 40 287 55 c 12
 315.738 74.5938 329.331 7.2002 364 10 c 20
 372.591 10.6934 399.12 4.46484 407 8 c 4
 428.246 17.5312 426.765 44.2793 427 62 c 4
 427.163 74.2578 393.824 93.6533 393.899 108 c 5
 394.92 302.721 388.279 672.571 385 748 c 5
 398.915 770.154 331.072 796.046 309 782 c 4
 287 768 251 720 259 692 c 4
EndSplineSet
EndChar
StartChar: e
Encoding: 101 101 7
Width: 364
VWidth: 1000
Flags: W
Fore
112 269 m 0
 109 245 109 220 114 190 c 8
 120 152 126 126 155 101 c 24
 174 85 192 86 217 83 c 24
 242 81 260 75 280 89 c 24
 295 100 294 115 301 133 c 16
 311 163 354 147 353 121 c 0
 349 64 351 72 336 46 c 24
 325 27 314 18 294 9 c 24
 269 -1 252 5 226 5 c 24
 200 4 185 1 161 8 c 24
 130 16 112 25 88 47 c 24
 54 80 34 106 24 150 c 0
 10 207 10 246 27 303 c 24
 43 361 58 398 105 434 c 24
 151 469 190 480 247 474 c 24
 285 470 313 466 332 429 c 0
 359 374 358 352 341 307 c 24
 336 292 329 280 313 279 c 16
 303 278 119 264 112 269 c 0
129 337 m 0
 136 328 249 333 250 343 c 0
 251 367 261 391 240 406 c 8
 216 423 190 412 166 396 c 24
 143 381 118 352 129 337 c 0
EndSplineSet
EndChar
StartChar: f
Encoding: 102 102 8
Width: 322
VWidth: 1000
Flags: W
VStem: 70 93<94.5219 277.665>
Fore
165 438 m 5
 210 436 237 461 260 432 c 28
 277 411 268 382 248 364 c 28
 225 343 193 358 168 357 c 5
 162 281 161 167 163 74 c 5
 163 54 197 73 209 57 c 5
 228 28 217 11 209 0 c 5
 127 0 142 0 21 0 c 5
 4 14 4 36 15 55 c 5
 26 74 54 60 66 78 c 5
 70 180 68 236 70 325 c 5
 62 347 47 344 30 365 c 5
 25 375 20 390 25 406 c 28
 32 433 59 437 70 463 c 5
 81 528 62 560 89 611 c 5
 111 657 135 678 178 705 c 28
 204 722 222 724 252 729 c 28
 270 732 281 734 298 729 c 28
 335 719 368 714 383 678 c 28
 390 661 386 643 372 631 c 28
 358 621 343 627 326 631 c 28
 305 637 298 654 277 658 c 28
 250 662 230 662 209 647 c 28
 185 629 181 608 174 579 c 28
 159 526 166 499 165 438 c 5
EndSplineSet
EndChar
StartChar: g
Encoding: 103 103 9
Width: 515
VWidth: 1000
Flags: W
HStem: 452 20G<111 146>
Fore
290 -9 m 28
 326 -19 341 -44 357 -78 c 28
 367 -100 374 -119 362 -140 c 28
 347 -167 322 -168 293 -174 c 28
 257 -183 232 -187 197 -173 c 28
 163 -158 131 -143 129 -106 c 28
 127 -70 157 -53 188 -33 c 28
 222 -11 251 3 290 -9 c 28
233 429 m 28
 263 421 272 395 283 366 c 28
 294 332 295 308 283 274 c 28
 271 237 259 201 220 196 c 28
 188 192 172 218 154 244 c 28
 135 270 127 290 129 322 c 28
 131 354 141 374 164 396 c 28
 185 417 204 435 233 429 c 28
386 395 m 5
 422 388 424 352 455 357 c 28
 474 359 481 374 489 391 c 28
 505 424 501 451 497 484 c 12
 495 501 470 492 452 490 c 28
 419 487 405 460 372 461 c 28
 333 462 317 489 279 499 c 28
 259 504 248 506 228 504 c 28
 186 500 167 472 125 472 c 28
 97 472 83 497 57 493 c 5
 49 466 84 465 85 442 c 28
 88 399 55 381 46 339 c 28
 40 316 33 301 40 277 c 28
 51 235 85 225 104 186 c 28
 113 169 123 159 119 140 c 5
 93 106 78 104 57 66 c 5
 58 39 85 33 106 15 c 28
 118 5 140 8 139 -8 c 28
 137 -41 90 -27 63 -47 c 28
 40 -64 17 -71 11 -99 c 28
 3 -143 31 -169 57 -207 c 28
 73 -230 83 -245 108 -258 c 28
 138 -273 160 -271 193 -269 c 28
 246 -267 276 -262 324 -241 c 28
 383 -215 419 -198 459 -148 c 28
 478 -124 486 -105 487 -74 c 28
 488 -40 483 -16 461 9 c 28
 431 44 399 50 355 60 c 28
 301 72 263 37 212 61 c 28
 194 69 175 80 178 101 c 28
 184 136 226 130 257 147 c 28
 305 173 348 168 381 211 c 28
 402 239 398 265 399 300 c 28
 400 337 376 356 386 395 c 5
EndSplineSet
EndChar
StartChar: h
Encoding: 104 104 10
Width: 485
VWidth: 1000
Flags: W
VStem: 102 86<165.383 333 451 646>
Fore
107 95 m 5
 100 270 102 385 102 645 c 5
 90 666 64 657 46 673 c 28
 34 684 19 692 23 707 c 28
 29 731 55 731 80 736 c 28
 120 744 156 759 184 730 c 5
 190 605 188 559 188 451 c 5
 218 485 239 485 284 493 c 12
 324 500 350 481 381 456 c 28
 404 438 413 422 422 394 c 28
 459 280 429 192 432 85 c 5
 441 61 464 71 472 53 c 28
 479 39 481 22 472 12 c 5
 419 14 444 11 290 13 c 5
 276 27 278 48 290 64 c 5
 302 82 329 65 341 82 c 5
 355 173 368 219 353 318 c 12
 347 355 324 374 290 391 c 28
 270 401 255 400 233 394 c 28
 213 389 189 387 188 366 c 20
 182 277 191 183 187 98 c 5
 197 76 221 94 232 79 c 28
 247 59 257 35 239 15 c 5
 112 13 190 13 27 13 c 5
 9 27 5 44 14 62 c 28
 32 96 89 65 107 95 c 5
EndSplineSet
EndChar
StartChar: i
Encoding: 105 105 11
Width: 250
VWidth: 1000
Flags: W
VStem: 97 80<66 72> 97 85<72 151.447>
Fore
137 576 m 28
 123 577 112 578 102 588 c 28
 92 598 91 608 91 622 c 28
 91 638 92 649 102 662 c 28
 113 676 124 683 142 685 c 28
 165 687 184 685 199 667 c 28
 214 651 218 632 210 611 c 28
 205 595 193 591 178 584 c 28
 163 577 153 575 137 576 c 28
EndSplineSet
Ref: 305 305 S 1 0 0 1 0 0
EndChar
StartChar: j
Encoding: 106 106 12
Width: 286
VWidth: 1000
Flags: W
VStem: 164 98<-96 374>
Fore
185 576 m 28
 171 577 161 578 151 588 c 28
 141 598 140 608 139 622 c 28
 139 638 141 649 151 662 c 28
 162 676 173 683 191 685 c 28
 214 687 232 685 247 667 c 28
 263 651 266 632 259 611 c 28
 253 595 241 591 227 584 c 28
 212 577 201 575 185 576 c 28
EndSplineSet
Ref: 63166 63166 S 1 0 0 1 0 0
EndChar
StartChar: k
Encoding: 107 107 13
Width: 537
VWidth: 1000
Flags: W
VStem: 81 90<274 647.195> 81 104<57 197>
Fore
80 649 m 5
 69 664 34 651 22 666 c 5
 12 678 11 691 16 705 c 5
 52 728 39 723 56 729 c 28
 81 738 97 741 124 740 c 28
 151 738 174 744 191 722 c 5
 201 708 199 693 191 677 c 5
 186 667 173 670 168 660 c 5
 172 520 172 432 171 274 c 5
 173 264 185 253 194 251 c 5
 249 295 270 298 320 351 c 5
 326 365 331 380 320 391 c 5
 307 403 290 384 274 391 c 5
 262 395 252 401 251 413 c 5
 250 432 263 444 280 453 c 5
 371 457 399 459 485 465 c 5
 500 455 508 440 503 423 c 5
 376 334 378 343 263 252 c 5
 392 131 411 136 525 33 c 5
 523 9 l 5
 439 -7 405 5 299 5 c 5
 287 18 298 31 310 44 c 5
 328 62 368 36 373 61 c 5
 278 112 276 114 185 197 c 5
 186 131 185 97 182 49 c 5
 193 34 214 48 225 32 c 5
 230 25 231 13 225 7 c 5
 174 -3 98 -1 39 0 c 5
 29 9 32 23 39 34 c 5
 49 51 70 40 81 57 c 5
 79 256 82 430 80 649 c 5
EndSplineSet
EndChar
StartChar: l
Encoding: 108 108 14
Width: 281
VWidth: 1000
Flags: W
VStem: 100 115<89 716>
Fore
215 716 m 13
 215 89 l 21
 232 79 248 77 265 49 c 5
 275 36 268 23 265 9 c 13
 39 4 l 21
 25 23 29 42 33 61 c 5
 56 83 78 83 101 89 c 13
 100 618 l 21
 62 619 38 613 15 647 c 13
 21 686 l 21
 29 710 42 717 65 731 c 5
 109 752 156 737 215 716 c 13
EndSplineSet
EndChar
StartChar: m
Encoding: 109 109 15
Width: 711
VWidth: 1000
Flags: W
VStem: 51 106<119 331> 558 98<137 174.092 137 348> 559 97<123 137>
Fore
686 104 m 28
 679 120 661 119 656 137 c 5
 658 229 661 214 656 387 c 5
 643 422 625 440 594 461 c 28
 564 480 543 486 508 489 c 28
 477 492 459 488 429 479 c 28
 412 474 406 462 389 460 c 28
 368 458 357 466 338 472 c 28
 314 480 303 494 278 495 c 28
 260 495 252 487 235 482 c 28
 206 473 189 450 159 459 c 28
 146 463 148 479 137 487 c 28
 123 498 120 503 97 504 c 5
 27 434 51 459 0 413 c 5
 3 391 39 405 51 385 c 5
 53 169 51 218 52 119 c 5
 40 96 8 98 0 72 c 28
 -6 55 -1 41 9 27 c 28
 17 16 25 13 38 9 c 5
 86 9 94 8 165 9 c 5
 192 16 192 25 197 42 c 28
 204 63 198 80 186 99 c 28
 178 110 164 108 157 119 c 5
 157 229 155 260 157 330 c 5
 166 350 178 359 197 370 c 28
 217 381 231 387 254 385 c 28
 271 383 281 378 292 366 c 28
 301 355 302 346 304 332 c 5
 303 215 301 275 304 119 c 5
 293 97 261 104 250 80 c 28
 242 61 248 47 256 28 c 28
 260 18 265 11 273 7 c 5
 377 6 373 5 427 7 c 5
 441 14 446 21 449 34 c 28
 457 61 456 83 438 104 c 28
 428 117 405 105 398 119 c 5
 396 193 402 233 396 349 c 5
 404 368 416 378 434 389 c 28
 450 398 461 403 480 402 c 28
 501 401 514 396 531 384 c 28
 545 374 554 363 558 348 c 5
 560 215 559 223 559 123 c 5
 557 117 527 101 521 80 c 28
 514 61 519 47 526 28 c 28
 530 18 535 11 543 7 c 5
 648 6 621 5 675 7 c 5
 689 14 694 21 698 34 c 28
 705 61 699 79 686 104 c 28
EndSplineSet
EndChar
StartChar: n
Encoding: 110 110 16
Width: 470
VWidth: 1000
Flags: W
VStem: 51 106<119 331>
Fore
383 448 m 28
 372 464 356 464 338 472 c 28
 315 483 303 494 278 495 c 28
 260 495 252 487 235 482 c 28
 206 473 189 450 159 459 c 28
 146 463 148 479 137 487 c 28
 123 498 120 503 97 504 c 5
 27 434 51 459 0 413 c 5
 3 391 39 405 51 385 c 5
 53 169 51 218 52 119 c 5
 40 96 8 98 0 72 c 28
 -6 55 -1 41 9 27 c 28
 17 16 25 13 38 9 c 5
 86 9 94 8 165 9 c 5
 192 16 192 25 197 42 c 28
 204 63 198 80 186 99 c 28
 178 110 164 108 157 119 c 5
 157 229 155 260 157 330 c 5
 166 350 178 359 197 370 c 28
 217 381 231 387 254 385 c 28
 271 383 281 378 292 366 c 28
 301 355 302 346 304 332 c 5
 303 215 301 275 304 119 c 5
 293 97 261 104 250 80 c 28
 242 61 248 47 256 28 c 28
 260 18 265 11 273 7 c 5
 377 6 373 5 427 7 c 5
 441 14 446 21 449 34 c 28
 457 61 456 83 438 104 c 28
 428 117 405 105 398 119 c 5
 396 193 402 233 396 349 c 5
 404 368 405 416 383 448 c 28
EndSplineSet
EndChar
StartChar: o
Encoding: 111 111 17
Width: 432
VWidth: 1000
Flags: W
Fore
171 394 m 28
 197 411 220 415 250 408 c 28
 273 403 284 392 299 374 c 28
 324 342 332 318 338 278 c 28
 346 222 343 186 323 133 c 28
 314 107 308 89 284 76 c 28
 263 63 246 67 222 70 c 28
 196 74 178 75 159 93 c 28
 129 121 120 148 114 190 c 28
 105 248 112 284 133 339 c 28
 142 364 149 380 171 394 c 28
226 5 m 28
 252 5 268 2 294 9 c 28
 321 18 337 25 357 46 c 28
 386 76 395 101 408 142 c 28
 421 187 421 215 419 262 c 28
 417 305 416 331 398 370 c 28
 384 401 369 416 345 440 c 20
 309 476 289 476 248 478 c 28
 190 480 151 470 105 434 c 28
 58 398 43 361 27 303 c 28
 10 246 10 207 24 150 c 4
 34 106 54 80 88 47 c 28
 112 25 130 16 161 8 c 28
 185 1 200 4 226 5 c 28
EndSplineSet
EndChar
StartChar: p
Encoding: 112 112 18
Width: 474
VWidth: 1000
Flags: W
VStem: 71 97<124 339> 71 129<-178 -4>
Fore
199 -4 m 5
 223 -2 236 -10 260 -9 c 28
 282 -9 296 -9 317 0 c 28
 347 13 361 28 385 51 c 28
 405 71 419 82 430 108 c 28
 448 149 446 176 448 220 c 28
 449 265 447 290 436 334 c 28
 428 369 426 392 402 419 c 28
 380 444 360 451 328 459 c 28
 294 468 272 467 237 459 c 28
 208 452 209 448 169 425 c 5
 127 459 139 467 112 465 c 5
 63 440 20 426 10 379 c 5
 44 362 57 365 71 339 c 5
 71 -64 73 83 72 -176 c 5
 61 -202 25 -200 21 -228 c 28
 18 -242 25 -254 38 -262 c 5
 106 -265 149 -263 241 -264 c 5
 254 -252 253 -235 247 -218 c 28
 238 -196 209 -198 200 -178 c 5
 200 -77 197 -116 199 -4 c 5
168 334 m 12
 168 354 190 359 209 366 c 28
 229 374 244 375 265 370 c 28
 289 364 301 355 318 338 c 28
 340 314 350 296 359 265 c 28
 365 247 365 236 362 218 c 28
 357 181 354 156 332 126 c 28
 312 100 294 85 262 78 c 28
 237 73 220 76 199 89 c 28
 182 99 168 109 168 129 c 20
 168 241 169 182 168 334 c 12
EndSplineSet
EndChar
StartChar: q
Encoding: 113 113 19
Width: 474
VWidth: 1000
Flags: W
VStem: 299 94<131 458>
Fore
393 458 m 1
 393 54 394 95 394 -165 c 1
 406 -191 441 -188 446 -216 c 24
 448 -231 441 -242 429 -250 c 1
 360 -254 318 -251 226 -252 c 1
 212 -240 214 -223 220 -207 c 24
 229 -184 258 -187 266 -167 c 1
 266 -65 269 -104 267 8 c 1
 244 10 230 1 207 2 c 24
 184 3 171 3 150 11 c 24
 119 24 105 39 82 63 c 24
 61 82 47 93 36 119 c 24
 18 160 20 187 19 231 c 24
 18 276 20 302 30 345 c 24
 39 380 41 404 65 430 c 24
 86 455 107 462 138 470 c 24
 173 479 195 478 229 470 c 24
 258 463 258 459 298 436 c 1
 339 470 328 478 355 476 c 1
 404 451 355 474 393 458 c 1
299 345 m 8
 299 365 277 370 258 377 c 24
 237 385 223 387 201 381 c 24
 178 375 165 366 149 349 c 24
 126 325 117 307 107 276 c 24
 102 259 102 247 104 229 c 24
 109 192 112 168 135 137 c 24
 155 111 172 96 205 89 c 24
 229 84 246 88 267 101 c 24
 284 111 299 121 299 140 c 16
 299 252 298 193 299 345 c 8
EndSplineSet
EndChar
StartChar: r
Encoding: 114 114 20
Width: 367
VWidth: 1000
Flags: W
Fore
49 0 m 5
 39 4 36 12 32 23 c 5
 29 31 28 38 32 46 c 5
 43 68 67 63 78 85 c 5
 83 176 77 210 80 328 c 5
 67 357 23 354 23 385 c 5
 57 440 60 454 102 470 c 5
 121 477 136 474 154 465 c 5
 184 436 167 455 199 438 c 5
 229 455 237 482 277 480 c 5
 316 477 335 444 345 406 c 5
 351 384 347 368 334 349 c 5
 322 332 309 317 288 320 c 5
 263 325 273 365 248 372 c 5
 205 343 214 349 187 328 c 5
 184 165 188 228 186 110 c 5
 192 94 208 98 214 82 c 5
 222 63 222 45 209 30 c 5
 167 18 106 13 49 0 c 5
EndSplineSet
EndChar
StartChar: s
Encoding: 115 115 21
Width: 314
VWidth: 1080
Flags: W
Fore
25 146 m 4
 0 99 7 73 30 37 c 28
 45 14 66 11 93 5 c 28
 125 -3 146 -3 178 5 c 28
 220 15 251 21 276 57 c 28
 304 97 308 135 293 182 c 28
 276 235 239 250 195 284 c 28
 161 312 108 298 99 341 c 28
 92 371 115 395 144 404 c 28
 169 412 185 396 207 382 c 28
 232 365 245 297 258 324 c 20
 279 368 281 375 269 404 c 28
 255 441 228 457 190 467 c 28
 157 476 133 472 104 455 c 28
 55 425 19 393 17 336 c 20
 15 290 15 284 36 245 c 12
 61 198 120 225 161 192 c 28
 185 173 208 159 207 129 c 28
 205 91 182 59 144 55 c 28
 86 49 49 194 25 146 c 4
EndSplineSet
EndChar
StartChar: t
Encoding: 116 116 22
Width: 316
VWidth: 1080
Flags: W
VStem: 64 88<157 355>
Fore
283 448 m 5
 303 427 302 395 283 374 c 5
 221 372 231 375 174 373 c 5
 165 370 157 365 152 357 c 5
 154 243 152 240 151 157 c 5
 159 118 149 82 192 69 c 5
 214 70 243 91 260 87 c 4
 282 82 269 61 257 42 c 4
 251 32 243 28 226 13 c 5
 194 2 173 2 140 8 c 5
 107 13 82 35 64 64 c 5
 65 162 64 190 64 355 c 5
 47 366 29 373 19 394 c 5
 14 405 22 424 26 434 c 5
 124 539 62 466 122 536 c 5
 140 539 146 536 155 521 c 5
 171 496 160 487 162 451 c 5
 236 457 242 451 283 448 c 5
EndSplineSet
EndChar
StartChar: u
Encoding: 117 117 23
Width: 438
VWidth: 1080
Flags: W
VStem: 47 93<142 375> 291 86<127 394>
Fore
429 76 m 5
 394 104 411 82 377 127 c 5
 377 298 377 218 377 410 c 5
 382 425 403 428 400 444 c 28
 398 458 385 461 372 466 c 28
 339 480 316 478 281 474 c 28
 257 471 239 473 224 455 c 28
 214 443 210 429 218 415 c 28
 234 390 274 415 291 393 c 5
 291 106 292 283 292 159 c 5
 279 127 264 102 229 97 c 28
 191 91 158 112 140 142 c 5
 140 347 142 233 140 449 c 5
 133 463 122 468 106 472 c 28
 98 475 92 474 83 472 c 28
 48 463 19 459 0 427 c 28
 -5 419 -4 412 0 404 c 28
 10 385 36 393 46 375 c 5
 46 -9 47 309 47 95 c 5
 54 65 63 44 87 23 c 28
 105 7 120 1 144 0 c 28
 183 -2 203 19 241 28 c 28
 252 31 258 37 269 34 c 5
 292 8 290 -8 315 -9 c 5
 383 13 389 25 429 76 c 5
EndSplineSet
EndChar
StartChar: v
Encoding: 118 118 24
Width: 428
VWidth: 1080
Flags: W
Fore
0 465 m 28
 -12 442 5 421 23 403 c 28
 28 398 31 403 40 396 c 5
 87 264 97 248 129 138 c 5
 139 95 127 72 150 25 c 5
 168 5 196 1 218 15 c 5
 237 61 222 85 243 133 c 5
 309 245 319 300 387 402 c 5
 394 407 405 404 410 412 c 28
 420 431 419 450 406 466 c 28
 387 489 363 485 334 487 c 28
 300 490 275 493 247 478 c 12
 229 468 230 443 241 427 c 28
 250 413 272 429 281 415 c 28
 296 393 281 373 274 347 c 20
 257 281 257 254 209 175 c 5
 203 169 214 173 194 171 c 5
 145 248 160 273 149 341 c 28
 145 365 140 374 144 404 c 12
 146 415 165 401 173 410 c 28
 190 430 202 466 178 478 c 20
 152 491 123 492 87 489 c 28
 52 487 16 496 0 465 c 28
EndSplineSet
EndChar
StartChar: w
Encoding: 119 119 25
Width: 659
VWidth: 1080
Flags: W
Fore
59 355 m 1
 122 223 106 138 180 0 c 1
 197 -8 212 4 226 17 c 1
 273 95 269 82 307 192 c 1
 319 205 330 225 347 224 c 1
 360 223 367 202 375 192 c 1
 398 82 400 66 448 0 c 1
 462 -7 475 0 487 11 c 1
 590 146 580 228 630 387 c 1
 637 399 648 402 652 415 c 1
 659 437 660 455 647 472 c 1
 635 487 620 486 601 487 c 1
 574 489 550 494 533 472 c 1
 526 463 528 454 533 444 c 1
 544 421 554 426 561 402 c 1
 571 370 559 351 548 311 c 1
 531 260 533 225 474 211 c 1
 415 255 436 230 410 296 c 1
 410 319 398 382 406 402 c 1
 415 427 440 426 453 449 c 1
 461 463 459 479 448 489 c 1
 427 501 408 497 385 489 c 1
 374 486 375 478 358 444 c 1
 353 472 354 486 345 489 c 1
 311 501 290 501 254 480 c 1
 244 468 247 454 254 440 c 1
 268 410 293 414 311 385 c 1
 322 367 312 327 307 307 c 1
 293 249 292 264 235 224 c 1
 184 284 197 312 150 428 c 1
 156 437 172 426 179 434 c 1
 179 470 179 462 163 474 c 1
 116 495 87 489 38 480 c 1
 18 467 13 447 15 423 c 1
 51 389 45 383 59 355 c 1
EndSplineSet
EndChar
StartChar: x
Encoding: 120 120 26
Width: 494
VWidth: 1080
Flags: W
HStem: 471 20G<117.5 159.5>
Fore
34 406 m 5
 24 418 27 455 36 468 c 5
 104 485 91 491 144 491 c 5
 175 491 216 494 233 468 c 5
 243 454 243 438 233 423 c 5
 227 413 209 423 205 411 c 5
 222 375 214 359 239 343 c 5
 254 334 268 335 284 341 c 5
 313 352 302 353 337 396 c 5
 340 407 342 414 336 423 c 5
 328 433 311 427 307 440 c 5
 301 462 317 473 336 485 c 5
 360 487 370 493 393 491 c 5
 425 488 455 500 472 472 c 5
 481 459 474 433 466 419 c 5
 459 404 439 421 430 411 c 5
 392 370 355 340 300 267 c 5
 332 186 387 159 448 80 c 5
 455 60 465 44 453 27 c 5
 415 9 403 13 368 9 c 5
 335 6 300 2 265 9 c 5
 256 17 259 37 260 49 c 5
 261 65 300 48 307 63 c 5
 313 75 303 93 300 106 c 5
 294 131 283 135 260 145 c 5
 245 146 245 146 218 145 c 5
 197 124 192 135 173 101 c 5
 170 90 163 95 169 72 c 5
 180 61 199 79 209 66 c 5
 217 55 209 44 203 32 c 5
 194 16 180 15 163 9 c 5
 118 5 95 0 55 9 c 5
 35 16 29 18 21 38 c 5
 12 58 6 78 21 95 c 5
 40 117 69 93 95 106 c 5
 163 174 170 180 203 238 c 5
 173 302 171 319 118 391 c 5
 90 410 72 396 34 406 c 5
EndSplineSet
EndChar
StartChar: y
Encoding: 121 121 27
Width: 491
VWidth: 1080
Flags: W
Fore
112 -104 m 24
 88 -117 68 -87 44 -99 c 1
 22 -109 13 -118 9 -150 c 1
 -1 -175 -6 -196 9 -218 c 1
 54 -251 77 -260 117 -245 c 1
 291 74 316 144 441 404 c 1
 474 416 466 405 472 416 c 24
 485 441 475 466 457 485 c 1
 436 497 417 496 391 495 c 24
 354 493 332 491 300 474 c 1
 287 459 287 438 300 423 c 24
 308 413 324 427 334 417 c 24
 346 404 341 389 339 372 c 24
 332 306 317 277 283 212 c 1
 267 200 248 196 231 207 c 1
 203 271 190 302 180 366 c 24
 177 384 169 398 180 411 c 24
 190 423 210 405 220 417 c 24
 234 435 229 458 214 474 c 1
 190 501 159 494 123 492 c 24
 82 490 70 493 21 463 c 1
 6 446 9 439 15 426 c 24
 26 401 40 393 74 388 c 1
 131 274 149 214 172 97 c 24
 178 66 183 47 176 17 c 24
 165 -35 159 -79 112 -104 c 24
EndSplineSet
EndChar
StartChar: z
Encoding: 122 122 28
Width: 466
VWidth: 1080
Flags: W
HStem: 470 21G<102.5 175.5>
Fore
35 301 m 1
 15 305 22 330 19 351 c 24
 13 397 15 432 25 470 c 1
 89 478 84 470 121 470 c 24
 230 470 286 485 400 470 c 1
 421 450 409 424 400 396 c 1
 286 252 296 258 201 135 c 1
 199 121 201 109 212 101 c 1
 273 89 262 89 307 101 c 1
 362 127 364 190 404 222 c 1
 438 212 441 173 444 137 c 1
 448 86 451 41 410 11 c 1
 307 13 288 8 210 9 c 24
 128 11 137 -2 0 17 c 1
 -8 29 8 56 15 68 c 1
 133 214 157 228 243 347 c 1
 252 370 265 391 248 410 c 24
 221 441 179 430 140 413 c 24
 85 390 95 336 35 301 c 1
EndSplineSet
EndChar
StartChar: bar
Encoding: 124 124 30
Width: 255
VWidth: 1080
Flags: HWO
VStem: 70 112<402 534.248>
Fore
195 39 m 20
 169 148 182 260.339 182 402 c 20
 182 514 186 687 132 714 c 12
 109.479 725.26 56 722 70 696 c 5
 70 293 79 308 78 49 c 5
 67 23 205.626 -5.54688 195 39 c 20
195 39 m 16
 169 148 182 260.339 182 402 c 16
 182 514 186 687 132 714 c 8
 109.479 725.26 56 722 70 696 c 1
 70 293 79 308 78 49 c 1
 67 23 205.626 -5.54688 195 39 c 16
EndSplineSet
EndChar
StartChar: braceright
Encoding: 125 125 31
Width: 256
Flags: W
Fore
219 357 m 5
 174 393 135.179 412.275 126 468 c 28
 119.879 505.16 141.438 525.818 161 558 c 20
 192 609 194.185 689.137 141 732 c 28
 113.534 754.135 74.6696 749.155 51 723 c 28
 46.2891 717.795 46.3032 710.217 51 705 c 28
 65.9561 688.388 94.4474 716.775 108 699 c 28
 164.795 624.509 81 582 69 462 c 12
 64.25 414.496 93 381 141 363 c 5
 69 330 61.8428 289.511 78 237 c 20
 102 159 163.033 123.396 132 57 c 28
 120.682 32.7832 80.3187 54.2166 69 30 c 28
 63.8281 18.9336 67.0274 5.36825 78 0 c 28
 112.936 -17.0918 145.878 6.30957 171 36 c 20
 212.452 84.9889 198.189 143.722 171 198 c 4
 154.899 230.143 118.967 254.88 129 291 c 4
 144 345 150 336 219 357 c 5
EndSplineSet
EndChar
StartChar: asciitilde
Encoding: 126 126 32
Width: 346
VWidth: 1000
Flags: W
Fore
121.696 404.411 m 28
 148.212 402.803 159.552 387.25 184.181 377.295 c 28
 202.392 369.935 211.865 357.041 231.339 359.61 c 28
 257.967 363.126 260.481 399.994 287.339 399.694 c 28
 308.028 399.464 328.314 388.502 329.78 367.863 c 28
 330.796 353.594 315.138 350.706 303.844 341.926 c 28
 274.707 319.277 259.357 295.376 222.496 293.589 c 28
 176.066 291.341 161.068 346.186 114.622 344.284 c 28
 86.0176 343.113 79.2227 303.173 50.959 307.737 c 28
 30.8672 310.981 15.7754 326.294 16.1807 346.642 c 28
 16.5811 366.798 34.8975 373.329 52.1387 383.779 c 28
 76.3359 398.446 93.4521 406.123 121.696 404.411 c 28
EndSplineSet
EndChar
StartChar: uni007F
Encoding: 127 127 33
Width: 1597
VWidth: 1000
Flags: W
Fore
1371.96 532 m 8
 1380.35 515.228 1391.96 514 1405.96 498 c 8
 1418.83 483.29 1444.23 503.312 1449.96 522 c 24
 1460.47 556.264 1401.42 568.394 1407.82 603.657 c 24
 1410.29 617.322 1429.95 614.338 1434.21 627.557 c 24
 1437.59 638.057 1437.72 649.521 1428.27 655.21 c 24
 1411.89 665.073 1398.66 649.408 1381.08 641.886 c 24
 1369.86 637.083 1365.86 629.344 1354.13 625.967 c 24
 1328 618.448 1311.56 622.073 1284.45 624.086 c 24
 1249.17 626.704 1221.04 615.811 1195.13 639.894 c 24
 1182.27 651.839 1188.83 666.617 1184.07 683.507 c 24
 1180.37 696.618 1187.21 715.041 1173.72 716.866 c 24
 1158.17 718.969 1158.39 697.328 1152.02 682.991 c 24
 1145.3 667.889 1150.17 655.754 1140.84 642.112 c 24
 1114.65 603.82 1078.42 603.741 1045.27 571.282 c 24
 1010.99 537.713 980.257 520.862 969.962 474 c 16
 954.754 404.771 959.342 390.006 955.726 336.035 c 24
 953.036 295.893 954.748 287.21 952.529 232.924 c 8
 951.358 204.268 984.951 201.705 1008.03 184.678 c 24
 1035.9 164.114 1055.17 157.783 1083.48 137.826 c 16
 1095.68 129.227 1107.54 121.431 1117.96 113.729 c 0
 1128.87 105.673 1138.2 97.7197 1144.73 89.0605 c 8
 1155.14 75.249 1166.52 105.118 1179.96 116 c 24
 1188.9 123.231 1192.16 129.855 1202.35 135.168 c 24
 1221.35 145.067 1236.17 139.729 1255.52 148.91 c 24
 1271.36 156.424 1307.94 168.776 1291.76 175.503 c 16
 1266.98 185.8 1258.71 174.989 1237.61 175.727 c 24
 1220.3 176.331 1194.51 161.366 1193.3 178.643 c 16
 1189.95 226.525 1189.98 304.464 1195.91 384.559 c 24
 1200.2 442.432 1207.2 485.275 1215.96 532 c 0
 1224.11 575.479 1291.96 574 1339.96 566 c 0
 1357.75 563.036 1365.96 544 1371.96 532 c 8
771.962 516 m 0
 763.962 538 755.45 587.645 735.962 630 c 24
 710.042 686.333 702.837 729.547 651.962 765 c 24
 607.533 795.961 570.094 791.506 515.962 793 c 24
 478.912 794.022 457.465 789.644 421.962 779 c 24
 364.3 761.714 333.05 745.84 281.962 714 c 24
 213.006 671.024 173.902 643.764 119.962 583 c 24
 87.8516 546.828 73.9629 522.039 53.9619 478 c 24
 42.1758 452.049 37.2686 436.175 32.9619 408 c 24
 23.0615 343.228 19.5137 304.517 30.9619 240 c 24
 41.8965 178.381 44.8613 135.373 87.9619 90 c 24
 131.979 43.6611 175.92 39.3506 237.962 24 c 24
 313.108 5.40723 358.562 8.62988 435.962 10 c 24
 472.823 10.6523 496.064 5.50391 529.962 20 c 24
 578.813 40.8916 597.962 62 633.962 108 c 8
 671.171 155.545 680.223 171.326 727.962 231 c 0
 735.962 241 754.592 296.152 759.962 292 c 0
 778.04 278.02 790.669 149.135 817.962 123 c 8
 862.034 80.7979 892.234 58.7715 949.962 39 c 24
 1041.12 7.77734 1099.73 10.9834 1195.96 16 c 24
 1259.51 19.3135 1298.81 20.0215 1355.96 48 c 24
 1390.23 64.7764 1405.36 82.833 1429.96 112 c 24
 1483.44 175.396 1522.4 212.943 1539.96 294 c 16
 1565.96 414 1590.7 466.553 1565.96 582 c 0
 1553.96 638 1541.44 666.726 1505.96 708 c 24
 1476.49 742.289 1452.57 757.866 1409.96 773 c 24
 1338.39 798.421 1291.65 796.265 1215.96 790 c 24
 1166.19 785.881 1138.51 776.104 1091.96 758 c 24
 1028.55 733.336 992.215 717.067 937.962 676 c 16
 877.045 629.889 803.962 510 783.962 474 c 0
 780.927 468.536 776.581 503.298 771.962 516 c 0
811.962 376 m 24
 821.594 466.938 866.146 511.15 923.962 582 c 24
 960.711 627.033 988.398 647.637 1037.96 678 c 24
 1093.55 712.055 1127.84 731.223 1191.96 743 c 24
 1266.42 756.678 1314.98 762.345 1385.96 736 c 24
 1423.42 722.097 1445.86 706.53 1465.96 672 c 24
 1513.25 590.767 1510.25 527.785 1503.96 434 c 24
 1496.72 325.912 1478.92 261.353 1423.96 168 c 24
 1402.97 132.351 1385.74 112.768 1349.96 92 c 24
 1309.55 68.543 1280.53 65.8818 1233.96 62 c 24
 1198.07 59.0078 1177.35 63.29 1141.96 70 c 24
 1077.22 82.2764 1036.34 83.8848 979.962 118 c 24
 916.724 156.268 885.245 190.178 847.962 254 c 24
 822.938 296.835 806.736 326.668 811.962 376 c 24
345.962 64 m 24
 296.333 65.9043 268.032 74.4502 221.962 93 c 24
 181.57 109.263 152.416 115.415 125.962 150 c 24
 81.6973 207.87 79.4336 257.225 75.9619 330 c 24
 73.6211 379.06 77.1035 409.534 97.9619 454 c 24
 128.754 519.644 162.766 548.983 217.962 596 c 24
 285.885 653.857 327.817 690.761 413.962 714 c 24
 464.424 727.613 499.385 731.287 547.962 712 c 24
 594.143 693.664 614.677 667.526 641.962 626 c 24
 678.67 570.132 681.644 528.826 697.962 464 c 24
 711.077 411.896 727.485 381.2 719.962 328 c 24
 712.291 273.761 693.19 244.551 659.962 201 c 24
 620.703 149.546 592.769 120.029 533.962 93 c 24
 466.555 62.0166 420.095 61.1562 345.962 64 c 24
339.962 606 m 16
 388.274 608.426 391.193 606.348 423.933 605.534 c 24
 452.688 604.819 468.883 600.958 497.617 602.28 c 24
 517.891 603.213 529.927 602.905 549.175 609.341 c 24
 567.188 615.364 571.421 621.387 591.697 633.085 c 8
 598.195 636.834 599.409 624.186 603.513 617.906 c 24
 608.235 610.68 616.27 606.784 614.053 598.44 c 24
 611.896 590.321 600.206 594.208 595.746 587.09 c 24
 592.73 582.277 592.117 577.875 594.238 572.607 c 24
 601.064 555.654 627.202 560.419 630.033 542.364 c 24
 631.658 531.997 623.363 526.796 615.78 519.542 c 24
 605.618 509.822 598.281 503.938 584.38 501.82 c 24
 557.747 497.762 543.746 514.988 516.838 516.312 c 24
 466.104 518.807 411.986 512.04 387.424 501.616 c 0
 370.752 494.541 387.782 475.727 388.808 459.212 c 24
 389.972 440.463 391.353 433.26 393.204 411.247 c 8
 396.169 375.995 448.613 409.478 483.688 404.862 c 24
 522.608 399.741 572.003 423.557 582.511 385.732 c 24
 586.45 371.553 564.56 371.192 554.47 360.479 c 24
 542.345 347.606 542.614 331.6 526.195 325.031 c 24
 504.896 316.511 490.738 330.664 467.921 333.033 c 24
 448.728 335.025 434.029 348.059 418.566 336.516 c 24
 398.949 321.871 407.338 299.598 405.002 275.229 c 24
 401.465 238.334 395.03 216.607 407.538 180.227 c 8
 412.054 167.094 394.255 162.82 383.783 153.698 c 24
 372.198 143.606 366.468 131.318 351.108 131.69 c 24
 332.904 132.131 328.321 148.777 313.69 159.617 c 24
 294.629 173.739 288.112 191.903 264.688 195.655 c 24
 248.351 198.272 238.976 190.225 224.368 182.453 c 24
 211.122 175.406 203.73 170.251 194.011 158.822 c 24
 187.539 151.213 191.63 137.654 181.727 136.348 c 24
 173.361 135.244 173.391 146.744 166.783 151.991 c 24
 161.152 156.463 149.049 154.432 150.912 161.377 c 16
 159.49 193.353 172.578 208.039 198.654 224.629 c 24
 236.847 248.928 273.499 237.826 312.197 248.711 c 8
 331.72 254.202 322.689 279.193 323.559 299.455 c 24
 324.395 318.952 326.559 332.115 316.846 349.042 c 24
 311.623 358.145 305.637 362.404 295.646 365.613 c 24
 284.407 369.223 277.186 365.108 265.407 364.343 c 24
 247.438 363.175 229.912 345.664 219.411 360.294 c 24
 212.852 369.433 225.202 377.068 231.001 386.708 c 24
 240.684 402.805 245.146 414.237 260.896 424.473 c 24
 269.424 430.014 276.039 429.905 286.154 430.957 c 24
 293.308 431.7 299.077 425.509 304.576 430.144 c 24
 331.587 452.908 308.976 485.374 315.962 520 c 24
 322.849 554.134 305.185 604.254 339.962 606 c 16
1125.51 201.97 m 8
 1121.72 180.574 1091.35 207.956 1072.24 218.294 c 24
 1049.43 230.63 1017.85 235.116 1021.15 260.834 c 16
 1028.93 321.524 1025.97 350.614 1030.91 407.873 c 24
 1035.13 456.807 1037.3 488.516 1044.21 533.105 c 8
 1046.93 550.699 1066.8 549.588 1082.58 557.843 c 24
 1095.69 564.704 1103.13 575.196 1117.65 572.324 c 24
 1129.85 569.91 1139.07 562.227 1140.28 549.848 c 16
 1143.96 512 1141.21 518.246 1140.9 498.044 c 24
 1140.06 442.32 1137.72 410.931 1134.84 355.274 c 24
 1131.75 295.454 1135.57 258.811 1125.51 201.97 c 8
EndSplineSet
EndChar
StartChar: cent
Encoding: 162 162 35
Width: 314
Flags: W
VStem: 131.896 81.107<557 629.31>
Fore
198.593 265.429 m 1
 205.976 265.482 213.019 267.015 220.84 271.856 c 8
 237.94 281.119 242.215 293.943 248.628 312.469 c 16
 256.465 333.844 287.103 322.443 285.678 303.919 c 0
 283.54 263.307 285.678 267.581 272.853 250.481 c 24
 260.74 234.094 247.202 230.531 227.965 224.119 c 16
 214.508 220.496 204.811 220.632 193.411 220.979 c 1
 184.503 140.222 l 1
 173.882 122.644 159.32 108.137 146.027 120.984 c 1
 141.137 172.349 139.782 200.039 139.567 221.806 c 1
 137.533 222.231 135.422 222.759 133.202 223.406 c 8
 111.115 229.106 98.29 235.519 81.1904 251.193 c 24
 56.9648 274.706 42.7148 293.231 35.5898 324.581 c 0
 25.6152 365.193 25.6152 392.981 37.7275 433.594 c 24
 49.1279 474.919 59.8154 501.281 93.3027 526.932 c 16
 106.575 537.318 119.028 544.668 131.896 549.641 c 1
 131.791 576.979 132.154 606.571 133.202 640.396 c 1
 155.991 680.965 186.284 684.772 213.003 650.016 c 1
 213.568 613.537 213.841 583.6 213.803 557.146 c 1
 231.803 555.413 244.735 550.773 264.303 531.206 c 8
 279.978 515.531 289.24 499.856 284.965 478.481 c 24
 282.115 467.794 275.702 459.244 264.303 458.531 c 24
 247.915 457.106 244.353 474.206 231.527 484.182 c 16
 223.862 489.426 218.939 495.354 213.135 500.159 c 1
 212.064 454.434 209.694 413.125 205.878 351.834 c 0
 203.209 308.991 201.588 291.575 198.593 265.429 c 1
132.774 492.828 m 1
 122.795 484.105 118.501 473.822 113.253 459.244 c 8
 98.29 420.057 93.3027 394.406 99.7148 353.081 c 24
 103.99 323.156 110.402 303.919 131.777 283.969 c 16
 134.535 281.356 137.263 279.246 140.014 277.52 c 1
 139.995 285.185 139.885 293.756 139.615 303.74 c 0
 137.568 379.375 134.331 433.854 132.774 492.828 c 1
EndSplineSet
EndChar
StartChar: sterling
Encoding: 163 163 36
Width: 708
VWidth: 1080
Flags: W
HStem: 324.417 135.333<327 371>
VStem: 201.119 124.881<447 586> 201.119 126.789<447.436 459.75>
Fore
197.2 320.772 m 5
 144.985 321.191 99.1463 328.554 65 360 c 12
 46.7432 376.813 54.2461 407.974 74 423 c 20
 109.141 449.732 152.149 446.911 201.119 447.436 c 5
 201.512 484.114 214.141 528.486 200 577 c 28
 189.704 612.322 145.837 620.443 150 657 c 28
 154.493 696.456 183.399 719.673 222 729 c 28
 335.892 756.52 429.996 724.43 508 637 c 28
 530.506 611.774 557.94 544.398 525 552 c 20
 408 579 427.499 646.709 358 629 c 28
 337.743 623.838 331 605 326 586 c 4
 327.021 534.616 327.607 493.711 327.908 459.75 c 5
 340.995 460.556 354.828 460.509 371 459 c 12
 410.847 455.281 443.779 462.234 470 432 c 28
 488.541 410.622 499.15 379.868 479 360 c 20
 443.458 324.956 389.29 325.174 327.621 324.417 c 5
 326.842 261.093 276 219 268 95 c 5
 396 63 449 64 558 112 c 5
 560 175 538 195 549 252 c 12
 556.642 291.598 611.22 262.37 651 269 c 21
 674 152 674 152 660 24 c 13
 660 24 624 35 600 38 c 5
 350 24 328 10 41 38 c 5
 18 63 21 61 49 109 c 5
 115 112 106.239 100.226 131 121 c 28
 193.879 173.754 194.057 252.061 197.2 320.772 c 5
EndSplineSet
EndChar
StartChar: currency
Encoding: 164 164 37
Width: 314
VWidth: 1000
Flags: W
Fore
216.829 440.568 m 1
 220.635 445.625 225.406 451.413 231.93 458.543 c 1
 230.172 465.926 216.206 459.844 213.648 467.332 c 24
 211.961 472.263 215.055 476.824 219.625 479.285 c 1
 268.844 479.285 244.938 486.316 285.719 472.254 c 1
 289.938 466.629 288.285 458.921 282.906 454.324 c 24
 277.492 449.692 271.305 457.488 264.625 454.324 c 1
 250.962 439.736 241.951 429.351 235.173 420.888 c 1
 237.933 417.101 240.397 412.906 242.793 407.602 c 8
 250.387 391.148 250.809 380.18 251.652 362.039 c 24
 252.496 342.211 252.496 330.398 247.012 311.414 c 16
 243.547 300.486 240.756 292.252 236.085 284.479 c 1
 242.756 276.224 251.565 266.119 264.625 252.176 c 1
 271.305 249.012 277.492 256.808 282.906 252.176 c 24
 288.285 247.579 289.938 239.871 285.719 234.246 c 1
 244.938 220.184 268.844 227.215 219.625 227.215 c 1
 215.055 229.676 211.961 234.237 213.648 239.168 c 24
 216.206 246.656 230.172 240.574 231.93 247.957 c 1
 226.106 254.322 221.678 259.619 218.088 264.279 c 1
 212.523 260.181 206.844 257.946 198.918 255.305 c 8
 187.949 252.352 181.199 253.617 170.23 253.617 c 16
 164.767 253.407 160.407 252.987 156.203 252.984 c 0
 151.969 252.981 147.89 253.401 142.809 254.883 c 0
 132.684 257.495 125.846 260.361 118.576 265.829 c 1
 116.93 261.729 111.219 257.375 113.805 252.527 c 8
 117.004 246.542 128.307 254.663 130.68 248.309 c 24
 134.195 238.904 121.671 235.441 115.914 227.215 c 17
 79.7031 227.215 75.8359 222.293 40.6797 227.215 c 9
 34.9229 234.343 25.4307 236.347 25.9141 245.496 c 24
 26.3447 253.626 33.1562 257.142 40.6797 260.262 c 24
 50.4355 264.305 61.0088 252.141 67.75 260.262 c 16
 94.1436 292.215 l 1
 90.0117 298.771 87.0293 305.912 85.0117 314.789 c 0
 79.1055 338.836 79.1055 355.289 86.2773 379.336 c 16
 89.6035 391.396 92.8281 401.304 97.6172 410.069 c 1
 67.75 446.238 l 8
 61.0088 454.359 50.4355 442.195 40.6797 446.238 c 24
 33.1562 449.358 26.3447 452.874 25.9141 461.004 c 24
 25.4307 470.153 34.9229 472.157 40.6797 479.285 c 17
 75.8359 484.207 79.7031 479.285 115.914 479.285 c 9
 121.671 471.059 134.195 467.596 130.68 458.191 c 24
 128.307 451.837 117.004 459.958 113.805 453.973 c 24
 111.133 448.963 117.32 444.48 118.727 440.262 c 1
 121.421 436.314 l 1
 139.874 450.107 155.988 453.975 179.512 453.164 c 0
 195.393 452.389 203.805 452.326 216.829 440.568 c 1
123.592 327.679 m 24
 128.451 312.342 140.727 291.897 141.965 290.742 c 8
 150.031 283.213 157.597 282.435 168.543 281.039 c 24
 178.709 279.743 185.688 278.689 194.699 283.57 c 16
 197.578 285.13 209.48 301.452 213.823 315.196 c 24
 220.135 335.173 220.461 347.928 217.48 368.789 c 0
 216.269 376.872 216.51 382.196 212.567 389.504 c 24
 203.878 405.611 188.596 421.842 180.355 423.633 c 8
 167.456 426.438 158.164 424.813 147.027 417.727 c 16
 143.807 415.677 129.917 394.411 125.101 377.042 c 24
 120.366 359.97 120.215 349.486 122.98 331.664 c 0
 123.176 330.299 123.116 329.178 123.592 327.679 c 24
EndSplineSet
EndChar
StartChar: yen
Encoding: 165 165 38
Width: 759
VWidth: 1080
Flags: W
HStem: 92.0908 101.034<409 453> 236.101 101.356<410 454>
Fore
449.146 337.457 m 1
 450.576 337.359 452.026 337.249 453.5 337.125 c 8
 487.922 334.234 515.438 333.688 536 316.875 c 24
 556.828 299.828 563.234 280.375 543.5 262.875 c 16
 512.508 235.375 464.521 236.828 410.152 236.101 c 1
 408.352 218.957 406.784 205.714 405.794 192.783 c 1
 420.317 194.165 435.09 194.668 453.5 193.125 c 8
 487.922 190.234 515.438 189.688 536 172.875 c 24
 556.828 155.828 563.234 136.375 543.5 118.875 c 16
 512.361 91.2447 464.065 92.8429 409.378 92.0908 c 1
 410.144 84.6563 411.015 76.6549 412 68 c 8
 416 38 467 80 489 60 c 24
 502 48 508 30 498 17 c 1
 324 0 367 0 191 14 c 1
 177 30 184 52 199 65 c 24
 226 90 268 47 293 74 c 1
 294.471 89.7622 l 1
 256.849 91.2034 223.822 97.8912 198.5 118.875 c 8
 180.406 133.875 185.672 152.203 206 166.125 c 16
 232.59 184.336 264.594 184.258 300.809 184.384 c 1
 301.413 200.792 301.712 216.642 301.859 233.544 c 1
 261.172 234.393 225.466 240.528 198.5 262.875 c 8
 180.406 277.875 185.672 296.203 206 310.125 c 16
 227.632 324.941 252.846 327.651 280.997 328.215 c 1
 222.915 435.914 167.231 489.865 94 614 c 1
 73 626 51 599 34 614 c 24
 12 634 6 668 26 691 c 1
 233 708 88 691 310 700 c 1
 327 688 338 667 327 649 c 24
 310 619 258 661 242 631 c 1
 294.817 489.176 328.501 450.673 367.38 332.089 c 1
 375.639 333.135 l 1
 549 614 l 9
 516 628 476 615 464 649 c 24
 456 669 470 688 489 700 c 1
 651 711 523 711 720 700 c 1
 735 687 740 665 728 649 c 24
 703 613 654 656 617 631 c 1
 553.493 516.859 513.554 431.442 449.146 337.457 c 1
EndSplineSet
EndChar
StartChar: brokenbar
Encoding: 166 166 39
Width: 255
VWidth: 1080
Flags: W
Fore
182.064 442.166 m 1
 167.334 440.235 153.444 436.146 135 433 c 4
 112.357 429.144 91.2001 431.05 71.8767 429.833 c 1
 70.7904 493.852 70 576.571 70 696 c 1
 56 722 109.484 725.266 132 714 c 16
 179.875 690.063 182.161 551.369 182.064 442.166 c 1
180.537 307.284 m 1
 178.057 208.09 175.068 122.563 195 39 c 8
 205.625 -5.54688 67 23 78 49 c 1
 78.4726 171.414 76.7114 232.62 74.7223 305.68 c 1
 103.578 301.235 136.501 305.693 171 307 c 4
 174.204 307.122 177.383 307.211 180.537 307.284 c 1
EndSplineSet
EndChar
StartChar: section
Encoding: 167 167 40
Width: 643
Flags: W
Fore
298.195 351 m 1
 328.195 288 346.195 261 406.195 225 c 1
 445.839 182.524 444 180 465 111 c 8
 473.886 81.8027 412.2 107.152 388.195 126 c 24
 375.02 136.345 380.39 151.707 370.195 165 c 24
 347.951 194.005 313.699 191.898 298.195 225 c 24
 277.353 269.501 262.569 384.846 298.195 351 c 1
319.195 621 m 24
 345.223 632.106 354.023 582.323 382.195 585 c 24
 414.411 588.062 446.812 606.68 445.195 639 c 24
 442.845 686.004 393.075 703.857 346.195 708 c 24
 296.135 712.424 257.297 695.665 229.195 654 c 24
 188.587 593.789 248.65 534.818 220.195 468 c 24
 197.496 414.696 126.203 417.38 118.195 360 c 24
 109.082 294.696 139.312 243.346 196.195 210 c 16
 283.195 159 294.189 117.906 337.195 45 c 24
 367.669 -6.66016 384.704 -39.373 391.195 -99 c 24
 393.882 -123.674 405.014 -152.236 382.195 -162 c 24
 354.436 -173.878 348.568 -123.995 319.195 -117 c 24
 289.255 -109.869 263.796 -108.106 241.195 -129 c 24
 226.191 -142.871 219.989 -161.759 229.195 -180 c 24
 253.284 -227.729 301.877 -237.92 355.195 -234 c 24
 408.629 -230.072 448.687 -210.145 472.195 -162 c 24
 500.088 -104.878 484.195 -54 454.195 0 c 1
 493.195 51 529.521 92.9414 526.195 162 c 24
 521.735 254.626 461.433 292.38 409.195 369 c 24
 368.434 428.788 307.893 442.362 292.195 513 c 24
 282.777 555.383 279.264 603.96 319.195 621 c 24
EndSplineSet
EndChar
StartChar: dieresis
Encoding: 168 168 41
Width: 418
VWidth: 1080
Flags: W
Fore
271.351 331 m 24
 310.031 320.728 346.059 326.195 370.351 358 c 24
 393.786 388.684 388.019 422.669 370.351 457 c 24
 356.534 483.848 337.545 502 307.351 502 c 24
 277.156 502 258.167 483.848 244.351 457 c 24
 226.684 422.669 229.575 393.671 244.351 358 c 24
 250.05 344.242 256.958 334.822 271.351 331 c 24
71.3506 331 m 24
 110.031 320.728 146.059 326.195 170.351 358 c 24
 193.786 388.684 188.019 422.669 170.351 457 c 24
 156.534 483.848 137.545 502 107.351 502 c 24
 77.1562 502 58.167 483.848 44.3506 457 c 24
 26.6836 422.669 29.5752 393.671 44.3506 358 c 24
 50.0498 344.242 56.958 334.822 71.3506 331 c 24
EndSplineSet
EndChar
StartChar: copyright
Encoding: 169 169 42
Width: 432
VWidth: 1000
Flags: W
Fore
170.092 394 m 24
 148.092 380 141.092 364 132.092 339 c 24
 111.092 284 104.092 248 113.092 190 c 24
 119.092 148 128.092 121 158.092 93 c 24
 177.092 75 195.092 74 221.092 70 c 24
 245.092 67 262.092 63 283.092 76 c 24
 307.092 89 313.092 107 322.092 133 c 24
 342.092 186 345.092 222 337.092 278 c 24
 331.092 318 323.092 342 298.092 374 c 24
 283.092 392 272.092 403 249.092 408 c 24
 219.092 415 196.092 411 170.092 394 c 24
225.092 5 m 24
 199.092 4 184.092 1 160.092 8 c 24
 129.092 16 111.092 25 87.0918 47 c 24
 53.0918 80 33.0918 106 23.0918 150 c 0
 9.0918 207 9.0918 246 26.0918 303 c 24
 42.0918 361 57.0918 398 104.092 434 c 24
 150.092 470 189.092 480 247.092 478 c 24
 288.092 476 308.092 476 344.092 440 c 8
 368.092 416 383.092 401 397.092 370 c 24
 415.092 331 416.092 305 418.092 262 c 24
 420.092 215 420.092 187 407.092 142 c 24
 394.092 101 385.092 76 356.092 46 c 24
 336.092 25 320.092 18 293.092 9 c 24
 267.092 2 251.092 5 225.092 5 c 24
291.342 286.75 m 24
 279.842 285.75 277.342 297.75 268.342 304.75 c 24
 258.842 311.25 255.342 319.25 243.842 321.75 c 24
 228.842 325.25 217.342 323.25 204.342 314.75 c 24
 193.342 307.75 189.842 299.75 185.342 287.25 c 24
 174.842 259.75 171.342 241.75 175.842 212.75 c 24
 178.842 191.75 183.342 178.25 198.342 164.25 c 24
 207.842 155.25 216.842 154.75 229.842 152.75 c 24
 241.842 151.25 250.342 149.25 260.842 155.75 c 24
 272.842 162.25 275.842 171.25 280.342 184.25 c 16
 285.842 199.25 307.342 191.25 306.342 178.25 c 0
 304.842 149.75 306.342 152.75 297.342 140.75 c 24
 288.842 129.25 279.342 126.75 265.842 122.25 c 24
 252.842 118.75 244.842 120.25 231.842 120.25 c 24
 218.842 119.75 211.342 118.25 199.342 121.75 c 24
 183.842 125.75 174.842 130.25 162.842 141.25 c 24
 145.842 157.75 135.842 170.75 130.842 192.75 c 0
 123.842 221.25 123.842 240.75 132.342 269.25 c 24
 140.342 298.25 147.842 316.75 171.342 334.75 c 24
 194.342 352.75 213.842 357.75 242.842 356.75 c 24
 263.342 355.75 273.342 355.75 291.342 337.75 c 8
 302.342 326.75 308.842 315.75 305.842 300.75 c 24
 303.842 293.25 299.342 287.25 291.342 286.75 c 24
EndSplineSet
EndChar
StartChar: ordfeminine
Encoding: 170 170 43
Width: 280
Flags: W
Fore
36.2451 229.627 m 28
 25.3906 244.621 28.5469 262.954 40.7451 276.877 c 28
 63.8906 303.294 93.8721 291.229 128.495 297.127 c 28
 151.995 301.131 165.636 307.176 189.245 303.877 c 28
 209.902 300.99 226.409 300.446 238.745 283.627 c 28
 251.243 266.586 255.083 247.134 243.245 229.627 c 28
 223.188 199.966 191.275 203.984 155.495 202.627 c 28
 107.845 200.819 64.207 191.001 36.2451 229.627 c 28
159.507 424.006 m 28
 159.057 432.106 156.356 437.956 149.156 442.006 c 28
 144.206 444.256 140.606 442.456 135.206 441.106 c 28
 127.106 438.856 123.057 436.156 116.307 431.656 c 28
 108.206 426.706 103.257 424.456 97.8564 417.256 c 28
 94.7061 412.756 92.4561 409.606 92.4561 404.206 c 28
 92.9062 390.706 94.2568 378.106 106.856 372.706 c 28
 112.257 370.006 116.307 374.956 122.156 377.206 c 28
 132.507 381.706 140.156 382.606 147.807 391.606 c 28
 156.356 401.506 160.856 410.506 159.507 424.006 c 28
127.106 531.556 m 28
 118.557 529.756 112.257 528.406 106.856 521.206 c 28
 99.6562 511.756 102.356 499.156 101.456 491.956 c 12
 100.106 478.456 84.3564 470.356 70.8564 474.406 c 28
 59.1562 477.556 54.6562 490.156 56.9062 502.306 c 20
 59.6064 517.606 63.2061 529.756 75.8066 540.556 c 28
 93.3564 555.406 109.106 557.206 132.507 558.106 c 28
 146.456 559.006 156.356 559.006 168.057 550.456 c 28
 180.656 541.906 186.057 532.456 188.757 517.606 c 20
 193.706 489.706 191.456 469.456 192.356 438.406 c 28
 193.257 419.506 191.007 408.706 193.706 389.806 c 28
 194.156 385.756 192.356 381.256 196.406 379.456 c 28
 209.007 374.056 214.406 403.306 227.007 397.456 c 28
 233.307 394.306 230.156 386.656 229.706 379.456 c 28
 228.807 365.506 229.257 355.156 219.356 345.256 c 28
 213.507 339.856 207.206 340.756 199.106 340.306 c 28
 188.757 339.406 182.456 338.506 173.456 343.006 c 28
 167.606 345.706 166.257 350.656 161.757 355.156 c 28
 158.156 358.756 157.706 364.156 152.307 364.606 c 28
 141.057 365.956 137.007 355.156 126.656 349.306 c 28
 119.906 345.256 116.757 341.206 109.106 339.406 c 28
 93.3564 336.256 82.1064 334.906 68.1562 343.456 c 28
 58.7061 349.756 55.5566 357.856 52.8564 369.106 c 28
 48.8066 385.756 49.2568 397.006 55.5566 412.756 c 28
 60.0566 424.906 66.3564 430.306 75.8066 438.406 c 28
 90.2061 450.106 100.106 454.606 116.757 461.356 c 28
 128.456 465.856 137.906 461.356 147.807 469.006 c 28
 151.856 472.606 152.757 476.656 154.106 482.056 c 28
 156.356 491.506 155.906 497.806 154.106 507.706 c 28
 152.307 517.156 152.757 524.806 145.106 530.656 c 28
 139.257 534.706 133.856 532.906 127.106 531.556 c 28
EndSplineSet
EndChar
StartChar: logicalnot
Encoding: 172 172 45
Width: 346
Flags: W
Fore
33 226 m 24
 18.5273 245.992 22.7354 270.436 39 289 c 24
 69.8604 324.223 109.836 308.136 156 316 c 24
 187.333 321.338 205.521 329.398 237 325 c 24
 264.543 321.151 286.82 320.619 303 298 c 24
 345.051 239.214 318 189 314 113 c 0
 312.413 82.8535 237.448 76.9131 222 99 c 0
 191 143.322 209.54 190.665 192 190 c 8
 128.466 187.59 70.2822 174.499 33 226 c 24
EndSplineSet
EndChar
StartChar: registered
Encoding: 174 174 47
Width: 432
VWidth: 1000
Flags: W
VStem: 181 53.5<166.555 275.438>
Fore
165.5 111.5 m 5
 160.5 113.5 159 117.5 157 123 c 5
 155.5 127 155 130.5 157 134.5 c 5
 162.5 145.5 174.5 143 180 154 c 5
 182.5 199.5 179.5 216.5 181 275.5 c 5
 174.5 290 152.5 288.5 152.5 304 c 5
 169.5 331.5 171 338.5 192 346.5 c 5
 201.5 350 209 348.5 218 344 c 5
 233 329.5 224.5 339 240.5 330.5 c 5
 255.5 339 259.5 352.5 279.5 351.5 c 5
 299 350 308.5 333.5 313.5 314.5 c 5
 316.5 303.5 314.5 295.5 308 286 c 5
 302 277.5 295.5 270 285 271.5 c 5
 272.5 274 277.5 294 265 297.5 c 5
 243.5 283 248 286 234.5 275.5 c 5
 233 194 235 225.5 234 166.5 c 5
 237 158.5 245 160.5 248 152.5 c 5
 252 143 252 134 245.5 126.5 c 5
 224.5 120.5 194 118 165.5 111.5 c 5
171 394 m 24
 197 411 220 415 250 408 c 24
 273 403 284 392 299 374 c 24
 324 342 332 318 338 278 c 24
 346 222 343 186 323 133 c 24
 314 107 308 89 284 76 c 24
 263 63 246 67 222 70 c 24
 196 74 178 75 159 93 c 24
 129 121 120 148 114 190 c 24
 105 248 112 284 133 339 c 24
 142 364 149 380 171 394 c 24
226 5 m 24
 252 5 268 2 294 9 c 24
 321 18 337 25 357 46 c 24
 386 76 395 101 408 142 c 24
 421 187 421 215 419 262 c 24
 417 305 416 331 398 370 c 24
 384 401 369 416 345 440 c 16
 309 476 289 476 248 478 c 24
 190 480 151 470 105 434 c 24
 58 398 43 361 27 303 c 24
 10 246 10 207 24 150 c 0
 34 106 54 80 88 47 c 24
 112 25 130 16 161 8 c 24
 185 1 200 4 226 5 c 24
EndSplineSet
EndChar
StartChar: degree
Encoding: 176 176 49
Width: 264
VWidth: 1000
Flags: HW
Fore
109.046 517.75 m 28
 122.046 526.25 133.546 528.25 148.546 524.75 c 28
 160.046 522.25 165.546 516.75 173.046 507.75 c 28
 185.546 491.75 189.546 479.75 192.546 459.75 c 28
 196.546 431.75 195.046 413.75 185.046 387.25 c 28
 180.546 374.25 177.546 365.25 165.546 358.75 c 28
 155.046 352.25 146.546 354.25 134.546 355.75 c 28
 121.546 357.75 112.546 358.25 103.046 367.25 c 28
 88.0459 381.25 83.5459 394.75 80.5459 415.75 c 28
 76.0459 444.75 79.5459 462.75 90.0459 490.25 c 28
 94.5459 502.75 98.0459 510.75 109.046 517.75 c 28
136.546 323.25 m 28
 149.546 323.25 157.546 321.75 170.546 325.25 c 28
 184.046 329.75 192.046 333.25 202.046 343.75 c 28
 216.546 358.75 221.046 371.25 227.546 391.75 c 28
 234.046 414.25 234.046 428.25 233.046 451.75 c 28
 232.046 473.25 231.546 486.25 222.546 505.75 c 28
 215.546 521.25 208.046 528.75 196.046 540.75 c 20
 178.046 558.75 168.046 558.75 147.546 559.75 c 28
 118.546 560.75 99.0459 555.75 76.0459 537.75 c 28
 52.5459 519.75 45.0459 501.25 37.0459 472.25 c 28
 28.5459 443.75 28.5459 424.25 35.5459 395.75 c 4
 40.5459 373.75 50.5459 360.75 67.5459 344.25 c 28
 79.5459 333.25 88.5459 328.75 104.046 324.75 c 28
 116.046 321.25 123.546 322.75 136.546 323.25 c 28
EndSplineSet
EndChar
StartChar: acute
Encoding: 180 180 53
Width: 288
VWidth: 1080
Flags: W
Fore
244.087 683.125 m 5
 202.287 704.025 173.787 719.225 137.687 698.325 c 5
 93.9863 633.725 94.7529 605.808 73.0869 544.425 c 20
 61.5537 511.75 52.0381 480.516 43.7295 450.375 c 4
 38.7383 432.271 137.252 429.771 147.187 444.675 c 4
 162.387 467.475 203.237 661.274 244.087 683.125 c 5
EndSplineSet
EndChar
StartChar: mu
Encoding: 181 181 54
Width: 438
VWidth: 1080
Flags: W
VStem: 47 93<142 375> 291 86<127 394>
Fore
429 76 m 1
 394 104 411 82 377 127 c 1
 377 298 377 218 377 410 c 1
 382 425 402.472 428.183 400 444 c 24
 397.855 457.721 384.913 460.89 372 466 c 24
 338.873 479.109 316.383 478.16 281 474 c 24
 257.728 471.264 239.077 472.938 224 455 c 24
 213.851 442.925 209.56 428.326 218 415 c 24
 233.91 389.88 274 415 291 393 c 1
 291 106 292 283 292 159 c 1
 279 127 263.062 102.309 229 97 c 24
 190.569 91.0098 158 112 140 142 c 1
 140 347 142 233 140 449 c 1
 133 463 121.306 467.309 106 472 c 24
 97.4238 474.628 91.6943 474.205 83 472 c 24
 47.3086 462.947 18.836 458.639 0 427 c 24
 -4.58887 419.293 -4.33285 411.854 0 404 c 24
 10.2441 385.431 36 393 46 375 c 1
 46 -9 47 309 47 95 c 1
 54 65 9.20117 -338.799 104 -244 c 16
 164 -184 79.9719 -72.1057 144 0 c 24
 170.144 29.4424 202.812 18.4091 241 28 c 24
 251.831 30.7207 258 37 269 34 c 1
 292 8 290 -8 315 -9 c 1
 383 13 389 25 429 76 c 1
EndSplineSet
EndChar
StartChar: paragraph
Encoding: 182 182 55
Width: 697
VWidth: 1080
Flags: W
VStem: 361 118<94 333> 529.75 77.896<241 655>
Fore
349 420 m 25
361 662 m 1
 314 676 303 674 269 662 c 24
 234 650 211 636 195 603 c 24
 176 564 177 531 195 492 c 24
 207 466 225 456 252 444 c 24
 291 426 325 396 361 427 c 1
 371 514 371 548 361 662 c 1
532 0 m 1
 531.681 7.18555 528.238 78.5586 528.012 85.2559 c 1
 528.674 132.697 530.584 176.367 529.75 241.5 c 0
 527.632 406.954 520.248 500.211 522.018 657.584 c 1
 492.957 659.98 473 663 473 663 c 1
 473 663 468 413 477 273 c 9
 477.78 203.19 477 205 479 94 c 0
 470.987 93.9707 483.984 -3.50251 476 -3.4596 c 0
 403.305 -3.06888 332.27 2.38419e-07 271 0 c 1
 247 19 237.913 50.1033 253 77 c 24
 273.092 112.818 314 97.1299 353 110 c 17
 357 175 360 253 361 333 c 9
 297.82 338.46 257.86 323.4 199 347 c 24
 133.083 373.43 95.4411 401.285 57 461 c 24
 34.7793 495.519 28.008 522.057 31 563 c 24
 34.1729 606.414 41.8145 636.692 74 666 c 24
 147.694 733.105 218.352 744.055 318 742 c 16
 377.891 740.765 457.604 737.243 533.133 734.258 c 1
 554.786 770.145 580.858 769.757 604.537 731.618 c 1
 625.273 730.928 644.966 730.364 663 730 c 1
 681.812 712 688.188 682 672 662 c 1
 652.146 657.781 629.889 655.721 607.646 655.004 c 1
 608.431 515.219 605.585 449.878 599.5 309 c 0
 595.464 215.731 592.59 170.486 586.873 97.5464 c 1
 611.555 102.808 635.185 106.214 652 100 c 1
 680 76 693 35 669 6 c 1
 639.764 2.20604 562.617 1.43848 532 0 c 1
EndSplineSet
EndChar
StartChar: ordmasculine
Encoding: 186 186 59
Width: 280
VWidth: 1000
Flags: W
Fore
114.614 539.436 m 28
 127.614 547.936 139.114 549.936 154.114 546.436 c 28
 165.614 543.936 171.114 538.436 178.614 529.436 c 28
 191.114 513.436 195.114 501.436 198.114 481.436 c 28
 202.114 453.436 200.614 435.436 190.614 408.936 c 28
 186.114 395.936 183.114 386.936 171.114 380.436 c 28
 160.614 373.936 152.114 375.936 140.114 377.436 c 28
 127.114 379.436 118.114 379.936 108.614 388.936 c 28
 93.6143 402.936 89.1143 416.436 86.1143 437.436 c 28
 81.6143 466.436 85.1143 484.436 95.6143 511.936 c 28
 100.114 524.436 103.614 532.436 114.614 539.436 c 28
142.114 344.936 m 28
 155.114 344.936 163.114 343.436 176.114 346.936 c 28
 189.614 351.436 197.614 354.936 207.614 365.436 c 28
 222.114 380.436 226.614 392.936 233.114 413.436 c 28
 239.614 435.936 239.614 449.936 238.614 473.436 c 28
 237.614 494.936 237.114 507.936 228.114 527.436 c 28
 221.114 542.936 213.614 550.436 201.614 562.436 c 20
 183.614 580.436 173.614 580.436 153.114 581.436 c 28
 124.114 582.436 104.614 577.436 81.6143 559.436 c 28
 58.1143 541.436 50.6143 522.936 42.6143 493.936 c 28
 34.1143 465.436 34.1143 445.936 41.1143 417.436 c 4
 46.1143 395.436 56.1143 382.436 73.1143 365.936 c 28
 85.1143 354.936 94.1143 350.436 109.614 346.436 c 28
 121.614 342.936 129.114 344.436 142.114 344.936 c 28
36.2451 246.627 m 28
 25.3906 261.621 28.5469 279.954 40.7451 293.877 c 28
 63.8906 320.294 93.8721 308.229 128.495 314.127 c 28
 151.995 318.131 165.637 324.176 189.245 320.877 c 28
 209.902 317.99 226.41 317.446 238.745 300.627 c 28
 251.243 283.586 255.083 264.134 243.245 246.627 c 28
 223.188 216.966 191.275 220.984 155.495 219.627 c 28
 107.845 217.819 64.207 208.001 36.2451 246.627 c 28
EndSplineSet
EndChar
StartChar: onequarter
Encoding: 188 188 61
Width: 560
Flags: W
VStem: 179.596 0<379 493> 346.59 48<8 116>
Fore
74.5957 338.893 m 12
 60.5566 338.758 66.1846 363.65 74.5957 374.893 c 28
 80.8066 383.192 95.2002 369.59 100.096 382.393 c 5
 104.596 553.393 97.0957 358.393 101.596 533.893 c 5
 94.9287 547.438 84.1592 533.651 79.0957 541.393 c 28
 68.4854 557.615 70.0889 581.157 83.5957 590.893 c 5
 308.596 589.393 26.5957 592.393 182.596 590.893 c 5
 197.66 578.32 200.123 559.064 191.596 541.393 c 28
 188.904 535.813 180.829 546.128 177.596 533.893 c 5
 180.596 289.393 179.596 671.893 179.596 379.393 c 5
 181.645 373.405 188.496 378.813 191.596 374.893 c 28
 200.252 363.945 210.049 339.663 196.096 339.393 c 20
 41.5957 336.393 230.596 340.393 74.5957 338.893 c 12
268.554 367.444 m 4
 315.554 418.944 305.054 424.944 348.054 471.944 c 5
 345.554 482.444 325.694 473.799 322.054 484.444 c 28
 319.655 491.458 324.054 497.944 330.554 501.444 c 5
 400.554 501.444 366.554 511.444 424.554 491.444 c 5
 430.554 483.444 428.204 472.488 420.554 465.944 c 28
 412.849 459.354 404.054 470.444 394.554 465.944 c 5
 328.054 394.944 339.054 393.944 289.554 332.944 c 4
 255.554 287.444 232.554 265.444 187.054 198.444 c 5
 185.054 192.444 176.247 186.071 180.054 178.944 c 28
 184.6 170.435 200.678 181.982 204.054 172.944 c 28
 209.052 159.566 191.244 154.645 183.054 142.944 c 21
 131.554 142.944 126.054 135.944 76.0537 142.944 c 13
 67.8643 153.085 54.3633 155.929 55.0537 168.944 c 28
 55.667 180.511 65.3535 185.512 76.0537 189.944 c 28
 89.9258 195.69 104.967 178.389 114.554 189.944 c 20
 190.054 280.944 207.554 304.944 268.554 367.444 c 4
346.59 167.453 m 5
 346.59 218.453 346.59 146.453 346.59 234.953 c 5
 341.722 245.081 335.167 254.84 324.09 252.953 c 5
 292.59 204.953 301.59 216.953 279.09 180.953 c 5
 277.154 174.205 273.963 167.749 279.09 162.953 c 5
 369.09 165.953 252.09 161.453 346.59 167.453 c 5
395.09 12.9531 m 5
 381.211 -2.98438 362.699 -5.22461 346.59 8.45312 c 5
 345.09 75.9531 348.09 80.4531 345.09 125.453 c 5
 285.09 129.953 297.09 110.453 235.59 125.453 c 5
 224.681 127.982 228.163 142.032 231.09 152.453 c 5
 322.59 300.953 285.09 255.953 378.09 368.453 c 5
 386.382 371.818 395.029 370.965 400.59 363.953 c 5
 408.09 288.953 405.09 294.953 396.09 167.453 c 5
 445.59 164.453 419.59 180.453 500.59 175.953 c 5
 512.98 156.796 497.073 135.108 478.09 122.453 c 5
 450.345 103.956 448.59 125.453 394.59 122.453 c 5
 394.59 39.9531 398.09 66.9531 395.09 12.9531 c 5
EndSplineSet
LCarets: 0 255 '    ' 2 0 0 
Ligature: 0 1 'frac' one slash four
Ligature: 0 1 'frac' one fraction four
EndChar
StartChar: onehalf
Encoding: 189 189 62
Width: 560
Flags: W
VStem: 125.136 78<379 451.368 483.934 493.236 458.698 533.576> 203.136 0<379 493>
Fore
98.1357 338.893 m 12
 84.0957 338.758 89.7246 363.65 98.1357 374.893 c 28
 104.346 383.192 118.74 369.59 123.636 382.393 c 5
 128.136 553.393 120.636 358.393 125.136 533.893 c 5
 118.468 547.438 107.698 533.65 102.636 541.393 c 28
 92.0254 557.615 93.6289 581.157 107.136 590.893 c 5
 332.136 589.393 50.1357 592.393 206.136 590.893 c 5
 221.2 578.32 223.662 559.064 215.136 541.393 c 28
 212.443 535.813 204.369 546.127 201.136 533.893 c 5
 204.136 289.393 203.136 671.893 203.136 379.393 c 5
 205.184 373.405 212.035 378.813 215.136 374.893 c 28
 223.792 363.945 233.589 339.663 219.636 339.393 c 20
 65.1357 336.393 254.136 340.393 98.1357 338.893 c 12
292.094 367.444 m 4
 339.094 418.944 328.594 424.944 371.594 471.944 c 5
 369.094 482.444 349.234 473.799 345.594 484.444 c 28
 343.195 491.458 347.594 497.944 354.094 501.444 c 5
 424.094 501.444 390.094 511.444 448.094 491.444 c 5
 454.094 483.444 451.743 472.488 444.094 465.944 c 28
 436.388 459.354 427.594 470.444 418.094 465.944 c 5
 351.594 394.944 362.594 393.944 313.094 332.944 c 4
 279.094 287.444 256.094 265.444 210.594 198.444 c 5
 208.594 192.444 199.787 186.071 203.594 178.944 c 28
 208.139 170.435 224.217 181.982 227.594 172.944 c 28
 232.592 159.566 214.783 154.645 206.594 142.944 c 21
 155.094 142.944 149.594 135.944 99.5938 142.944 c 13
 91.4033 153.085 77.9033 155.929 78.5938 168.944 c 28
 79.207 180.511 88.8926 185.512 99.5938 189.944 c 28
 113.466 195.69 128.506 178.389 138.094 189.944 c 20
 213.594 280.944 231.094 304.944 292.094 367.444 c 4
433.432 111.326 m 5
 455.932 120.638 464.932 120.638 481.432 109.774 c 5
 467.932 53.9092 476.932 79.2559 445.432 38.9082 c 5
 313.432 32.7012 398.932 35.8037 287.932 37.3564 c 12
 279.938 37.4678 283.608 51.6064 287.932 58.5645 c 20
 328.432 123.741 359.932 123.741 391.432 184.263 c 12
 400.584 201.848 404.385 220.664 391.432 235.472 c 28
 379.597 249.002 363.179 245.852 346.432 240.128 c 28
 321.658 231.661 323.932 216.851 296.932 193.573 c 5
 283.432 216.851 287.604 217.927 295.432 229.266 c 20
 317.932 261.854 324.442 266.87 350.932 275.82 c 28
 384.339 287.107 415.313 296.054 440.932 271.164 c 28
 463.677 249.065 458.698 219.898 449.932 188.917 c 28
 439.767 152.995 411.501 145.574 391.432 114.43 c 5
 383.932 89.6006 392.932 112.878 382.432 86.4971 c 5
 458.932 89.6006 344.932 84.9453 430.432 86.4971 c 5
 434.767 90.082 426.263 104.983 433.432 111.326 c 5
EndSplineSet
LCarets: 0 255 '    ' 2 0 0 
Ligature: 0 1 'frac' one slash two
Ligature: 0 1 'frac' one fraction two
EndChar
StartChar: threequarters
Encoding: 190 190 63
Width: 560
Flags: W
VStem: 346.589 48<8 116>
Fore
268.554 367.444 m 4
 315.554 418.944 305.054 424.944 348.054 471.944 c 5
 345.554 482.444 325.694 473.799 322.054 484.444 c 28
 319.655 491.458 324.054 497.944 330.554 501.444 c 5
 400.554 501.444 366.554 511.444 424.554 491.444 c 5
 430.554 483.444 428.203 472.488 420.554 465.944 c 28
 412.848 459.354 404.054 470.444 394.554 465.944 c 5
 328.054 394.944 339.054 393.944 289.554 332.944 c 4
 255.554 287.444 232.554 265.444 187.054 198.444 c 5
 185.054 192.444 176.247 186.071 180.054 178.944 c 28
 184.599 170.435 200.677 181.982 204.054 172.944 c 28
 209.052 159.566 191.243 154.645 183.054 142.944 c 21
 131.554 142.944 126.054 135.944 76.0537 142.944 c 13
 67.8633 153.085 54.3633 155.929 55.0537 168.944 c 28
 55.667 180.511 65.3525 185.512 76.0537 189.944 c 28
 89.9258 195.69 104.966 178.389 114.554 189.944 c 20
 190.054 280.944 207.554 304.944 268.554 367.444 c 4
346.589 167.453 m 5
 346.589 218.453 346.589 146.453 346.589 234.953 c 5
 341.721 245.081 335.167 254.84 324.089 252.953 c 5
 292.589 204.953 301.589 216.953 279.089 180.953 c 5
 277.154 174.205 273.963 167.749 279.089 162.953 c 5
 369.089 165.953 252.089 161.453 346.589 167.453 c 5
395.089 12.9531 m 5
 381.211 -2.98438 362.699 -5.22461 346.589 8.45312 c 5
 345.089 75.9531 348.089 80.4531 345.089 125.453 c 5
 285.089 129.953 297.089 110.453 235.589 125.453 c 5
 224.68 127.982 228.162 142.032 231.089 152.453 c 5
 322.589 300.953 285.089 255.953 378.089 368.453 c 5
 386.381 371.818 395.029 370.965 400.589 363.953 c 5
 408.089 288.953 405.089 294.953 396.089 167.453 c 5
 445.589 164.453 419.589 180.453 500.589 175.953 c 5
 512.979 156.796 497.072 135.108 478.089 122.453 c 5
 450.345 103.956 448.589 125.453 394.589 122.453 c 5
 394.589 39.9531 398.089 66.9531 395.089 12.9531 c 5
64.877 410.722 m 5
 50.5029 420.79 58.1611 439.508 64.877 455.722 c 5
 105.377 500.722 109.877 496.222 145.877 536.722 c 12
 154.365 546.271 146.506 559.823 136.877 568.222 c 28
 127.524 576.378 117.24 576.364 105.377 572.722 c 28
 80.4365 565.062 83.877 538.722 55.877 527.722 c 12
 45.9414 523.818 48.9863 544.317 51.377 554.722 c 28
 58.9258 587.573 78.2217 608.86 101.377 625.222 c 4
 133.887 639.999 120.877 636.804 140.877 639.722 c 4
 148.931 640.896 173.029 635.303 190.877 626.722 c 4
 209.86 608.482 205.436 583.377 199.877 556.222 c 28
 193.62 525.652 169.877 512.722 159.377 487.222 c 5
 165.759 474.232 184.258 487.484 195.377 478.222 c 28
 211.67 464.648 214.377 449.637 217.877 428.722 c 28
 223.988 392.208 222.775 368.535 208.877 334.222 c 28
 197.627 306.446 187.427 288.118 160.877 274.222 c 28
 122.953 254.371 82.6621 237.506 51.377 266.722 c 28
 33.4199 283.491 34.0039 312.348 51.377 329.722 c 5
 84.377 332.722 66.377 328.222 96.377 329.722 c 5
 104.986 323.63 96.1162 309.268 105.377 304.222 c 28
 116.467 298.18 127.055 303.784 136.877 311.722 c 28
 159.062 329.647 165.045 349.396 168.377 377.722 c 28
 170.334 394.358 171.304 407.957 159.377 419.722 c 28
 146.636 432.29 132.224 430.075 114.377 428.722 c 5
 93.8945 427.168 96.377 413.722 64.877 410.722 c 5
EndSplineSet
LCarets: 0 255 '    ' 2 0 0 
Ligature: 0 1 'frac' three slash four
Ligature: 0 1 'frac' three fraction four
EndChar
StartChar: AE
Encoding: 198 198 71
Width: 1055
VWidth: 1080
Flags: W
Fore
516.506 250.653 m 1
 445.282 249.902 358.031 260.771 276 253 c 1
 238 223 245 185 242 134 c 1
 270 117 288 148 307 125 c 1
 309 69 310 37 299 23 c 1
 261 -14 217.312 16.7344 165 14 c 24
 133.812 12.375 116.203 12.1719 85 11 c 17
 70 7 67 -5 34 18 c 9
 24.6406 33.2031 9.4375 39.1562 10 57 c 24
 11.1562 94.2031 32.5625 116.734 65 135 c 24
 89.5312 148.812 117 125 137 140 c 1
 168 193 188 279 188 279 c 17
 269 536 262 499 360 689 c 1
 404 711 456 767 494 745 c 1
 866 742 810 757 972 728 c 1
 977 609 972.219 640.391 991 589 c 24
 997.5 571.219 1022 561 1017 548 c 1
 946 525 949 532 864 538 c 1
 850 555 890 550 881 592 c 0
 869 643 875 614 852 644 c 1
 794 654 753 653 690 642 c 1
 673 639 658 647 647 634 c 1
 645 543 645 509 647 395 c 1
 704 384 721 375 775 387 c 1
 813 413 771.469 474 810 498 c 24
 829.75 510.312 853 507 869 489 c 1
 872 159 870 401 873 199 c 1
 828 179 819 185 801 208 c 1
 790 265 823.734 257.5 810 284 c 24
 800.203 302.906 782.328 303.688 762 310 c 24
 730.156 319.875 709.328 327.156 677 319 c 24
 659.594 314.609 649 312 639 293 c 1
 622 208 622 182 622 97 c 1
 629 81 640 75 656 69 c 1
 750 48 810 57 903 61 c 1
 957 89 929 117 989 191 c 1
 1017 159 1012.98 147.453 1014 117 c 24
 1015.58 69.8281 1020 29 983 0 c 1
 767 0 704 0 494 0 c 0
 502.468 87.3525 510.737 164.973 516.506 250.653 c 1
521.345 339.415 m 1
 524.857 424.179 525.656 520.55 522 642 c 1
 505 594 432 576 432 576 c 17
 423 551 364 441 347 396 c 9
 347 396 358 398 324 336 c 1
 426.949 333.36 458.668 333.818 521.345 339.415 c 1
EndSplineSet
EndChar
StartChar: Ccedilla
Encoding: 199 199 71
Width: 691
Fore
507 9.59375 m 16
 547.828 18.5519 583.788 37.1974 614 77 c 8
 630.756 99.0752 644.388 152.243 617 148 c 16
 546 137 488.76 86.4121 404 97 c 24
 325.758 106.774 274.637 129.733 225 191 c 24
 170.673 258.057 156.26 318.141 165 404 c 24
 175.228 504.476 204.828 571.296 284 634 c 24
 337.907 676.694 388.394 694.101 455 677 c 24
 521.02 660.05 542.252 612.64 583 558 c 24
 609.797 522.068 589 486 634 455 c 1
 674 535 690.925 580.29 659 650 c 24
 634.273 703.991 586.947 711.479 532 734 c 24
 494.491 749.374 470.52 752.798 430 754 c 24
 371.781 755.727 335.505 757.015 282 734 c 24
 199.192 698.38 155.668 661.427 102 589 c 24
 44.1809 510.971 15.8184 454.877 9 358 c 24
 4.20513 289.875 16.6846 247.046 51 188 c 24
 94.8017 112.632 135.959 74.7861 213 34 c 16
 248.083 15.4264 276.069 5.37083 309 1.55469 c 8
 357.081 -4.0166 364.126 -55.1465 378.241 -101.445 c 24
 384.383 -121.59 386.301 -135.988 378.241 -155.445 c 24
 361.145 -196.72 289.271 -192.487 297.241 -236.445 c 24
 302.286 -264.266 335.008 -267.958 363.241 -266.445 c 24
 393.097 -264.845 409.227 -249.656 429.241 -227.445 c 24
 470.596 -181.551 478.303 -142.855 495.241 -83.4453 c 24
 505.27 -48.2734 471.276 1.75586 507 9.59375 c 16
EndSplineSet
EndChar
StartChar: Eth
Encoding: 208 208 80
Width: 750
VWidth: 1080
Flags: W
VStem: 138.246 108.904<200.747 326.875>
Fore
138.246 326.953 m 1
 106.293 328.277 78.2503 336.645 57 366 c 12
 42.5312 386 46.7344 410.438 63 429 c 20
 84.4238 453.45 110.245 453.177 139.477 453.354 c 1
 140.349 507.238 141.938 579.106 145 686 c 1
 131 700 113 693 94 688 c 24
 77 685 75 668 56 667 c 1
 34 667 7 666 5 688 c 1
 0 708 33 728 60 740 c 24
 93 755 117 748 154 748 c 24
 267 749 334 755 444 725 c 24
 511 707 553 695 606 649 c 24
 666 596 696 554 717 478 c 24
 736 407 726 361 708 290 c 24
 689 215 675 168 623 111 c 24
 576 59 536 39 469 17 c 24
 392 -8 343 1 262 0 c 1
 159 -1 117 0 0 14 c 1
 -11 28 -11 54 0 82 c 1
 40 114 99 60 134 100 c 1
 137.511 218.491 137.94 271.885 138.246 326.953 c 1
250.387 466.063 m 1
 253.769 465.865 257.292 465.519 261 465 c 12
 288.547 461.156 310.547 460.422 327 438 c 28
 343.656 415.281 348.781 389.344 333 366 c 20
 312.24 335.309 281.965 331.664 247.15 330.723 c 1
 246.717 274.815 247.613 243.161 242 111 c 8
 241 84 275 82 302 77 c 24
 341 70 367 78 404 94 c 24
 465 120 502 142 540 196 c 24
 585 259 601 307 600 384 c 24
 599 465 581 516 532 580 c 24
 493 632 457 656 395 674 c 24
 344 689 298 705 259 669 c 1
 254.828 580.129 252.135 515.325 250.387 466.063 c 1
EndSplineSet
EndChar
StartChar: multiply
Encoding: 215 215 86
Width: 430
VWidth: 1080
Flags: W
Fore
386.968 439.5 m 5
 374.218 460.5 351.718 451.5 327.718 453.75 c 5
 332.218 447 287.968 390.75 285.718 382.5 c 5
 259.468 350.25 267.718 349.5 245.968 341.25 c 5
 233.968 336.75 223.468 336 212.218 342.75 c 5
 193.468 354.75 153.718 426.75 140.968 453.75 c 5
 101.218 453.75 139 457.75 88 445 c 5
 127.75 391 162.718 312 185.218 264 c 5
 160.468 220.5 155.218 216 104.218 165 c 5
 110.218 150 59.2178 97.5 74.2178 92.25 c 5
 104.218 85.5 100.25 84 134 87 c 5
 129.5 104.25 160.468 153 162.718 161.25 c 5
 176.968 186.75 180.718 178.5 196.468 194.25 c 5
 216.718 195 216.718 195 227.968 194.25 c 5
 245.218 186.75 253.468 183.75 257.968 165 c 5
 260.218 155.25 313.468 101.25 308.968 92.25 c 5
 335.218 95.25 344.218 92.25 372.718 105.75 c 5
 381.718 118.5 374.218 130.5 368.968 145.5 c 5
 323.218 204.75 281.968 225 257.968 285.75 c 5
 299.218 340.5 358.468 408.75 386.968 439.5 c 5
EndSplineSet
EndChar
StartChar: Oslash
Encoding: 216 216 87
Width: 765
VWidth: 1080
Flags: W
Fore
128.61 113.863 m 1
 87.3383 150.726 56.798 196.055 47 260 c 0
 28 388 30 481 108 584 c 24
 193 696 290 744 430 743 c 16
 478.116 743 520.727 736.462 558.902 722.03 c 1
 560.256 731.595 567.508 739.889 577 745 c 5
 717 745 649 765 765 725 c 5
 777 709 772.297 687.094 757 674 c 28
 741.594 660.812 724 683 705 674 c 5
 673.665 639.99 l 1
 681.674 630.7 689.445 620.712 697 610 c 8
 768 509 758 418 735 297 c 24
 718 209 671 163 626 95 c 1
 546 -27 389 -29 265 24 c 1
 258.421 27.7408 l 1
 176.598 25.8925 159.801 15.1479 68 28 c 13
 51.625 48.2812 24.625 53.9688 26 80 c 28
 27.2188 103.125 46.5938 113.141 68 122 c 20
 88.7455 130.597 110.792 113.425 128.61 113.863 c 1
561.815 625.009 m 1
 514.29 665.344 471.489 685.909 410 675 c 8
 329 661 289 614 245 544 c 24
 209 487 208 444 205 376 c 16
 201.421 312.468 197.041 267.352 220.519 213.427 c 1
 312.627 325.247 354.401 375.976 453 477 c 4
 521.932 552.531 529.022 579.128 561.815 625.009 c 1
611.091 565.997 m 1
 572.718 516.205 559.695 487.725 495 408 c 4
 427 317 381 273 290 139 c 5
 288.824 135.472 286.472 131.88 283.93 128.203 c 1
 301.986 114.249 323.222 103.772 350 95 c 8
 406 76 449 75 501 103 c 24
 566 139 587 188 614 257 c 24
 645 335 654 388 640 470 c 16
 633.691 507.852 626.067 538.468 611.091 565.997 c 1
EndSplineSet
EndChar
StartChar: Thorn
Encoding: 222 222 93
Width: 559
VWidth: 1080
Flags: W
VStem: 118 118<64 213>
Fore
248 300 m 29
236 542 m 5
 226 428 226 394 236 307 c 5
 272 276 306 306 345 324 c 28
 372 336 390 346 402 372 c 28
 420 411 421 444 402 483 c 28
 386 516 363 530 328 542 c 28
 294 554 283 556 236 542 c 5
372 1 m 5
 256 1 165 -17 34 0 c 5
 10 29 23 40 51 64 c 5
 97 81 88 32 118 64 c 5
 120 175 120 273 120 273 c 21
 129 413 124 663 124 663 c 13
 124 663 111 649 31 666 c 5
 14 686 20 716 40 734 c 5
 124.694 735.711 276.403 729.866 348 732 c 4
 354.635 732.198 373.178 698.979 351 669 c 4
 345.13 661.065 253.928 663.802 243 657 c 4
 219.967 642.664 238.709 618.911 243 619 c 12
 340.813 621.025 410.443 611.628 483 546 c 28
 515.283 516.8 522.827 486.414 526 443 c 28
 528.992 402.058 519.311 377.226 500 341 c 28
 471.937 288.354 451.363 253.675 398 227 c 28
 341.276 198.646 299.18 218.46 236 213 c 21
 237 133 240 145 244 80 c 13
 300.94 67.5195 362.328 99.3047 390 48 c 28
 399.318 30.7246 396 20 372 1 c 5
EndSplineSet
EndChar
StartChar: adieresis
Encoding: 228 228 34
Width: 417
Fore
231.329 537.355 m 24
 260.34 529.651 287.36 533.752 305.579 557.605 c 24
 323.156 580.618 318.83 606.107 305.579 631.855 c 24
 295.217 651.991 280.975 665.605 258.329 665.605 c 24
 235.684 665.605 221.441 651.991 211.079 631.855 c 24
 197.829 606.107 199.998 584.358 211.079 557.605 c 24
 215.354 547.287 220.535 540.223 231.329 537.355 c 24
81.3291 537.355 m 24
 110.34 529.651 137.36 533.752 155.579 557.605 c 24
 173.156 580.618 168.83 606.107 155.579 631.855 c 24
 145.217 651.991 130.976 665.605 108.329 665.605 c 24
 85.6836 665.605 71.4414 651.991 61.0791 631.855 c 24
 47.8291 606.107 49.998 584.358 61.0791 557.605 c 24
 65.3535 547.287 70.5352 540.223 81.3291 537.355 c 24
EndSplineSet
Ref: 97 97 N 1 0 0 1 0 0
EndChar
StartChar: ae
Encoding: 230 230 36
Width: 604
VWidth: 1000
Flags: W
Fore
257.819 188 m 28
 256.819 206 250.819 219 234.819 228 c 28
 223.819 233 215.819 229 203.819 226 c 28
 185.819 221 176.819 215 161.819 205 c 28
 143.819 194 132.819 189 120.819 173 c 28
 113.819 163 108.819 156 108.819 144 c 28
 109.819 114 112.819 86 140.819 74 c 28
 152.819 68 161.819 79 174.819 84 c 28
 197.819 94 214.819 96 231.819 116 c 28
 250.819 138 260.819 158 257.819 188 c 28
364.819 337 m 4
 371.819 328 484.819 333 485.819 343 c 4
 486.819 367 496.819 391 475.819 406 c 12
 451.819 423 425.819 412 401.819 396 c 28
 378.819 381 353.819 352 364.819 337 c 4
297.819 487 m 28
 370.114 484.825 413.279 493.886 482.819 474 c 28
 518.883 463.688 548.819 466 567.819 429 c 4
 594.819 374 593.441 351.72 576.819 307 c 28
 571.438 292.524 564.186 280.537 548.819 279 c 20
 538.819 278 354.819 264 347.819 269 c 4
 344.819 245 344.819 220 349.819 190 c 12
 356.102 152.304 361.858 125.935 390.819 101 c 28
 409.9 84.5723 427.752 85.3584 452.819 83 c 28
 477.392 80.6885 495.593 74.8564 515.819 89 c 28
 531.402 99.8965 530.807 114.962 536.819 133 c 20
 546.819 163 589.819 147 588.819 121 c 4
 584.819 64 587.13 71.79 571.819 46 c 28
 560.676 27.2295 550.005 17.3086 529.819 9 c 28
 505.253 -1.11133 488.385 5.16797 461.819 5 c 28
 436.442 4.83984 422.192 8.45508 396.819 8 c 28
 368.258 7.4873 352.289 4.33984 323.819 2 c 29
 310.169 4.33984 301.059 1.51855 288.819 8 c 28
 275.9 14.8418 273.058 24.5664 262.819 35 c 28
 254.707 43.2666 253.313 54.5703 241.819 56 c 28
 216.133 59.1963 207.207 34.9893 184.819 22 c 28
 169.715 13.2363 162.908 3.59766 145.819 0 c 28
 110.921 -7.34766 84.9258 -10.1182 54.8193 9 c 28
 32.9688 22.876 26.9219 40.8457 20.8193 66 c 28
 11.8828 102.834 13.2881 127.595 26.8193 163 c 28
 36.9297 189.457 50.2793 201.61 71.8193 220 c 28
 102.761 246.416 124.98 256.054 162.819 271 c 28
 188.596 281.182 210.291 270.545 231.819 288 c 28
 241.574 295.91 243.019 304.757 245.819 317 c 28
 250.776 338.67 249.948 352.157 245.819 374 c 28
 241.851 394.993 243.163 412.525 225.819 425 c 28
 213.139 434.12 201.092 430.275 185.819 427 c 28
 166.548 422.867 152.596 419.804 140.819 404 c 28
 125.416 383.33 130.819 355 128.819 339 c 12
 125.027 308.664 90.0859 291.164 60.8193 300 c 28
 34.9395 307.813 25.1211 335.377 29.8193 362 c 20
 35.8193 396 43.6826 423.01 71.8193 447 c 28
 110.963 480.375 146.997 478.055 197.819 486 c 28
 236.354 492.024 258.835 488.173 297.819 487 c 28
EndSplineSet
EndChar
StartChar: ccedilla
Encoding: 231 231 36
Width: 432
Fore
177 93 m 0
 132 120 118.314 159.803 114 190 c 8
 105.716 247.992 112.051 284.294 133 339 c 24
 142.323 363.348 149.061 379.913 171 394 c 24
 197.33 410.906 219.435 414.694 250 408 c 24
 272.722 403.023 280.278 387.804 299 374 c 24
 317.336 360.48 322.25 336.818 345 338 c 24
 360.7 338.815 370.65 350.64 374 366 c 24
 380.604 396.285 366.918 418.082 345 440 c 16
 309 476 288.601 476.479 248 478 c 24
 189.69 480.184 150.876 470.057 105 434 c 24
 58.251 397.257 43.3367 360.173 27 303 c 24
 10.6025 245.615 10 207 24 150 c 0
 34 106 53.1377 78.957 88 47 c 16
 97.6385 38.1647 106.309 31.4261 115.243 26.007 c 1
 115.712 19.021 116.405 11.7968 117.234 4.32812 c 8
 121.11 -30.5576 173.537 -18.2773 189.234 -49.6719 c 24
 198.652 -68.5088 197.294 -84.2148 189.234 -103.672 c 24
 172.138 -144.946 100.263 -140.714 108.234 -184.672 c 24
 113.279 -212.492 146.001 -216.185 174.234 -214.672 c 24
 204.09 -213.072 220.22 -197.883 240.234 -175.672 c 24
 281.59 -129.778 294.744 -92.3721 306.234 -31.6719 c 16
 309.532 -14.2535 311.94 0.754669 312.387 15.1804 c 1
 330.134 21.5021 344.139 28.6003 357 46 c 8
 374.88 70.1904 372 64 375 121 c 0
 377 147 334 163 323 133 c 0
 315.815 112.244 315.414 94.8307 296.497 84.5 c 24
 255.491 62.1074 209.742 73.3546 177 93 c 0
EndSplineSet
EndChar
StartChar: edieresis
Encoding: 235 235 40
Width: 364
Fore
263.296 504.496 m 24
 292.307 496.792 319.327 500.893 337.546 524.746 c 24
 355.123 547.759 350.797 573.248 337.546 598.996 c 24
 327.184 619.132 312.941 632.746 290.296 632.746 c 24
 267.65 632.746 253.408 619.132 243.046 598.996 c 24
 229.796 573.248 231.965 551.499 243.046 524.746 c 24
 247.32 514.428 252.502 507.363 263.296 504.496 c 24
113.296 504.496 m 24
 142.307 496.792 169.327 500.893 187.546 524.746 c 24
 205.123 547.759 200.797 573.248 187.546 598.996 c 24
 177.184 619.132 162.942 632.746 140.296 632.746 c 24
 117.65 632.746 103.408 619.132 93.0459 598.996 c 24
 79.7959 573.248 81.9648 551.499 93.0459 524.746 c 24
 97.3203 514.428 102.502 507.363 113.296 504.496 c 24
EndSplineSet
Ref: 101 101 N 1 0 0 1 0 0
EndChar
StartChar: idieresis
Encoding: 239 239 44
Width: 250
VStem: 97 80<66 72> 97 85<72 151.447>
Fore
159.651 490.086 m 24
 181.409 484.308 201.675 487.383 215.339 505.273 c 24
 228.521 522.533 225.277 541.649 215.339 560.961 c 24
 207.567 576.062 196.886 586.273 179.901 586.273 c 24
 162.917 586.273 152.235 576.062 144.464 560.961 c 24
 134.526 541.649 136.153 525.338 144.464 505.273 c 24
 147.67 497.534 151.556 492.236 159.651 490.086 c 24
47.1514 490.086 m 24
 68.9092 484.308 89.1748 487.383 102.839 505.273 c 24
 116.021 522.533 112.777 541.649 102.839 560.961 c 24
 95.0674 576.062 84.3857 586.273 67.4014 586.273 c 24
 50.417 586.273 39.7354 576.062 31.9639 560.961 c 24
 22.0264 541.649 23.6533 525.338 31.9639 505.273 c 24
 35.1699 497.534 39.0557 492.236 47.1514 490.086 c 24
EndSplineSet
Ref: 305 305 N 1 0 0 1 0 0
EndChar
StartChar: eth
Encoding: 240 240 45
Width: 432
VWidth: 1000
Flags: W
Fore
342.078 231.609 m 1
 341.844 245.922 340.422 261.047 338 278 c 8
 332 318 324 342 299 374 c 24
 284 392 273 403 250 408 c 24
 220 415 197 411 171 394 c 24
 149 380 142 364 133 339 c 24
 112 284 105 248 114 190 c 24
 120 148 129 121 159 93 c 24
 178 75 196 74 222 70 c 24
 246 67 263 63 284 76 c 16
 305.938 87.875 312.828 103.938 320.734 126.469 c 1
 319.359 128.359 318.109 130.203 317 132 c 1
 331.062 168.688 338.828 201.016 342.078 231.609 c 1
302.785 642.492 m 1
 306.163 643.311 309.773 643.979 313.719 644.469 c 0
 323 645.609 331.359 647 339.234 647 c 0
 348.891 647 357.797 644.906 366.766 637.719 c 0
 379.375 627.594 387.469 614.781 387.469 600.375 c 0
 387.469 595.969 386.703 591.406 385.094 586.719 c 0
 380.847 574.438 373.946 566.037 365.242 559.812 c 1
 376.715 534.757 384.751 506.489 390 474 c 0
 399.547 414.875 405 420 412.312 328.781 c 1
 416.922 308.312 417.781 288.344 419 262 c 8
 421.188 215.062 421.438 187.031 408 142 c 24
 395.875 101.375 386.328 76.6094 357 46 c 24
 337.281 25.4219 321.266 17.2812 294 9 c 24
 268.578 1.28125 252.562 5.17188 226 5 c 24
 200.625 4.84375 185.469 1.26562 161 8 c 24
 129.875 16.5625 111.562 24.9375 88 47 c 24
 53.4844 79.3281 34 106 24 150 c 0
 10 207 10.6094 245.609 27 303 c 24
 43.3438 360.172 58.25 397.25 105 434 c 24
 150.875 470.062 189.719 480.844 248 478 c 16
 273.672 476.75 291.109 476.281 309.391 467.266 c 1
 302.868 492.28 296.937 512.433 286.729 531.175 c 1
 266.099 524.22 246.678 517.734 228.109 517.734 c 0
 213.297 517.734 199.031 521.844 185.141 533.141 c 0
 176.406 540.234 172.359 549.859 172.359 560.047 c 0
 172.359 566.625 174.047 573.438 177.266 579.953 c 0
 185 595.655 196.85 602.564 210.744 607.359 c 1
 182.27 627.151 144.348 649.758 93 678 c 8
 54.9531 698.922 161.578 723.188 201 705 c 16
 242.498 685.847 275.999 665.676 302.785 642.492 c 1
EndSplineSet
EndChar
StartChar: ocircumflex
Encoding: 244 244 48
Width: 432
Fore
200.359 529.113 m 4
 203.922 552.627 208.909 579.701 221.022 613.901 c 5
 251.659 597.514 255.222 539.801 266.622 522.701 c 4
 274.073 511.523 347.958 513.398 344.215 526.976 c 4
 337.983 549.581 330.847 573.007 322.197 597.514 c 12
 305.949 643.551 306.522 664.488 273.747 712.939 c 5
 246.672 728.613 225.297 717.214 193.947 701.538 c 5
 148.33 613.099 134.645 585.138 114.544 531.252 c 4
 110.683 520.896 198.203 514.879 200.359 529.113 c 4
EndSplineSet
Ref: 111 111 N 1 0 0 1 0 0
EndChar
StartChar: odieresis
Encoding: 246 246 50
Width: 432
Fore
284.469 564.738 m 24
 313.479 557.034 340.5 561.135 358.719 584.988 c 24
 376.296 608.001 371.97 633.49 358.719 659.238 c 24
 348.356 679.374 334.115 692.988 311.469 692.988 c 24
 288.823 692.988 274.581 679.374 264.219 659.238 c 24
 250.969 633.49 253.138 611.741 264.219 584.988 c 24
 268.493 574.67 273.675 567.605 284.469 564.738 c 24
134.469 564.738 m 24
 163.479 557.034 190.5 561.135 208.719 584.988 c 24
 226.296 608.001 221.97 633.49 208.719 659.238 c 24
 198.356 679.374 184.115 692.988 161.469 692.988 c 24
 138.823 692.988 124.581 679.374 114.219 659.238 c 24
 100.969 633.49 103.138 611.741 114.219 584.988 c 24
 118.493 574.67 123.675 567.605 134.469 564.738 c 24
EndSplineSet
Ref: 111 111 N 1 0 0 1 0 0
EndChar
StartChar: divide
Encoding: 247 247 51
Width: 346
Flags: W
Fore
154.312 322.812 m 28
 176.07 317.034 196.336 320.109 210 338 c 28
 223.182 355.26 219.938 374.377 210 393.688 c 28
 202.229 408.789 191.547 419 174.562 419 c 28
 157.578 419 146.896 408.789 139.125 393.688 c 28
 129.188 374.377 130.813 358.065 139.125 338 c 28
 142.331 330.262 146.217 324.963 154.312 322.812 c 28
154.312 49.8125 m 28
 176.07 44.0342 196.336 47.1094 210 65 c 28
 223.182 82.2598 219.938 101.377 210 120.688 c 28
 202.229 135.789 191.547 146 174.562 146 c 28
 157.578 146 146.896 135.789 139.125 120.688 c 28
 129.188 101.377 130.813 85.0654 139.125 65 c 28
 142.331 57.2617 146.217 51.9629 154.312 49.8125 c 28
33 202 m 28
 18.5273 221.992 22.7354 246.436 39 265 c 28
 69.8604 300.223 109.836 284.136 156 292 c 28
 187.333 297.338 205.521 305.398 237 301 c 28
 264.543 297.151 286.553 296.426 303 274 c 28
 319.664 251.278 324.784 225.342 309 202 c 28
 282.258 162.452 239.707 167.81 192 166 c 28
 128.466 163.59 70.2822 150.499 33 202 c 28
EndSplineSet
EndChar
StartChar: oslash
Encoding: 248 248 52
Width: 468
VWidth: 1000
Flags: W
Fore
331.844 456.446 m 1
 350.061 482.963 373.402 516.594 369.454 522.516 c 1
 402.454 519.422 433.392 531.797 450.923 502.922 c 1
 431.693 482.175 404.662 451.243 374.247 415.129 c 1
 385.587 402.264 394.642 389.201 403.313 370 c 8
 421.313 331 422.313 305 424.313 262 c 24
 426.313 215 426.313 187 413.313 142 c 24
 400.313 101 391.313 76 362.313 46 c 24
 342.313 25 326.313 18 299.313 9 c 24
 273.313 2 257.313 5 231.313 5 c 24
 205.313 4 190.313 1 166.313 8 c 16
 140.354 14.6992 123.512 22.0996 104.628 37.2461 c 1
 102.595 29.6729 101.836 23.0576 103.095 18.2344 c 1
 56.6885 14.1094 62.1416 16.1719 20.8916 25.4531 c 1
 6.69922 30.4199 35.4766 66.1494 52.1191 94.6738 c 1
 41.7207 110.716 34.2822 128.136 29.3135 150 c 0
 15.3135 207 15.3135 246 32.3135 303 c 24
 48.3135 361 63.3135 398 110.313 434 c 24
 156.313 470 195.313 480 253.313 478 c 16
 286.772 476.368 306.246 476.067 331.844 456.446 c 1
283.944 395.009 m 1
 276.166 401.092 267.396 405.374 255.313 408 c 8
 225.313 415 202.313 411 176.313 394 c 24
 154.313 380 147.313 364 138.313 339 c 24
 117.313 284 110.313 248 119.313 190 c 16
 119.517 188.59 l 1
 138.146 212.316 147.873 229.646 173.517 261.609 c 8
 206.485 302.719 243.313 346 257.048 367.828 c 0
 267.986 385.219 272.531 385.376 283.944 395.009 c 1
320.603 350.286 m 1
 273.548 291.516 l 8
 238.798 247.406 222.485 220.016 187.985 175.703 c 24
 170.829 153.672 162.173 155.391 142.579 120.328 c 1
 142.472 119.933 142.315 119.471 142.116 118.944 c 0
 147.886 110.082 155.111 101.588 164.313 93 c 8
 183.313 75 201.313 74 227.313 70 c 24
 251.313 67 268.313 63 289.313 76 c 24
 313.313 89 319.313 107 328.313 133 c 24
 348.313 186 351.313 222 343.313 278 c 16
 338.87 307.621 333.33 328.468 320.603 350.286 c 1
EndSplineSet
EndChar
StartChar: udieresis
Encoding: 252 252 56
Width: 438
VStem: 47 93<142 375> 291 86<127 394>
Fore
249.54 528.496 m 24
 278.551 520.792 305.571 524.893 323.79 548.746 c 24
 341.367 571.759 337.041 597.248 323.79 622.996 c 24
 313.428 643.132 299.187 656.746 276.54 656.746 c 24
 253.895 656.746 239.652 643.132 229.29 622.996 c 24
 216.04 597.248 218.209 575.499 229.29 548.746 c 24
 233.564 538.428 238.746 531.363 249.54 528.496 c 24
99.54 528.496 m 24
 128.551 520.792 155.571 524.893 173.79 548.746 c 24
 191.367 571.759 187.041 597.248 173.79 622.996 c 24
 163.428 643.132 149.187 656.746 126.54 656.746 c 24
 103.895 656.746 89.6523 643.132 79.29 622.996 c 24
 66.04 597.248 68.209 575.499 79.29 548.746 c 24
 83.5645 538.428 88.7461 531.363 99.54 528.496 c 24
EndSplineSet
Ref: 117 117 N 1 0 0 1 0 0
EndChar
StartChar: thorn
Encoding: 254 254 58
Width: 567
VWidth: 1080
Flags: W
VStem: 118 118<-160 3>
Fore
248 76 m 25
236 485 m 1
 226 371 226 170 236 83 c 1
 272 52 309.794 75.2693 345 100 c 24
 398.843 137.822 413.823 183.337 426 248 c 24
 438.953 316.788 437.56 365.129 403 426 c 24
 384.626 458.363 363.168 472.825 328 485 c 24
 294.095 496.738 283 499 236 485 c 1
372 -223 m 1
 256 -223 165 -241 34 -224 c 1
 10 -195 23 -184 51 -160 c 1
 97 -143 88 -192 118 -160 c 1
 120 -49 120 49 120 49 c 17
 129 189 124 663 124 663 c 9
 124 663 111 649 31 666 c 1
 14 686 20 716 40 734 c 1
 124.694 735.711 276.403 729.866 348 732 c 0
 354.635 732.198 373.178 698.979 351 669 c 0
 345.13 661.065 253.928 663.802 243 657 c 0
 219.967 642.664 238.709 561.911 243 562 c 8
 340.813 564.025 408.871 552.847 483 489 c 24
 516.705 459.97 523.459 429.656 532 386 c 24
 547.602 306.257 546.577 254.785 520 178 c 24
 492.787 99.3779 471.758 41.4924 398 3 c 24
 341.988 -26.2314 299.18 3 236 3 c 17
 237 -77 240 -79 244 -144 c 9
 300.94 -156.48 362.328 -124.695 390 -176 c 24
 399.318 -193.275 396 -204 372 -223 c 1
EndSplineSet
EndChar
StartChar: ydieresis
Encoding: 255 255 58
Width: 491
Fore
317.187 542.051 m 24
 346.197 534.347 373.218 538.447 391.437 562.301 c 24
 409.014 585.313 404.688 610.803 391.437 636.551 c 24
 381.074 656.687 366.833 670.301 344.187 670.301 c 24
 321.541 670.301 307.299 656.687 296.937 636.551 c 24
 283.687 610.803 285.855 589.054 296.937 562.301 c 24
 301.211 551.982 306.393 544.918 317.187 542.051 c 24
167.187 542.051 m 24
 196.197 534.347 223.218 538.447 241.437 562.301 c 24
 259.014 585.313 254.688 610.803 241.437 636.551 c 24
 231.074 656.687 216.833 670.301 194.187 670.301 c 24
 171.541 670.301 157.299 656.687 146.937 636.551 c 24
 133.687 610.803 135.855 589.054 146.937 562.301 c 24
 151.211 551.982 156.393 544.918 167.187 542.051 c 24
EndSplineSet
Ref: 121 121 N 1 0 0 1 0 0
EndChar
StartChar: Dcroat
Encoding: 272 272 73
Width: 750
VWidth: 1080
Flags: W
VStem: 138.262 108.902<200.747 329.746>
Fore
250.461 468.166 m 1
 257.376 468.455 264.729 468.158 273 467 c 12
 300.547 463.156 322.547 462.422 339 440 c 28
 355.656 417.281 360.781 391.344 345 368 c 20
 321.891 333.836 286.992 333.185 247.164 332.473 c 1
 246.698 275.462 247.671 244.533 242 111 c 8
 241 84 275 82 302 77 c 24
 341 70 367 78 404 94 c 24
 465 120 502 142 540 196 c 24
 585 259 601 307 600 384 c 24
 599 465 581 516 532 580 c 24
 493 632 457 656 395 674 c 24
 344 689 298 705 259 669 c 1
 254.887 581.388 252.212 517.166 250.461 468.166 c 1
139.506 455.239 m 1
 140.385 508.912 141.974 580.348 145 686 c 1
 131 700 113 693 94 688 c 24
 77 685 75 668 56 667 c 1
 34 667 7 666 5 688 c 1
 0 708 33 728 60 740 c 24
 93 755 117 748 154 748 c 24
 267 749 334 755 444 725 c 24
 511 707 553 695 606 649 c 24
 666 596 696 554 717 478 c 24
 736 407 726 361 708 290 c 24
 689 215 675 168 623 111 c 24
 576 59 536 39 469 17 c 24
 392 -8 343 1 262 0 c 1
 159 -1 117 0 0 14 c 1
 -11 28 -11 54 0 82 c 1
 40 114 99 60 134 100 c 1
 137.572 220.55 137.954 273.721 138.262 329.827 c 1
 111.277 332.742 87.5503 342.375 69 368 c 12
 54.5312 388 58.7344 412.438 75 431 c 20
 93.4503 452.057 115.163 454.777 139.506 455.239 c 1
EndSplineSet
EndChar
StartChar: dcroat
Encoding: 273 273 74
Width: 468
VWidth: 1000
Flags: W
HStem: 538 92<318 319> 538 95.296<294 318>
VStem: 318 70<517 542 638.816 644 644.031 690.991>
Fore
240 425 m 24
 222.325 428.742 211.177 422.045 195 414 c 24
 175.639 404.372 165.522 395.873 152 379 c 24
 119.277 338.171 99.3535 310.805 92 259 c 24
 86.5391 220.526 89.2988 193.886 110 161 c 24
 132.607 125.087 158.431 112.335 198 97 c 24
 217.758 89.3428 232.005 83.9863 252 91 c 24
 276.981 99.7627 286.015 116.521 300 139 c 24
 321.761 173.976 330.957 197.92 334 239 c 24
 337.865 291.181 337.206 326.305 310 371 c 24
 292.072 400.452 273.731 417.857 240 425 c 24
318 538 m 0
 308.912 538.091 290.208 539.251 282 541.125 c 0
 266.477 544.67 252.725 552.369 241.5 567.875 c 8
 230.646 582.869 233.802 601.202 246 615.125 c 16
 259.743 630.811 275.896 632.929 294 633.296 c 0
 298.546 633.388 314.215 629.941 319 630 c 0
 319.357 640.954 317.54 678.58 318 691 c 1
 326.942 712.369 265.364 669.727 259 692 c 0
 251 720 287 768 309 782 c 0
 331.072 796.046 398.915 770.154 385 748 c 1
 385.712 731.618 385.084 683.348 386 644 c 8
 386.563 619.797 429.45 641.225 444 621.875 c 24
 456.701 604.984 460.338 585.381 448.5 567.875 c 16
 435.765 549.042 408.25 543.675 388 542 c 0
 390.35 404.302 394.48 218.799 393.899 108 c 1
 393.824 93.6533 427.163 74.2578 427 62 c 0
 426.765 44.2793 428.246 17.5312 407 8 c 0
 399.12 4.46484 372.591 10.6934 364 10 c 8
 329.33 7.20215 315.738 74.5938 287 55 c 16
 265 40 183.341 0.359375 128 7 c 8
 94.5547 11.0137 85.4336 39.0146 64 65 c 24
 44.8485 88.2186 34.3096 102.723 24 131 c 24
 11.8333 164.373 8.95898 185.493 10 221 c 24
 11.7306 280.028 15.7812 316.086 42 369 c 24
 67.0537 419.564 89.1953 447.478 136 479 c 24
 158.504 494.156 174.896 499.781 202 501 c 24
 230.823 502.296 246.508 492.753 274 484 c 24
 290.838 478.639 311.71 441.26 316 467 c 1
 315.347 489.204 318.157 517.275 318 538 c 0
EndSplineSet
EndChar
StartChar: ebreve
Encoding: 277 277 78
Width: 364
Fore
295.75 617.75 m 28
 265.32 608.947 269.332 571.921 241 557.75 c 28
 224.705 549.6 212.573 550.946 194.5 553.25 c 28
 175.04 555.73 161.694 557.226 147.25 570.5 c 28
 124.221 591.664 142.782 632.258 113.5 643.25 c 28
 86.5303 653.374 35.5 656 46 613.25 c 4
 53.5 580.25 68.1133 560.249 94 536 c 28
 111.668 519.45 125.408 513.17 148.75 506.75 c 28
 167.102 501.703 178.467 504.38 197.5 504.5 c 28
 217.424 504.626 229.436 501.709 248.5 507.5 c 28
 268.947 513.711 280.965 519.819 295.75 535.25 c 28
 317.748 558.209 346.595 578.055 334 607.25 c 28
 327.873 621.454 310.61 622.049 295.75 617.75 c 28
EndSplineSet
Ref: 101 101 N 1 0 0 1 0 0
EndChar
StartChar: Hbar
Encoding: 294 294 93
Width: 810
VWidth: 1080
Flags: W
Fore
784.46 574.952 m 8
 834.673 579.837 792.147 504.334 764.19 510.927 c 1
 477.174 516.99 493.094 511.729 46.376 520.312 c 1
 16.457 513.178 17.043 542.609 31.291 554.734 c 16
 65.46 583.808 256.912 577.927 381.062 575.544 c 8
 538.091 572.527 661.595 562.998 784.46 574.952 c 8
43 694 m 24
 31 710 29 730 46 745 c 1
 353 740 97 742 370 734 c 1
 381 722 381 704 370 691 c 24
 342 660 291 707 263 679 c 1
 254 551 259 560 259 435 c 1
 668 432 421 432 609 435 c 1
 614 558 606 592 617 657 c 1
 598 687 552 662 532 691 c 24
 521 708 518 729 532 742 c 1
 657 754 655 756 786 736 c 1
 795 726 792 713 786 702 c 24
 770 670 728 680 711 649 c 1
 708 108 717 535 711 119 c 1
 720 95 743 92 754 68 c 24
 763 47 758 32 761 9 c 17
 565 -9 703 0 498 0 c 9
 504 27 498 47 515 68 c 24
 538 97 597 74 600 111 c 16
 612 265 606 88 606 370 c 1
 407 381 688 384 253 375 c 1
 273 54 251 361 260 111 c 1
 285 75 343 107 362 68 c 24
 371 50 369 31 350 17 c 1
 97 14 262 0 26 26 c 1
 10 39 5 61 17 77 c 24
 42 108 92 56 119 85 c 1
 114 361 131 259 137 668 c 1
 114 699 65 663 43 694 c 24
EndSplineSet
EndChar
StartChar: hbar
Encoding: 295 295 94
Width: 485
VWidth: 1000
Flags: W
VStem: 101.837 86.287<165.278 333 451 499 624 646>
Fore
187.499 635.499 m 1
 199.223 637.381 211.128 638.081 226 636 c 12
 253.547 632.156 275.547 631.422 292 609 c 28
 308.656 586.281 313.781 560.344 298 537 c 20
 272.589 499.433 232.923 502.388 188.124 501.225 c 1
 188.058 485.805 188 469.292 188 451 c 5
 218 485 239 485 284 493 c 12
 324 500 350 481 381 456 c 28
 404 438 413 422 422 394 c 28
 459 280 429 192 432 85 c 5
 441 61 464 71 472 53 c 28
 479 39 481 22 472 12 c 5
 419 14 444 11 290 13 c 5
 276 27 278 48 290 64 c 5
 302 82 329 65 341 82 c 5
 355 173 368 219 353 318 c 12
 347 355 324 374 290 391 c 28
 270 401 255 400 233 394 c 28
 213 389 189 387 188 366 c 20
 182 277 191 183 187 98 c 5
 197 76 221 94 232 79 c 28
 247 59 257 35 239 15 c 5
 112 13 190 13 27 13 c 5
 9 27 5 44 14 62 c 28
 32 96 89 65 107 95 c 5
 101.475 233.119 101.557 333.862 101.837 498.016 c 1
 70.4683 499.528 42.9373 508.077 22 537 c 12
 7.53125 557 11.7344 581.438 28 600 c 20
 48.8153 623.756 73.7829 624.173 101.995 624.339 c 1
 101.998 631.124 102 638.01 102 645 c 5
 90 666 64 657 46 673 c 28
 34 684 19 692 23 707 c 28
 29 731 55 731 80 736 c 28
 120 744 156 759 184 730 c 5
 185.789 692.719 186.867 662.466 187.499 635.499 c 1
EndSplineSet
EndChar
StartChar: itilde
Encoding: 297 297 96
Width: 250
VStem: 97 80<66 72> 97 85<72 151.447>
Fore
88.2783 553.037 m 28
 108.165 551.83 116.67 540.166 135.142 532.699 c 28
 148.8 527.18 155.904 517.51 170.51 519.437 c 28
 190.48 522.073 192.367 549.725 212.51 549.499 c 28
 228.027 549.326 243.242 541.105 244.341 525.626 c 28
 245.103 514.924 233.359 512.758 224.889 506.173 c 28
 203.036 489.187 191.523 471.261 163.878 469.92 c 28
 129.056 468.234 117.807 509.367 82.9727 507.941 c 28
 61.5195 507.063 56.4229 477.108 35.2246 480.531 c 28
 20.1562 482.965 8.83789 494.449 9.1416 509.71 c 28
 9.44141 524.827 23.1787 529.726 36.1094 537.562 c 28
 54.2578 548.563 67.0947 554.32 88.2783 553.037 c 28
EndSplineSet
Ref: 305 305 N 1 0 0 1 0 0
EndChar
StartChar: imacron
Encoding: 299 299 98
Width: 250
VStem: 97 80<66 72> 97 85<72 151.447>
Fore
23.75 518.5 m 28
 12.8955 533.494 16.0518 551.827 28.25 565.75 c 28
 51.3955 592.167 81.377 580.102 116 586 c 28
 139.5 590.003 153.142 596.049 176.75 592.75 c 28
 197.407 589.863 213.915 589.319 226.25 572.5 c 28
 238.748 555.459 242.588 536.007 230.75 518.5 c 28
 210.693 488.839 178.78 492.857 143 491.5 c 28
 95.3496 489.692 51.7119 479.874 23.75 518.5 c 28
EndSplineSet
Ref: 305 305 N 1 0 0 1 0 0
EndChar
StartChar: Ibreve
Encoding: 300 300 99
Width: 389
Fore
326.186 913.163 m 28
 287.641 902.013 292.722 855.112 256.835 837.163 c 28
 236.195 826.839 220.828 828.545 197.936 831.463 c 28
 173.286 834.605 156.381 836.499 138.085 853.312 c 28
 108.916 880.121 132.426 931.539 95.335 945.463 c 28
 61.1738 958.287 -3.46484 961.613 9.83496 907.463 c 4
 19.335 865.663 37.8457 840.328 70.6357 809.613 c 28
 93.0146 788.649 110.418 780.694 139.985 772.562 c 28
 163.23 766.17 177.627 769.561 201.735 769.713 c 28
 226.973 769.872 242.188 766.178 266.335 773.513 c 28
 292.235 781.38 307.457 789.117 326.186 808.663 c 28
 354.05 837.744 390.589 862.882 374.636 899.863 c 28
 366.874 917.854 345.008 918.607 326.186 913.163 c 28
EndSplineSet
Ref: 73 73 N 1 0 0 1 0 0
EndChar
StartChar: ibreve
Encoding: 301 301 100
Width: 250
VStem: 97 80<66 72> 97 85<72 151.447>
Fore
198.688 562.875 m 28
 175.865 556.273 178.873 528.503 157.625 517.875 c 28
 145.403 511.762 136.305 512.772 122.75 514.5 c 28
 108.155 516.36 98.1455 517.481 87.3125 527.438 c 28
 70.041 543.311 83.9619 573.756 62 582 c 28
 41.7725 589.593 3.5 591.562 11.375 559.5 c 4
 17 534.75 27.96 519.749 47.375 501.562 c 28
 60.626 489.15 70.9307 484.439 88.4375 479.625 c 28
 102.201 475.84 110.726 477.848 125 477.938 c 28
 139.942 478.032 148.952 475.844 163.25 480.188 c 28
 178.586 484.846 187.599 489.427 198.688 501 c 28
 215.187 518.219 236.821 533.104 227.375 555 c 28
 222.779 565.653 209.833 566.1 198.688 562.875 c 28
EndSplineSet
Ref: 305 305 N 1 0 0 1 0 0
EndChar
StartChar: dotlessi
Encoding: 305 305 102
Width: 250
VWidth: 1000
Flags: W
VStem: 97 80<66 72> 97 85<72 151.447>
Fore
15 406 m 5
 47 421 49 421 72 429 c 28
 95 436 109 447 133 444 c 28
 155 441 172 435 184 415 c 28
 211 369 182 331 182 278 c 5
 182 202 177 190 177 72 c 5
 187 47 219 61 229 40 c 28
 236 26 236 10 224 0 c 5
 101 0 142 0 25 0 c 5
 14 9 12 22 19 34 c 28
 35 63 79 39 97 66 c 5
 95 167 101 161 91 326 c 5
 75 366 53 362 15 406 c 5
EndSplineSet
EndChar
StartChar: IJ
Encoding: 306 306 103
Width: 604
VWidth: 1000
Flags: W
Fore
341.119 752.827 m 1
 383.851 764.134 427.578 764.535 482 760 c 1
 520 757 554 768 578 738 c 1
 585 729 583 719 578 709 c 1
 562 675 521 682 504 647 c 1
 514 311 504 308 510 -54 c 1
 508 -78 509 -97 497 -121 c 24
 481 -153 462 -165 435 -189 c 24
 411 -209 397 -222 368 -234 c 24
 345 -243 330 -245 305 -245 c 24
 285 -244 271 -245 254 -233 c 24
 237 -221 228 -208 226 -187 c 24
 224 -168 231 -156 243 -141 c 24
 253 -129 261 -119 277 -120 c 24
 299 -123 299 -148 319 -159 c 24
 333 -167 343 -174 358 -171 c 24
 373 -168 379 -158 389 -146 c 24
 402 -129 406 -119 410 -96 c 1
 410.166 -48.2207 410.359 -8.80843 410.557 25.9583 c 1
 407.954 22.7839 404.766 19.7747 401 17 c 1
 148 14 262 0 26 26 c 1
 10 39 4.54688 61.0938 17 77 c 24
 45.4375 113.312 107 56 135 85 c 1
 129 361 131 259 137 668 c 1
 114 699 65.25 663.156 43 694 c 24
 29.5156 712.688 29 738 46 753 c 1
 341.338 748.19 115.638 759.113 341.119 752.827 c 1
363.324 688.946 m 1
 336.916 657.863 285.048 696.117 245 678 c 1
 265 357 251 344 260 94 c 1
 284.479 58.7504 375.635 115.96 410.829 71.0115 c 1
 411.733 214.1 412.517 295.6 411 671 c 1
 399.942 688.201 380.959 686.532 363.324 688.946 c 1
EndSplineSet
LCarets: 0 255 '    ' 1 0 
Ligature: 0 0 'liga' I J
EndChar
StartChar: ij
Encoding: 307 307 104
Width: 394
VWidth: 1000
Flags: W
VStem: 97 77<72 195.481> 97 80<66 72> 255 98<-96 374> 255.113 2.60301<49 61.9294>
Fore
112 576 m 24
 98 577 87 578 77 588 c 24
 67 598 66 608 66 622 c 24
 66 638 67 649 77 662 c 24
 88 676 99 683 117 685 c 24
 140 687 159 685 174 667 c 24
 189 651 193 632 185 611 c 24
 180 595 168 591 153 584 c 24
 138 577 128 575 112 576 c 24
276 576 m 24
 262 577 252 578 242 588 c 24
 232 598 231 608 230 622 c 24
 230 638 232 649 242 662 c 24
 253 676 264 683 282 685 c 24
 305 687 323 685 338 667 c 24
 354 651 357 632 350 611 c 24
 344 595 332 591 318 584 c 24
 303 577 292 575 276 576 c 24
257.108 0 m 1
 256.628 0 l 2
 139.062 0 140.271 0 25 0 c 1
 14 9 12.5 22.2031 19 34 c 24
 34.8594 62.7969 79 39 97 66 c 1
 95 167 101 161 91 326 c 1
 75 366 53 362 15 406 c 1
 47 421 48.875 422.672 72 429 c 16
 120.728 442.342 135.859 441.255 195.351 448.226 c 1
 196.465 449.855 197.681 451.449 199 453 c 1
 260 468 300 478 353 474 c 1
 355 -396 351 513 353 -96 c 1
 345 -126 337 -143 317 -168 c 24
 292 -198 271 -211 237 -230 c 24
 216 -242 204 -252 180 -253 c 24
 163 -254 153 -250 138 -242 c 24
 124 -234 113 -229 106 -213 c 24
 98 -195 99 -181 106 -162 c 24
 113 -145 123 -135 140 -128 c 24
 159 -120 174 -119 192 -128 c 24
 204 -134 202 -149 214 -156 c 24
 228 -164 243 -172 255 -162 c 1
 257.108 0 l 1
197.648 386.73 m 1
 186.923 385.107 174 386.651 174 351 c 1
 174 275 177 190 177 72 c 1
 185.429 50.9274 229.704 65.1793 255.113 51.1818 c 1
 255.018 107.628 255.234 207.234 256 374 c 1
 242 391 213 367 199 385 c 16
 197.648 386.73 l 1
257.716 49.601 m 1
 257.779 49.5591 l 1
 258.126 74.7859 258.026 66.9146 257.716 49.601 c 1
EndSplineSet
LCarets: 0 255 '    ' 1 0 
Ligature: 0 0 'liga' i j
EndChar
StartChar: kgreenlandic
Encoding: 312 312 107
Width: 537
VWidth: 1000
Flags: W
VStem: 80 105<95 456> 81 104<57 197>
Fore
80 456 m 1
 82 237 79 256 81 57 c 1
 70 40 49 51 39 34 c 1
 32 23 29 9 39 0 c 1
 98 -1 174 -3 225 7 c 1
 231 13 230 25 225 32 c 1
 214 48 193 34 182 49 c 1
 185 97 186 131 185 197 c 1
 276 114 278 112 373 61 c 1
 368 36 328 62 310 44 c 1
 298 31 287 18 299 5 c 1
 405 5 439 -7 523 9 c 1
 525 33 l 1
 411 136 392 131 263 252 c 1
 378 343 376 334 503 423 c 1
 508 440 500 455 485 465 c 1
 399 459 371 457 280 453 c 1
 263 444 250 432 251 413 c 1
 252 401 262 395 274 391 c 1
 290 384 307 403 320 391 c 1
 331 380 326 365 320 351 c 1
 270 298 249 295 194 251 c 1
 185 253 173 264 171 274 c 1
 172 432 172 240 168 380 c 1
 173 390 186 387 191 397 c 1
 199 413 201 428 191 442 c 1
 174 464 148 460 124 460 c 8
 106.77 460 99.5 458.34 80 456 c 1
EndSplineSet
EndChar
StartChar: Lslash
Encoding: 321 321 116
Width: 708
VWidth: 1080
Flags: W
VStem: 192 136.095<74 199.112 233 432> 200 128.095<377.969 432.823 480 576.921>
Fore
327.442 501.04 m 1
 339.7 520.076 347.307 535.218 375.812 566.375 c 1
 373 578.188 350.656 568.469 346.562 580.438 c 24
 343.859 588.328 348.812 595.625 356.125 599.562 c 1
 434.875 599.562 396.625 610.812 461.875 588.312 c 1
 468.625 579.312 465.984 566.984 457.375 559.625 c 24
 448.703 552.203 438.812 564.688 428.125 559.625 c 1
 362.724 489.799 363.954 480.154 328.095 432.986 c 1
 328.796 293.262 324.304 279.65 329 48 c 1
 434 48 449 40 558 88 c 1
 560 151 538 171 549 228 c 8
 557 267 611 238 651 245 c 17
 674 128 674 128 660 0 c 9
 660 0 624 11 600 14 c 1
 350 0 328 -14 41 14 c 1
 18 39 21 37 49 85 c 1
 115 88 126 54 192 74 c 1
 191.335 123.186 191.652 163.537 192.484 199.151 c 0
 191.666 198.224 190.895 197.259 190.188 196.25 c 1
 132.25 196.25 126.062 188.375 69.8125 196.25 c 9
 60.5938 207.656 45.4062 210.859 46.1875 225.5 c 24
 46.875 238.516 57.7812 244.141 69.8125 249.125 c 24
 85.4219 255.594 102.344 236.125 113.125 249.125 c 16
 198.583 352.387 l 1
 200.986 411.144 202.517 476.737 200 577 c 1
 184 619 159 637 105 663 c 1
 97 688 94 713 114 731 c 1
 350 742 154 742 418 731 c 1
 444 710 454 674 435 646 c 24
 418 620 384 645 358 629 c 24
 341 617 331 605 326 586 c 1
 326.638 553.871 327.107 525.839 327.442 501.04 c 1
194.388 257.889 m 1
 191.68 251.372 182.7 244.45 186.812 236.75 c 0
 188.226 234.1 190.634 233.178 193.458 233.016 c 1
 193.746 241.508 194.059 249.776 194.388 257.889 c 1
EndSplineSet
EndChar
StartChar: lslash
Encoding: 322 322 117
Width: 281
VWidth: 1000
Flags: W
VStem: 100.616 114.384<88 485 392 536 392 716>
Fore
100.426 392.523 m 1
 100 618 l 1
 62 619 38 613 15 647 c 9
 21 686 l 17
 29 710 42 717 65 731 c 1
 109 752 156 737 215 716 c 1
 215 556.155 l 1
 253.494 557.077 234.715 562.441 275.328 548.438 c 1
 279.875 542.359 278.094 534.031 272.281 529.062 c 24
 266.438 524.062 259.766 532.484 252.547 529.062 c 1
 233.579 508.815 222.914 496.064 215 485.581 c 1
 215 89 l 1
 232 79 248 77 265 49 c 1
 275 36 268 23 265 9 c 9
 39 4 l 17
 25 23 29 42 33 61 c 1
 56 83 78 83 101 89 c 1
 100.616 292.138 l 1
 97.5561 289.668 94.2446 287.08 91.9375 283.781 c 1
 52.8281 283.781 48.6562 278.469 10.6875 283.781 c 9
 4.46875 291.484 -5.78125 293.641 -5.26562 303.531 c 24
 -4.79688 312.312 2.5625 316.109 10.6875 319.484 c 24
 21.2188 323.844 32.6406 310.703 39.9219 319.484 c 16
 100.426 392.523 l 1
100.584 309.192 m 1
 100.537 334.054 l 1
 94.9688 325.938 l 1
 93.4531 321.375 86.7656 316.531 89.6562 311.125 c 16
 91.6086 307.468 96.3582 308.685 100.584 309.192 c 1
215 536.731 m 1
 215 531.162 l 1
 217.234 533.625 l 1
 216.883 535.093 216.085 536.067 215 536.731 c 1
EndSplineSet
EndChar
StartChar: napostrophe
Encoding: 329 329 124
Width: 470
VWidth: 1000
Flags: W
VStem: 51 106<119 331>
Fore
67.75 600.25 m 1
 42.4375 615.438 31.3359 605.615 18.25 622.188 c 24
 7.05078 636.371 6.17871 650.048 9.8125 667.75 c 24
 14.1064 688.67 19.8359 706.842 40.1875 713.312 c 24
 66.3945 721.644 87.3242 708.186 106 688 c 24
 127.919 664.309 131.575 640.903 129.625 608.688 c 24
 128.063 582.896 121.846 565.812 103.188 547.938 c 24
 78.0645 523.868 84.625 517.562 19.9375 515.875 c 1
 8.45117 527.413 71.125 538.938 67.75 600.25 c 1
EndSplineSet
Ref: 110 110 N 1 0 0 1 0 0
EndChar
StartChar: Eng
Encoding: 330 330 125
Width: 793
VWidth: 1080
Flags: W
VStem: 134 65<114 657>
Fore
649 688 m 1
 631 250 l 1
 464 478 472 458 250 726 c 1
 176 746 139 754 60 734 c 1
 37 723 11.5529 706.824 20 683 c 24
 35.2393 640.02 117 680 134 657 c 1
 134 364 125 338 134 102 c 1
 119 83 52.6733 118.826 28 85 c 24
 14.2832 66.1953 33.4902 49.0098 37 26 c 17
 162 23 145 31 242 34 c 9
 245.12 57.4004 261.98 73.6582 250 94 c 24
 239.158 112.409 216 82 199 114 c 1
 196 316 228 313 202 583 c 1
 415 299 404 344 609 88 c 5
 614.068 81.1214 629.877 41.9658 639 0 c 4
 654 -69 465 -93 384 -138 c 4
 354.128 -154.596 341.848 -206.805 423 -192 c 4
 471.891 -183.08 609 -162 648 -102 c 5
 729 -24 698.499 88.3239 703 97 c 5
 717 361 694 370 708 680 c 1
 808 686 750.967 669.785 768 686 c 24
 785.138 702.314 800.571 743.938 777 746 c 16
 617 760 717 759 552 748 c 1
 563 727 534 705 552 688 c 9
 552 688 569 686 649 688 c 1
EndSplineSet
EndChar
StartChar: eng
Encoding: 331 331 126
Width: 443
VWidth: 1000
Flags: W
VStem: 52 105<119 331>
Fore
408 0 m 0
 407.922 -41.6562 393.281 -100.516 345 -147 c 1
 306 -207 168.891 -228.078 120 -237 c 0
 38.8438 -251.812 51.125 -199.594 81 -183 c 0
 162 -138 351 -114 336 -45 c 0
 332.031 -26.7656 326.812 -9.0625 321.75 5.70312 c 1
 309.484 6.3125 293.781 6.79688 273 7 c 1
 265 11 260.078 18.2812 256 28 c 24
 248.094 46.8281 241.766 61.3125 250 80 c 24
 260.484 103.766 293 97 304 119 c 1
 301 275 303 215 304 332 c 1
 302 346 301.312 355.453 292 366 c 24
 281.031 378.422 270.484 383.297 254 385 c 24
 231.141 387.375 216.938 381.453 197 370 c 24
 177.875 359.016 166 350 157 330 c 1
 155 260 157 229 157 119 c 1
 164 108 178.484 110.5 186 99 c 24
 198.391 80.0469 203.469 63.7031 197 42 c 24
 191.875 24.8125 192 16 165 9 c 1
 94 8 86 9 38 9 c 1
 25 13 16.5781 16.0625 9 27 c 24
 -1.20312 41.7031 -5.60938 55 0 72 c 24
 8.57812 97.9531 40 96 52 119 c 1
 51 218 53 169 51 385 c 1
 39 405 3 391 0 413 c 1
 51 459 27 434 97 504 c 1
 120 503 123.547 497.297 137 487 c 24
 148.031 478.562 145.75 463.172 159 459 c 24
 188.531 449.688 205.359 473.031 235 482 c 24
 251.766 487.078 260.5 495.641 278 495 c 24
 303.047 494.094 315.203 482.406 338 472 c 24
 356.094 463.75 371.672 464.359 383 448 c 24
 405.172 415.984 404 368 396 349 c 1
 402 233 406 74 408 0 c 0
EndSplineSet
EndChar
StartChar: OE
Encoding: 338 338 131
Width: 945
VWidth: 1080
Flags: W
Fore
443.942 740.977 m 0
 812.457 738.1 710.429 756.923 872 728 c 1
 877 609 872.219 640.391 891 589 c 24
 897.5 571.219 922 561 917 548 c 1
 846 525 849 532 764 538 c 1
 750 555 790 550 781 592 c 0
 769 643 775 614 752 644 c 1
 694 654 653 653 590 642 c 1
 573 639 558 647 547 634 c 1
 545 543 545 509 547 395 c 1
 604 384 621 375 675 387 c 1
 713 413 671.469 474 710 498 c 24
 729.75 510.312 753 507 769 489 c 1
 772 159 770 401 773 199 c 1
 728 179 719 185 701 208 c 1
 690 265 723.734 257.5 710 284 c 24
 700.203 302.906 682.328 303.688 662 310 c 24
 630.156 319.875 609.328 327.156 577 319 c 24
 559.594 314.609 549 312 539 293 c 1
 522 208 522 182 522 97 c 1
 529 81 540 75 556 69 c 1
 650 48 710 57 803 61 c 1
 857 89 829 117 889 191 c 1
 917 159 912.984 147.438 914 117 c 24
 915.578 69.8281 920 29 883 0 c 1
 435.483 0 l 1
 399.185 -16.2305 339.336 -7.77267 265 24 c 1
 163 82 65.3906 136.062 47 260 c 16
 28 388 30.2812 481.562 108 584 c 24
 192.656 695.578 290.469 755.125 430 743 c 16
 434.546 742.605 439.262 741.939 443.942 740.977 c 0
402.614 88.7589 m 1
 420.075 266.403 430.58 356.959 422 642 c 0
 421.641 653.876 419.764 666.428 418.368 678.522 c 1
 415.459 677.619 412.653 676.471 410 675 c 8
 338.141 635.156 289.109 613.312 245 544 c 24
 208.844 487.172 208.281 443.266 205 376 c 24
 201.516 304.438 195.094 256.578 230 194 c 24
 259.547 141.016 295.625 121.922 350 95 c 16
 364.971 87.588 383.992 87.5012 402.614 88.7589 c 1
EndSplineSet
EndChar
StartChar: oe
Encoding: 339 339 132
Width: 568
VWidth: 1000
Flags: W
Fore
317.46 337 m 0
 324.46 328 437.46 333 438.46 343 c 0
 439.46 367 449.46 391 428.46 406 c 8
 404.46 423 378.46 412 354.46 396 c 24
 331.46 381 306.46 352 317.46 337 c 0
300.933 3.68066 m 24
 276.577 2.85645 262.235 5.1543 238.46 5 c 8
 213.085 4.84375 197.929 1.26562 173.46 8 c 24
 142.335 16.5625 124.022 24.9375 100.46 47 c 24
 65.9443 79.3281 46.46 106 36.46 150 c 0
 22.46 207 23.0693 245.609 39.46 303 c 24
 55.8037 360.172 70.71 397.25 117.46 434 c 24
 163.335 470.062 202.163 475.625 260.46 478 c 16
 290.66 479.232 297.997 476.312 322.01 475.681 c 24
 366.245 474.521 392.675 482.632 435.46 474 c 8
 472.226 466.578 501.46 466 520.46 429 c 0
 547.46 374 546.085 351.719 529.46 307 c 24
 524.085 292.531 516.819 280.531 501.46 279 c 16
 491.46 278 307.46 264 300.46 269 c 0
 297.46 245 297.46 220 302.46 190 c 8
 308.741 152.297 314.491 125.938 343.46 101 c 24
 362.538 84.5781 380.397 85.3594 405.46 83 c 24
 430.038 80.6875 448.226 74.8594 468.46 89 c 24
 484.038 99.8906 483.444 114.969 489.46 133 c 16
 499.46 163 542.46 147 541.46 121 c 0
 537.46 64 539.772 71.7969 524.46 46 c 24
 513.319 27.2344 502.647 17.3125 482.46 9 c 24
 457.897 -1.10938 441.022 5.17188 414.46 5 c 24
 389.085 4.84375 374.772 6.29688 349.46 8 c 16
 331.804 9.18945 319.922 4.32324 300.933 3.68066 c 24
260.482 406.414 m 1
 258.449 407.18 264.437 407.727 262.46 408 c 8
 231.466 412.295 209.79 410.906 183.46 394 c 24
 161.521 379.913 154.783 363.348 145.46 339 c 24
 124.511 284.294 117.487 247.89 126.46 190 c 24
 132.848 148.789 141.413 121.918 171.46 93 c 24
 188.212 76.8779 203.397 72.9453 226.46 70 c 16
 231.782 69.3203 236.845 69.9629 241.708 71.2158 c 1
 241.608 107.151 255.821 146.011 249.46 174 c 0
 235.46 231 243.324 268.021 252.46 327 c 16
 256.95 355.986 255.931 382.605 260.482 406.414 c 1
EndSplineSet
EndChar
StartChar: Tbar
Encoding: 358 358 149
Width: 853
VWidth: 1080
Flags: W
HStem: 374.539 93.332<280 345> 377.113 98.941<482 550>
VStem: 327 165<97 152.552>
Fore
337.618 374.539 m 1
 259.98 373.97 191.701 378.108 142 403.344 c 8
 113.062 418.047 121.469 436.016 154 449.656 c 16
 206.098 471.511 271.188 466.49 345.747 467.871 c 1
 350.068 526.883 352.057 588.895 347 668 c 1
 287 671 270 680 185 677 c 1
 106 630 165 580 82 464 c 1
 54 443 36 487 25 521 c 1
 59 671 33 603 67 717 c 1
 86 737 102 733 125 737 c 24
 244 755 313 728 432 728 c 24
 546 728 612 761 722 737 c 24
 737 734 746 730 757 720 c 1
 812 662 762 720 842 532 c 1
 835 504 810 483 782 489 c 1
 700 603 737 655 663 687 c 1
 603 673 552 667 475 662 c 1
 475 596.639 476.423 535.445 478.459 476.054 c 1
 500.176 477.202 522.564 477.535 550 476.125 c 8
 605.094 473.297 649.109 472.75 682 456.266 c 24
 715.328 439.562 725.562 420.5 694 403.344 c 16
 644.727 376.57 568.612 377.803 482.334 377.113 c 1
 486.221 285.65 490.495 195.354 492 97 c 8
 492 69 545 102 560 80 c 24
 578 54 576 20 552 0 c 1
 430 0 370 0 216 28 c 1
 199 45 194 69 208 88 c 24
 236 126 281 99 327 105 c 17
 324.315 219.557 330.841 300.472 337.618 374.539 c 1
EndSplineSet
EndChar
StartChar: tbar
Encoding: 359 359 150
Width: 316
VWidth: 1080
Flags: W
VStem: 64.3027 87.6973<205 356>
Fore
151.904 209.297 m 1
 173.22 211.682 189.237 214.052 213.703 212.25 c 12
 239.859 210.328 260.781 209.969 276.406 198.75 c 28
 292.234 187.391 297.094 174.422 282.094 162.75 c 28
 256.688 142.969 216.266 145.656 170.953 144.75 c 20
 164.94 144.63 158.978 144.457 153.08 144.269 c 1
 157.441 110.36 153.729 80.5703 192 69 c 1
 214 70 243 91 260 87 c 0
 282 82 269 61 257 42 c 0
 251 32 243 28 226 13 c 1
 194 2 173 2 140 8 c 1
 107 13 82 35 64 64 c 1
 64.3312 96.4571 64.443 121.236 64.4444 145.856 c 1
 47.5364 148.542 32.4701 153.613 19.9062 162.75 c 12
 6.15625 172.75 10.1562 184.969 25.5938 194.25 c 20
 37.2003 201.219 50.1601 204.17 64.3027 205.435 c 1
 64.1726 241.537 64 286.443 64 355 c 1
 47 366 29 373 19 394 c 1
 14 405 22 424 26 434 c 1
 124 539 62 466 122 536 c 1
 140 539 146 536 155 521 c 1
 171 496 160 487 162 451 c 1
 236 457 242 451 283 448 c 1
 303 427 302 395 283 374 c 1
 221 372 231 375 174 373 c 1
 165 370 157 365 152 357 c 1
 153.475 272.937 152.775 249.23 151.904 209.297 c 1
EndSplineSet
EndChar
StartChar: longs
Encoding: 383 383 30
Width: 324
VWidth: 1080
Flags: W
VStem: 91 97<90 323 463 567>
Fore
46 0 m 8
 29 0 19 16 17 32 c 24
 14 52 24 67 40 79 c 24
 56 91 75 73 91 86 c 1
 93 246 91 83 90 322 c 1
 77 346 42 335 28 358 c 1
 17 378 11 397 23 415 c 1
 38 439 68 420 85 442 c 1
 94 484 85 482 91 567 c 1
 107 618 126 655 165 700 c 24
 189 727 206 743 241 755 c 24
 266 763 283 761 309 756 c 24
 345 748 371 743 394 715 c 24
 415 690 421 667 417 635 c 24
 415 618 411 602 394 595 c 24
 368 585 348 601 326 618 c 16
 300 639 284 665 252 658 c 24
 210 648 201 608 188 567 c 1
 186 400 191 327 188 90 c 1
 197 69 223 79 233 60 c 24
 241 46 241 33 233 19 c 24
 227 7 218 0 205 0 c 16
 118 0 135 0 46 0 c 8
EndSplineSet
EndChar
StartChar: uni0180
Encoding: 384 384 31
Width: 508
VWidth: 1000
Flags: W
VStem: 68.3836 83.8434<252 537 597 641.899>
Fore
251 425 m 24
 217 418 197 402 178 372 c 24
 148 322 153 282 155 224 c 24
 158 171 163 139 190 93 c 24
 203 69 213 52 239 44 c 24
 259 37 275 40 294 50 c 24
 341 76 361 106 384 155 c 24
 401 190 408 216 402 255 c 24
 395 308 375 337 341 378 c 24
 327 396 317 404 297 413 c 24
 280 421 269 428 251 425 c 24
152.163 601.214 m 1
 173.851 603.627 189.954 606.073 214.703 604.25 c 12
 240.859 602.328 261.781 601.969 277.406 590.75 c 28
 293.234 579.391 298.094 566.422 283.094 554.75 c 28
 257.688 534.969 217.266 537.656 171.953 536.75 c 20
 165.309 536.618 158.728 536.42 152.227 536.209 c 1
 152.053 508.839 151.625 483.859 151 462 c 1
 155 435 192 468 218 473 c 24
 247 479 263 487 292 490 c 24
 318 493 335 501 359 490 c 24
 412 466 430 430 456 378 c 24
 483 324 487 287 488 227 c 24
 489 190 487 168 474 134 c 24
 464 105 453 90 433 66 c 24
 411 40 402 12 368 8 c 16
 265 -5 108 -13 74 27 c 1
 68.74 116.42 66.8678 374.671 68.3836 537.416 c 1
 50.2799 539.972 34.1936 545.086 20.9062 554.75 c 12
 7.15625 564.75 11.1562 576.969 26.5938 586.25 c 20
 39.2551 593.852 53.527 596.673 69.1878 597.74 c 1
 69.6629 623.48 70.2671 644.221 71 658 c 1
 56 681 -3 666 9 689 c 1
 29 728 52 751 105 788 c 1
 125 801 139 766 149 744 c 1
 150.818 694.001 151.81 645.654 152.163 601.214 c 1
EndSplineSet
EndChar
StartChar: uni0181
Encoding: 385 385 32
Width: 631
VWidth: 1080
Flags: HW
Fore
313 424 m 25
475 210 m 24
 478 270 446 327 387 334 c 16
 338 339 279 360 276 317 c 16
 270 237 265 210 267 145 c 8
 269 100 316 71 361 77 c 24
 429 85 472 142 475 210 c 24
301 666 m 1
 290 552 290 518 301 430 c 1
 336 400 370 430 410 448 c 24
 436 460 454 469 466 496 c 24
 485 535 485 568 466 607 c 24
 450 640 427 653 393 666 c 24
 359 677 347 680 301 666 c 1
56 584 m 1
 0 602 -0.922197 725.791 57 734 c 16
 184 752 203.447 753.481 296 742 c 24
 402.326 728.811 480.005 737.274 560 666 c 24
 592.501 637.042 599.827 606.414 603 563 c 24
 605.992 522.057 601.929 493.616 577 461 c 24
 539.987 412.574 543 421 441 384 c 1
 509 336 541.3 356.401 577 307 c 24
 607.508 264.783 608.3 227.816 603 176 c 24
 596.883 116.191 590.953 70.2625 543 34 c 24
 457.422 -30.7148 377.087 6.64276 270 0 c 24
 176.969 -5.77051 162 -17 31 0 c 1
 7 29 20 70 48 94 c 1
 94 111 130 62 159 94 c 1
 162 205 142 273 142 273 c 17
 151 413 168 663 168 663 c 1
 146.778 685.548 136.112 672.032 108 665.327 c 0
 93.7226 661.922 116 602 56 584 c 1
EndSplineSet
EndChar
StartChar: uni0182
Encoding: 386 386 33
Width: 631
VWidth: 1080
Flags: HW
Fore
313 424 m 25
475 210 m 24
 478 270 446 327 387 334 c 16
 338 339 279 360 276 317 c 16
 270 237 265 210 267 145 c 8
 269 100 316 71 361 77 c 24
 429 85 472 142 475 210 c 24
502 607 m 16
 498 640 439.858 654.132 393 666 c 24
 358.219 674.81 347 680 301 666 c 1
 290 552 290 518 301 430 c 1
 336 400 379.969 406.393 432 404 c 16
 519 400 532.019 413.886 570 374 c 24
 623.985 317.307 612.163 253.747 603 176 c 24
 595.963 116.293 590.953 70.2625 543 34 c 24
 457.422 -30.7148 377.087 6.64276 270 0 c 24
 176.969 -5.77051 162 -17 31 0 c 1
 7 29 20 70 48 94 c 1
 94 111 130 62 159 94 c 1
 162 205 142 273 142 273 c 17
 151 413 168 663 168 663 c 9
 168 663 128 649 48 666 c 1
 31 686 37 716 57 734 c 1
 154 759 203.969 757.103 296 742 c 24
 420.951 721.495 609.341 754.277 600 628 c 24
 597.116 589.019 506.703 568.196 502 607 c 16
EndSplineSet
EndChar
StartChar: uni0183
Encoding: 387 387 34
Width: 508
VWidth: 1000
Flags: HW
Fore
251 425 m 24
 217 418 197 402 178 372 c 24
 148 322 153 282 155 224 c 24
 158 171 163 139 190 93 c 24
 203 69 213 52 239 44 c 24
 259 37 275 40 294 50 c 24
 341 76 361 106 384 155 c 24
 401 190 408 216 402 255 c 24
 395 308 375 337 341 378 c 24
 327 396 317 404 297 413 c 24
 280 421 269 428 251 425 c 24
105 754 m 1
 114.701 760.305 419.989 749.318 427.096 740 c 0
 434.64 730.106 480 581 410 569 c 4
 383.627 564.479 412.621 701.897 386 692.854 c 0
 296.096 662.316 150.569 699.805 150.954 685 c 0
 152.918 609.39 152.595 517.831 151 462 c 1
 155 435 192.018 467.888 218 473 c 24
 247.055 478.717 262.577 486.664 292 490 c 24
 317.964 492.944 335.233 500.858 359 490 c 24
 411.56 465.989 430.28 429.745 456 378 c 24
 482.794 324.094 486.212 287.171 488 227 c 24
 489.09 190.338 486.439 168.505 474 134 c 24
 463.498 104.867 452.77 89.8359 433 66 c 24
 411.311 39.8496 401.707 12.2539 368 8 c 16
 265 -5 108 -13 74 27 c 1
 67 146 66 530 71 624 c 1
 56 647 -3 632 9 655 c 1
 29 694 52 717 105 754 c 1
EndSplineSet
EndChar
StartChar: uni01C1
Encoding: 449 449 32
Width: 493
Flags: W
VStem: 99 99<288 704.23> 105 93<175.556 303> 267 117<192 417>
Fore
294 -231 m 1
 267 -111 290.673 -22.3056 285 111 c 24
 279.917 230.438 268.737 297.467 267 417 c 24
 265.282 535.21 267 576 276 720 c 1
 307.497 748.184 355.381 742.103 384 711 c 1
 411 492 384 394.41 384 192 c 24
 384 72.6602 388.96 5.23732 384 -114 c 24
 382.243 -156.229 387 -171 375 -222 c 1
 352.836 -244.782 317.684 -252.197 294 -231 c 1
117 -234 m 1
 139.577 -256.095 175.663 -256.338 198 -234 c 1
 213 81 198 84.4199 198 288 c 24
 198 416.7 198 489.3 198 618 c 24
 198 660.12 227.783 696.217 198 726 c 1
 170.698 753.302 126.116 753.485 99 726 c 1
 96 516 101.987 467.959 105 303 c 24
 108.825 93.5527 105 18 117 -234 c 1
EndSplineSet
EndChar
StartChar: uni01C2
Encoding: 450 450 33
Width: 336
VWidth: 1080
Flags: HW
Fore
113.835 182.851 m 1
 80.6652 183.786 51.5543 191.75 29.6562 222 c 12
 15.1875 242 19.3906 266.438 35.6562 285 c 20
 56.7994 309.13 82.2238 309.18 110.984 309.347 c 1
 110.431 329.716 109.86 351.09 109.32 375.025 c 1
 78.0233 376.559 50.555 385.131 29.6562 414 c 12
 15.1875 434 19.3906 458.438 35.6562 477 c 20
 55.882 500.083 80.0272 501.13 107.261 501.324 c 1
 106.709 553.538 106.359 616.67 106.359 696 c 5
 92.3594 722 145.844 725.266 168.359 714 c 20
 206.08 695.14 215.501 605.041 217.753 514.257 c 1
 222.724 514.185 227.975 513.796 233.656 513 c 12
 261.203 509.156 283.219 508.422 299.656 486 c 28
 316.328 463.281 321.438 437.344 305.656 414 c 20
 284.598 382.849 253.728 379.561 218.248 378.683 c 1
 218.069 359.357 217.691 340.574 217.259 322.263 c 1
 222.378 322.21 227.785 321.822 233.656 321 c 12
 261.203 317.156 283.219 316.422 299.656 294 c 28
 316.328 271.281 321.438 245.344 305.656 222 c 20
 284.01 189.98 251.998 187.399 215.267 186.615 c 1
 216.052 135.303 219.95 86.8296 231.359 39 c 12
 241.984 -5.54688 103.359 23 114.359 49 c 5
 114.57 103.649 114.336 146.099 113.835 182.851 c 1
EndSplineSet
EndChar
StartChar: uni01E4
Encoding: 484 484 57
Width: 896
VWidth: 1080
Flags: HW
Fore
711.319 162.964 m 2
 711.319 162.941 l 2
 711.334 143.86 709.301 128.452 703 119 c 0
 631 17 500 7 358 0 c 24
 300 -3 264 7 213 34 c 24
 137 75 95 113 51 188 c 24
 17 247 4 290 9 358 c 24
 15 455 45 511 102 589 c 24
 156 661 199 698 282 734 c 24
 335 757 371 753 430 754 c 24
 489 755 525 755 582 738 c 24
 636 721 657 705 709 669 c 1
 737 583 724 554 685 474 c 1
 639 505 664 544 633 576 c 24
 578 634 534 666 455 677 c 24
 387 686 338 677 284 634 c 24
 205 572 175 505 165 404 c 24
 156 318 170 258 225 191 c 24
 274 129 326 107 404 97 c 24
 472 88 526 94 575 137 c 1
 575.15 147.62 575.304 157.128 575.459 165.654 c 1
 528.134 167.049 467.037 169.462 378.969 174.078 c 1
 359.031 161.109 359.422 214.641 368.922 236.688 c 16
 388.924 283.126 489.749 280.54 570.071 276.289 c 1
 569 282 l 8
 560 328 484 293 458 333 c 24
 453 341 451 351 458 358 c 1
 782 378 475 361 748 375 c 1
 762 361 758 339 745 324 c 24
 735 312 707 332 705 316 c 16
 703.953 299.881 704.134 283.192 704.89 266.603 c 1
 764.456 261.707 817.836 259.343 871.031 273.469 c 8
 904.5 282.359 876.156 145.031 857.516 157.016 c 1
 791.892 160.799 750.023 162.182 711.319 162.964 c 2
EndSplineSet
EndChar
StartChar: uni01E5
Encoding: 485 485 58
Width: 515
VWidth: 1000
Flags: HW
Fore
290 -9 m 24
 251 3 222 -11 188 -33 c 24
 157 -53 127 -70 129 -106 c 24
 131 -143 163 -158 197 -173 c 24
 232 -187 257 -183 293 -174 c 24
 322 -168 347 -167 362 -140 c 24
 374 -119 367 -100 357 -78 c 24
 341 -44 326 -19 290 -9 c 24
233 429 m 24
 204 435 185 417 164 396 c 24
 141 374 131 354 129 322 c 24
 127 290 135 270 154 244 c 24
 172 218 188 192 220 196 c 24
 259 201 271 237 283 274 c 24
 295 308 294 332 283 366 c 24
 272 395 263 421 233 429 c 24
111.645 130.87 m 1
 113.995 133.649 116.454 136.671 119 140 c 1
 123 159 113 169 104 186 c 24
 85 225 51 235 40 277 c 24
 33 301 40 316 46 339 c 24
 55 381 88 399 85 442 c 24
 84 465 49 466 57 493 c 1
 83 497 97 472 125 472 c 24
 167 472 186 500 228 504 c 24
 248 506 259 504 279 499 c 24
 317 489 333 462 372 461 c 24
 405 460 419 487 452 490 c 24
 470 492 495 501 497 484 c 16
 501 451 505 424 489 391 c 24
 481 374 474 359 455 357 c 24
 424 352 422 388 386 395 c 1
 376 356 400 337 399 300 c 24
 398 265 402 239 381 211 c 24
 348 168 305 173 257 147 c 16
 239.858 137.6 219.352 135.232 203.43 129.076 c 1
 209.188 128.922 l 12
 313.859 126.188 396.203 117.516 478.109 128.391 c 12
 511.594 132.828 483.234 64.1562 464.594 70.1562 c 5
 332.457 73.9652 296.637 72.8637 189.043 74.385 c 1
 195.472 68.8715 203.838 64.6274 212 61 c 8
 263 37 301 72 355 60 c 24
 399 50 431 44 461 9 c 24
 483 -16 488 -40 487 -74 c 24
 486 -105 478 -124 459 -148 c 24
 419 -198 383 -215 324 -241 c 24
 276 -262 246 -267 193 -269 c 24
 160 -271 138 -273 108 -258 c 24
 83 -245 73 -230 57 -207 c 24
 31 -169 3 -143 11 -99 c 24
 17 -71 40 -64 63 -47 c 24
 90 -27 137 -41 139 -8 c 24
 140 8 118 5 106 15 c 24
 85 33 58 39 57 66 c 1
 59.1871 69.9575 61.3093 73.5246 63.3854 76.778 c 1
 40.1273 77.3131 14.5013 77.943 -13.9375 78.6875 c 5
 -33.8906 72.2031 -33.5 98.9688 -24 110 c 20
 -9.23808 127.131 49.5649 130.918 111.645 130.87 c 1
EndSplineSet
EndChar
StartChar: uni0203
Encoding: 515 515 80
Width: 417
Flags: H
Fore
284.25 521.5 m 28
 253.82 530.303 257.831 567.329 229.5 581.5 c 28
 213.205 589.65 201.073 588.304 183 586 c 28
 163.54 583.52 150.194 582.024 135.75 568.75 c 28
 112.722 547.586 131.282 506.992 102 496 c 28
 75.0303 485.876 24 483.25 34.5 526 c 4
 42 559 56.6133 579.001 82.5 603.25 c 28
 100.168 619.8 113.907 626.08 137.25 632.5 c 28
 155.602 637.547 166.968 634.87 186 634.75 c 28
 205.924 634.624 217.936 637.541 237 631.75 c 28
 257.448 625.539 269.465 619.431 284.25 604 c 28
 306.248 581.041 335.095 561.195 322.5 532 c 28
 316.372 517.796 299.109 517.201 284.25 521.5 c 28
EndSplineSet
Ref: 97 97 N 1 0 0 1 0 0
EndChar
StartChar: uni0207
Encoding: 519 519 84
Width: 364
Flags: H
Fore
296.323 505.962 m 28
 265.894 514.765 269.904 551.791 241.573 565.962 c 28
 225.278 574.112 213.146 572.766 195.073 570.462 c 28
 175.613 567.981 162.268 566.486 147.823 553.212 c 28
 124.795 532.048 143.355 491.454 114.073 480.462 c 28
 87.1035 470.338 36.0732 467.712 46.5732 510.462 c 4
 54.0732 543.462 68.6865 563.463 94.5732 587.712 c 28
 112.241 604.262 125.98 610.542 149.323 616.962 c 28
 167.675 622.009 179.041 619.332 198.073 619.212 c 28
 217.997 619.086 230.009 622.002 249.073 616.212 c 28
 269.521 610.001 281.538 603.893 296.323 588.462 c 28
 318.321 565.504 347.168 545.658 334.573 516.462 c 28
 328.445 502.258 311.183 501.663 296.323 505.962 c 28
EndSplineSet
Ref: 101 101 N 1 0 0 1 0 0
EndChar
StartChar: uni0209
Encoding: 521 521 86
Width: 250
Flags: H
Fore
-42.6982 676.263 m 5
 -11.3486 691.938 10.0264 703.338 37.1025 687.662 c 5
 69.8779 639.213 69.3018 618.275 85.5508 572.237 c 20
 94.2012 547.731 101.338 524.307 107.57 501.7 c 4
 111.313 488.122 37.4268 486.247 29.9775 497.425 c 4
 18.5771 514.525 -12.0615 659.874 -42.6982 676.263 c 5
107.302 676.263 m 5
 138.651 691.938 160.026 703.338 187.103 687.662 c 5
 219.878 639.213 219.302 618.275 235.551 572.237 c 20
 244.201 547.731 251.338 524.307 257.57 501.7 c 4
 261.313 488.122 187.427 486.247 179.978 497.425 c 4
 168.577 514.525 137.939 659.874 107.302 676.263 c 5
EndSplineSet
Ref: 305 305 N 1 0 0 1 0 0
EndChar
StartChar: uni020B
Encoding: 523 523 88
Width: 250
Flags: H
Fore
222.369 484.962 m 28
 191.939 493.765 195.951 530.791 167.619 544.962 c 28
 151.324 553.112 139.192 551.766 121.119 549.462 c 28
 101.659 546.981 88.3135 545.486 73.8691 532.212 c 28
 50.8398 511.048 69.4014 470.454 40.1191 459.462 c 28
 13.1494 449.338 -37.8809 446.712 -27.3809 489.462 c 4
 -19.8809 522.462 -5.26758 542.463 20.6191 566.712 c 28
 38.2871 583.262 52.0273 589.542 75.3691 595.962 c 28
 93.7207 601.009 105.086 598.332 124.119 598.212 c 28
 144.043 598.086 156.055 601.002 175.119 595.212 c 28
 195.566 589.001 207.584 582.893 222.369 567.462 c 28
 244.367 544.504 273.214 524.658 260.619 495.462 c 28
 254.492 481.258 237.229 480.663 222.369 484.962 c 28
EndSplineSet
Ref: 305 305 N 1 0 0 1 0 0
EndChar
StartChar: uni02BE
Encoding: 702 702 94
Width: 242
VWidth: 1000
Flags: HW
Fore
34.8232 5 m 5
 60.8232 5 76.8232 2 102.823 9 c 28
 129.823 18 145.823 25 165.823 46 c 28
 194.823 76 203.823 101 216.823 142 c 28
 229.823 187 229.823 215 227.823 262 c 28
 225.823 305 224.823 331 206.823 370 c 28
 192.823 401 177.823 416 153.823 440 c 20
 117.823 476 97.8232 476 56.8232 478 c 5
 36.8232 441 28.8232 415 58.8232 408 c 5
 81.8232 403 92.8232 392 107.823 374 c 28
 132.823 342 140.823 318 146.823 278 c 28
 154.823 222 151.823 186 131.823 133 c 28
 122.823 107 116.823 89 92.8232 76 c 28
 71.8232 63 54.8232 67 30.8232 70 c 5
 4.82324 74 8.82324 4 34.8232 5 c 5
EndSplineSet
EndChar
StartChar: uni02BF
Encoding: 703 703 95
Width: 242
VWidth: 1000
Flags: HW
Fore
207.177 478 m 1
 181.177 478 165.177 481 139.177 474 c 24
 112.177 465 96.1768 458 76.1768 437 c 24
 47.1768 407 38.1768 382 25.1768 341 c 24
 12.1768 296 12.1768 268 14.1768 221 c 24
 16.1768 178 17.1768 152 35.1768 113 c 24
 49.1768 82 64.1768 67 88.1768 43 c 16
 124.177 7 144.177 7 185.177 5 c 1
 205.177 42 213.177 68 183.177 75 c 1
 160.177 80 149.177 91 134.177 109 c 24
 109.177 141 101.177 165 95.1768 205 c 24
 87.1768 261 90.1768 297 110.177 350 c 24
 119.177 376 125.177 394 149.177 407 c 24
 170.177 420 187.177 416 211.177 413 c 1
 237.177 409 233.177 479 207.177 478 c 1
EndSplineSet
EndChar
StartChar: circumflex
Encoding: 710 710 96
Width: 346
VWidth: 1080
Flags: HW
Fore
134.297 453.225 m 0
 139.047 484.575 145.697 520.675 161.848 566.275 c 1
 202.697 544.425 207.447 467.475 222.647 444.675 c 0
 232.582 429.771 331.096 432.271 326.104 450.375 c 0
 317.796 480.516 308.28 511.75 296.747 544.425 c 8
 275.083 605.809 275.848 633.725 232.147 698.325 c 1
 196.047 719.225 167.547 704.025 125.747 683.125 c 1
 64.9248 565.204 46.6768 527.924 19.877 456.075 c 0
 14.7275 442.267 131.422 434.246 134.297 453.225 c 0
EndSplineSet
EndChar
StartChar: caron
Encoding: 711 711 33
Width: 346
VWidth: 1080
Flags: W
Fore
134.297 689.775 m 4
 139.047 658.425 145.697 622.325 161.848 576.725 c 5
 202.697 598.575 207.447 675.525 222.647 698.325 c 4
 232.582 713.229 331.096 710.729 326.104 692.625 c 4
 317.796 662.484 308.28 631.25 296.747 598.575 c 12
 275.083 537.191 275.848 509.275 232.147 444.675 c 5
 196.047 423.775 167.547 438.975 125.747 459.875 c 5
 64.9248 577.796 46.6768 615.076 19.877 686.925 c 4
 14.7275 700.733 131.422 708.754 134.297 689.775 c 4
EndSplineSet
EndChar
StartChar: breve
Encoding: 728 728 34
Width: 432
VWidth: 1000
Flags: W
Fore
357 238 m 28
 316.427 226.263 321.775 176.895 284 158 c 28
 262.273 147.133 246.098 148.929 222 152 c 28
 196.054 155.308 178.259 157.301 159 175 c 28
 128.295 203.219 153.043 257.344 114 272 c 28
 78.04 285.499 10 289 24 232 c 4
 34 188 53.4844 161.332 88 129 c 28
 111.558 106.934 129.877 98.5596 161 90 c 28
 185.469 83.2705 200.623 86.8398 226 87 c 28
 252.565 87.168 268.581 83.2793 294 91 c 28
 321.264 99.2812 337.286 107.426 357 128 c 28
 386.331 158.611 424.793 185.072 408 224 c 28
 399.83 242.938 376.813 243.731 357 238 c 28
EndSplineSet
EndChar
StartChar: dotaccent
Encoding: 729 729 35
Width: 303
VWidth: 1080
Flags: W
Fore
123.264 578.375 m 24
 152.273 570.671 179.295 574.771 197.514 598.625 c 24
 215.09 621.638 210.764 647.127 197.514 672.875 c 24
 187.15 693.011 172.908 706.625 150.264 706.625 c 24
 127.617 706.625 113.375 693.011 103.014 672.875 c 24
 89.7637 647.127 91.9316 625.378 103.014 598.625 c 24
 107.287 588.307 112.469 581.242 123.264 578.375 c 24
EndSplineSet
EndChar
StartChar: ring
Encoding: 730 730 36
Width: 264
VWidth: 1000
Flags: HW
Fore
109.046 663.75 m 28
 122.046 672.25 133.546 674.25 148.546 670.75 c 28
 160.046 668.25 165.546 662.75 173.046 653.75 c 28
 185.546 637.75 189.546 625.75 192.546 605.75 c 28
 196.546 577.75 195.046 559.75 185.046 533.25 c 28
 180.546 520.25 177.546 511.25 165.546 504.75 c 28
 155.046 498.25 146.546 500.25 134.546 501.75 c 28
 121.546 503.75 112.546 504.25 103.046 513.25 c 28
 88.0459 527.25 83.5459 540.75 80.5459 561.75 c 28
 76.0459 590.75 79.5459 608.75 90.0459 636.25 c 28
 94.5459 648.75 98.0459 656.75 109.046 663.75 c 28
136.546 469.25 m 28
 149.546 469.25 157.546 467.75 170.546 471.25 c 28
 184.046 475.75 192.046 479.25 202.046 489.75 c 28
 216.546 504.75 221.046 517.25 227.546 537.75 c 28
 234.046 560.25 234.046 574.25 233.046 597.75 c 28
 232.046 619.25 231.546 632.25 222.546 651.75 c 28
 215.546 667.25 208.046 674.75 196.046 686.75 c 20
 178.046 704.75 168.046 704.75 147.546 705.75 c 28
 118.546 706.75 99.0459 701.75 76.0459 683.75 c 28
 52.5459 665.75 45.0459 647.25 37.0459 618.25 c 28
 28.5459 589.75 28.5459 570.25 35.5459 541.75 c 4
 40.5459 519.75 50.5459 506.75 67.5459 490.25 c 28
 79.5459 479.25 88.5459 474.75 104.046 470.75 c 28
 116.046 467.25 123.546 468.75 136.546 469.25 c 28
EndSplineSet
EndChar
StartChar: ogonek
Encoding: 731 731 35
Width: 194
VWidth: 1000
Flags: W
Fore
104.562 54.8125 m 12
 112.859 46.5156 84.8105 55.9023 74.9375 49.5625 c 28
 66.7109 44.2803 64.1836 38.0684 60.6875 28.9375 c 28
 52.832 8.42188 50.1982 -5.22852 53.5625 -26.9375 c 28
 55.957 -42.3916 58.9238 -52.7305 70.4375 -63.3125 c 28
 77.6592 -69.9492 84.333 -70.6973 94.0625 -71.9375 c 28
 103.1 -73.0889 109.47 -74.3213 117.312 -69.6875 c 28
 126.01 -64.5508 128.46 -57.7959 131.938 -48.3125 c 20
 136.062 -37.0625 152.188 -43.0625 151.438 -52.8125 c 4
 150.312 -74.1875 151.402 -71.874 144.688 -80.9375 c 28
 138.327 -89.5234 131.287 -91.707 121.062 -94.8125 c 28
 111.531 -97.709 105.525 -96.25 95.5625 -96.3125 c 28
 86.0469 -96.373 80.3633 -97.7109 71.1875 -95.1875 c 28
 59.5176 -91.9785 52.6465 -88.8379 43.8125 -80.5625 c 28
 30.8691 -68.4375 23.5625 -58.4375 19.8125 -41.9375 c 4
 14.5625 -20.5625 14.7891 -6.08105 20.9375 15.4375 c 28
 27.0635 36.877 32.6562 50.7842 50.1875 64.5625 c 28
 67.3906 78.084 86.0273 93.8096 103.812 81.0625 c 28
 112.137 75.0957 91.0625 68.3125 104.562 54.8125 c 12
EndSplineSet
EndChar
StartChar: tilde
Encoding: 732 732 36
Width: 346
VWidth: 1000
Flags: HW
Fore
134.517 690.559 m 28
 154.404 689.353 162.909 677.688 181.381 670.222 c 28
 195.039 664.701 202.144 655.03 216.749 656.957 c 28
 236.721 659.595 238.605 687.245 258.749 687.021 c 28
 274.266 686.848 289.48 678.627 290.58 663.147 c 28
 291.342 652.445 279.599 650.279 271.128 643.694 c 28
 249.275 626.708 237.763 608.782 210.117 607.441 c 28
 175.295 605.756 164.046 646.89 129.212 645.463 c 28
 107.758 644.585 102.662 614.63 81.4639 618.053 c 28
 66.3955 620.485 55.0762 631.971 55.3809 647.231 c 28
 55.6807 662.349 69.418 667.247 82.3486 675.084 c 28
 100.497 686.085 113.334 691.842 134.517 690.559 c 28
EndSplineSet
EndChar
StartChar: hungarumlaut
Encoding: 733 733 35
Width: 475
VWidth: 1080
Flags: W
Fore
444.087 683.125 m 1
 402.287 704.025 373.787 719.225 337.687 698.325 c 1
 293.986 633.725 294.753 605.808 273.087 544.425 c 16
 261.554 511.75 252.038 480.516 243.729 450.375 c 0
 238.738 432.271 337.252 429.771 347.187 444.675 c 0
 362.387 467.475 403.237 661.274 444.087 683.125 c 1
244.087 683.125 m 1
 202.287 704.025 173.787 719.225 137.687 698.325 c 1
 93.9863 633.725 94.7529 605.808 73.0869 544.425 c 16
 61.5537 511.75 52.0381 480.516 43.7295 450.375 c 0
 38.7383 432.271 137.252 429.771 147.187 444.675 c 0
 162.387 467.475 203.237 661.274 244.087 683.125 c 1
EndSplineSet
EndChar
StartChar: hookabovecomb
Encoding: 777 777 36
Width: 288
Flags: HW
Fore
135.47 577.915 m 5
 101.72 598.165 86.918 585.068 69.4697 607.165 c 28
 54.5381 626.076 53.375 644.312 58.2197 667.915 c 28
 63.9453 695.809 71.584 720.038 98.7197 728.665 c 28
 133.663 739.773 161.568 721.829 186.47 694.915 c 28
 215.695 663.327 220.57 632.119 217.97 589.165 c 28
 215.888 554.776 207.598 531.999 182.72 508.165 c 28
 149.223 476.072 157.97 467.665 71.7197 465.415 c 5
 56.4043 480.799 139.97 496.165 135.47 577.915 c 5
EndSplineSet
EndChar
StartChar: uni030F
Encoding: 783 783 36
Width: 470
Flags: HW
Fore
41.4502 795.169 m 5
 83.25 816.068 111.75 831.269 147.851 810.368 c 5
 191.551 745.769 190.783 717.852 212.449 656.469 c 20
 223.983 623.794 233.499 592.56 241.808 562.419 c 4
 246.799 544.314 148.284 541.814 138.351 556.719 c 4
 123.15 579.519 82.2998 773.317 41.4502 795.169 c 5
241.45 795.169 m 5
 283.25 816.068 311.75 831.269 347.851 810.368 c 5
 391.551 745.769 390.783 717.852 412.449 656.469 c 20
 423.983 623.794 433.499 592.56 441.808 562.419 c 4
 446.799 544.314 348.284 541.814 338.351 556.719 c 4
 323.15 579.519 282.3 773.317 241.45 795.169 c 5
EndSplineSet
EndChar
StartChar: uni0311
Encoding: 785 785 38
Width: 432
VWidth: 1000
Flags: HW
Fore
357 121 m 28
 316.427 132.737 321.775 182.105 284 201 c 28
 262.273 211.867 246.098 210.071 222 207 c 28
 196.054 203.692 178.259 201.699 159 184 c 28
 128.295 155.781 153.043 101.656 114 87 c 28
 78.04 73.501 10 70 24 127 c 4
 34 171 53.4844 197.668 88 230 c 28
 111.558 252.066 129.877 260.44 161 269 c 28
 185.469 275.729 200.623 272.16 226 272 c 28
 252.565 271.832 268.581 275.721 294 268 c 28
 321.264 259.719 337.286 251.574 357 231 c 28
 386.331 200.389 424.793 173.928 408 135 c 28
 399.83 116.062 376.812 115.269 357 121 c 28
EndSplineSet
EndChar
StartChar: uni031B
Encoding: 795 795 40
Width: 288
Flags: HW
Fore
135.47 577.915 m 5
 101.72 598.165 86.918 585.068 69.4697 607.165 c 28
 54.5381 626.076 53.375 644.312 58.2197 667.915 c 28
 63.9453 695.809 71.584 720.038 98.7197 728.665 c 28
 133.663 739.773 161.568 721.829 186.47 694.915 c 28
 215.695 663.327 220.57 632.119 217.97 589.165 c 28
 215.888 554.776 207.598 531.999 182.72 508.165 c 28
 149.223 476.072 157.97 467.665 71.7197 465.415 c 5
 56.4043 480.799 139.97 496.165 135.47 577.915 c 5
EndSplineSet
EndChar
StartChar: uni1D53
Encoding: 7507 7507 77
Width: 376
VWidth: 1000
Flags: HW
Fore
21.915 47 m 24
 23.2744 14.75 63.792 16.5596 94.915 8 c 24
 119.384 1.27051 134.538 4.83984 159.915 5 c 24
 186.48 5.16797 202.496 1.2793 227.915 9 c 24
 255.179 17.2812 271.201 25.4258 290.915 46 c 24
 320.246 76.6113 329.797 101.373 341.915 142 c 24
 355.348 187.035 355.278 215.063 352.915 262 c 24
 350.757 304.854 349.414 330.821 331.915 370 c 24
 317.951 401.266 303.128 415.787 278.915 440 c 16
 242.915 476 222.516 476.479 181.915 478 c 24
 123.605 480.184 46.085 491.908 38.915 434 c 24
 35.2168 404.13 75.3291 399.528 104.915 394 c 24
 135.673 388.252 153.35 414.694 183.915 408 c 24
 206.637 403.023 218.379 392.158 232.915 374 c 24
 258.169 342.451 266.22 318.008 271.915 278 c 24
 279.928 221.716 276.493 186.374 256.915 133 c 24
 247.64 107.712 241.105 89.7002 217.915 76 c 24
 196.999 63.6436 180.013 66.9287 155.915 70 c 24
 129.969 73.3076 118.906 95.9346 92.915 93 c 24
 60.1299 89.2988 20.5264 79.9648 21.915 47 c 24
EndSplineSet
EndChar
StartChar: uni1D54
Encoding: 7508 7508 78
Width: 432
VWidth: 1000
Flags: HW
Fore
419.827 238 m 5
 419.662 245.515 419.364 253.443 419 262 c 12
 417 305 416 331 398 370 c 28
 384 401 369 416 345 440 c 20
 309 476 289 476 248 478 c 28
 190 480 151 470 105 434 c 28
 58 398 43 361 27 303 c 20
 23.3034 290.606 20.4107 279.062 18.2909 268 c 5
 10.662 228.188 108.97 244.103 112.597 268 c 5
 115.984 290.314 122.86 312.442 133 339 c 12
 142 364 149 380 171 394 c 28
 197 411 220 415 250 408 c 28
 273 403 284 392 299 374 c 28
 324 342 332 318 338 278 c 20
 339.413 268.111 340.482 258.845 341.176 250 c 5
 344.41 208.755 420.569 204.24 419.827 238 c 5
EndSplineSet
EndChar
StartChar: uni1E71
Encoding: 7793 7793 199
Width: 316
Flags: H
Fore
109.512 -213.54 m 4
 113.074 -190.027 118.061 -162.953 130.174 -128.752 c 5
 160.811 -145.141 164.373 -202.853 175.773 -219.953 c 4
 183.225 -231.131 257.11 -229.256 253.366 -215.678 c 4
 247.136 -193.071 239.998 -169.646 231.349 -145.141 c 12
 215.101 -99.1016 215.674 -78.165 182.898 -29.7148 c 5
 155.824 -14.04 134.449 -25.4395 103.099 -41.1152 c 5
 57.4824 -129.556 43.7959 -157.516 23.6963 -211.402 c 4
 19.834 -221.758 107.355 -227.774 109.512 -213.54 c 4
EndSplineSet
Ref: 116 116 N 1 0 0 1 0 0
EndChar
StartChar: uni1E76
Encoding: 7798 7798 204
Width: 802
Flags: H
Fore
355.163 -230.399 m 0
 358.726 -206.887 363.712 -179.812 375.825 -145.611 c 1
 406.462 -162 410.024 -219.712 421.425 -236.812 c 0
 428.876 -247.99 502.762 -246.115 499.018 -232.537 c 0
 492.787 -209.931 485.649 -186.506 477 -162 c 8
 460.752 -115.961 461.325 -95.0244 428.55 -46.5742 c 1
 401.476 -30.8994 380.101 -42.2988 348.75 -57.9746 c 1
 303.134 -146.415 289.447 -174.375 269.348 -228.262 c 0
 265.485 -238.617 353.007 -244.634 355.163 -230.399 c 0
EndSplineSet
Ref: 85 85 N 1 0 0 1 0 0
EndChar
StartChar: uni1E77
Encoding: 7799 7799 205
Width: 438
Flags: H
Fore
193.163 -212.399 m 4
 196.726 -188.887 201.712 -161.812 213.825 -127.611 c 5
 244.462 -144 248.024 -201.712 259.425 -218.812 c 4
 266.876 -229.99 340.762 -228.115 337.018 -214.537 c 4
 330.787 -191.931 323.649 -168.506 315 -144 c 12
 298.752 -97.9609 299.325 -77.0244 266.55 -28.5742 c 5
 239.476 -12.8994 218.101 -24.2988 186.75 -39.9746 c 5
 141.134 -128.415 127.447 -156.375 107.348 -210.262 c 4
 103.485 -220.617 191.007 -226.634 193.163 -212.399 c 4
EndSplineSet
Ref: 117 117 N 1 0 0 1 0 0
EndChar
StartChar: quoteleft
Encoding: 8216 8216 36
Width: 288
Flags: W
Fore
139 598 m 5
 184 571 203.736 588.462 227 559 c 28
 246.909 533.785 248.46 509.471 242 478 c 28
 234.366 440.809 224.182 408.503 188 397 c 28
 141.409 382.188 104.201 406.114 71 442 c 28
 32.0332 484.117 25.5322 525.728 29 583 c 28
 31.7764 628.852 42.8301 659.222 76 691 c 28
 120.663 733.79 109 745 224 748 c 5
 244.421 727.488 133 707 139 598 c 5
EndSplineSet
EndChar
StartChar: dagger
Encoding: 8224 8224 40
Width: 643
Flags: W
Fore
305.958 -261 m 5
 256.958 -87 253.791 -104.036 249.958 0 c 28
 246.087 105.054 286.958 144 286.958 267 c 5
 272.737 294.989 246.348 303.561 214.958 303 c 5
 170.984 302.215 159.87 251.439 115.958 249 c 20
 7.95801 243 -1.95703 376.664 52.958 375 c 20
 151.958 372 43.958 372 265.958 387 c 12
 316.167 390.393 268.958 450 262.958 516 c 13
 266.468 551.1 283.817 572.778 271.958 606 c 28
 263.614 629.375 206.762 636.574 226.958 651 c 20
 268.958 681 250.958 663 334.958 696 c 5
 397.958 675 367.958 699 424.958 660 c 12
 448.534 643.869 391.031 626.112 385.958 598 c 28
 380.158 565.859 402.568 548.658 402.958 516 c 28
 403.554 466.052 361.958 465 379.958 390 c 5
 616.958 375 487.958 393 598.958 375 c 12
 644.938 367.544 617.284 277.447 574.958 258 c 28
 542.12 242.913 529.928 299.521 493.958 303 c 28
 444.978 307.738 402.098 295.537 373.958 264 c 5
 337.958 123 398.91 102.249 385.958 0 c 28
 372.579 -105.62 386.958 -81 305.958 -261 c 5
EndSplineSet
EndChar
StartChar: daggerdbl
Encoding: 8225 8225 41
Width: 643
Flags: W
Fore
252.869 707 m 8
 237.858 683.011 284.44 671.95 288.869 644 c 24
 293.669 613.706 303.529 566.156 272.869 567 c 16
 163.869 570 144 602.968 104.869 550 c 24
 83.5996 521.209 93.4199 480.349 122.869 460 c 24
 173.93 424.719 276.179 547.954 279.869 486 c 16
 293.869 251 268.869 159 259.869 6 c 8
 256.716 -47.5996 169.869 18 124.869 33 c 8
 84.3594 46.5029 78.5303 -43.0576 106.869 -75 c 24
 146.511 -119.683 175.869 -72 259.869 -68 c 8
 285.046 -66.8008 273.622 -107.247 268.869 -132 c 24
 263.532 -159.791 229.113 -166.952 232.869 -195 c 24
 237.481 -229.439 261.122 -258 295.869 -258 c 24
 335.58 -258 359.269 -224.769 367.869 -186 c 24
 373.801 -159.261 343.435 -147.386 343.869 -120 c 24
 344.169 -101.101 342.985 -75.8213 361.869 -75 c 16
 499.869 -69 495.895 -129.021 538.869 -75 c 24
 568.022 -38.3525 551.752 66.543 511.869 42 c 16
 472.869 18 362.747 -49.4316 359.869 11 c 16
 350.869 200 344.869 325 380.869 478 c 8
 392.642 528.034 466.025 424.173 509.869 451 c 24
 544.006 471.888 558.759 516.497 536.869 550 c 24
 501.935 603.469 487.869 579 374.869 574 c 8
 351.868 572.982 362.014 609.052 363.869 632 c 24
 366.076 659.3 402.826 675.056 387.869 698 c 16
 373.427 720.154 355.581 750.731 328.869 753 c 0
 302.284 755.258 266.831 729.313 252.869 707 c 8
EndSplineSet
EndChar
StartChar: perthousand
Encoding: 8240 8240 48
Width: 820
VWidth: 1080
Flags: HW
Fore
194.625 543.75 m 24
 183.287 537.857 174.347 537.461 162 540.75 c 24
 142.829 545.859 130.144 552.73 120.375 570 c 24
 111.279 586.081 111.916 599.489 117 617.25 c 24
 121.926 634.463 128.165 646.023 144 654.375 c 24
 161.989 663.863 177.197 663.316 196.125 655.875 c 24
 209.118 650.768 215.336 643.215 221.625 630.75 c 24
 230.012 614.131 233.537 601.385 228.375 583.5 c 24
 222.735 563.962 212.67 553.128 194.625 543.75 c 24
138.375 518.25 m 0
 168.75 501.375 190.072 499.814 219.375 511.875 c 24
 246.513 523.045 259.434 540.965 268.5 568.875 c 24
 278.293 599.024 277.877 622.585 261.75 649.875 c 24
 248.439 672.399 230.921 679.438 205.875 687 c 24
 179.413 694.99 160.7 697.176 135 687 c 24
 113.547 678.506 102.307 667.081 91.875 646.5 c 16
 78.0635 619.251 77.5049 596.51 88.5 568.875 c 8
 98.7461 543.123 117.101 530.069 138.375 518.25 c 0
717.375 119.25 m 24
 706.037 113.357 697.097 112.961 684.75 116.25 c 24
 665.579 121.359 652.894 128.23 643.125 145.5 c 24
 634.029 161.581 634.666 174.989 639.75 192.75 c 24
 644.676 209.963 650.915 221.523 666.75 229.875 c 24
 684.739 239.363 699.947 238.816 718.875 231.375 c 24
 731.868 226.268 738.086 218.715 744.375 206.25 c 24
 752.762 189.631 756.287 176.885 751.125 159 c 24
 745.485 139.462 735.42 128.628 717.375 119.25 c 24
661.125 93.75 m 0
 691.5 76.875 712.822 75.3145 742.125 87.375 c 24
 769.263 98.5449 782.184 116.465 791.25 144.375 c 24
 801.043 174.524 800.627 198.085 784.5 225.375 c 24
 771.189 247.899 753.671 254.938 728.625 262.5 c 24
 702.163 270.49 683.45 272.676 657.75 262.5 c 24
 636.297 254.006 625.057 242.581 614.625 222 c 16
 600.813 194.751 600.255 172.01 611.25 144.375 c 8
 621.496 118.623 639.851 105.569 661.125 93.75 c 0
503.625 123.75 m 24
 492.287 117.857 483.347 117.461 471 120.75 c 24
 451.829 125.859 439.144 132.73 429.375 150 c 24
 420.279 166.081 420.916 179.489 426 197.25 c 24
 430.926 214.463 437.165 226.023 453 234.375 c 24
 470.989 243.863 486.197 243.316 505.125 235.875 c 24
 518.118 230.768 524.336 223.215 530.625 210.75 c 24
 539.012 194.131 542.537 181.385 537.375 163.5 c 24
 531.735 143.962 521.67 133.128 503.625 123.75 c 24
447.375 98.25 m 0
 477.75 81.375 499.072 79.8145 528.375 91.875 c 24
 555.513 103.045 568.434 120.965 577.5 148.875 c 24
 587.293 179.024 586.877 202.585 570.75 229.875 c 24
 557.439 252.399 539.921 259.438 514.875 267 c 24
 488.413 274.99 469.7 277.176 444 267 c 24
 422.547 258.506 411.307 247.081 400.875 226.5 c 16
 387.063 199.251 386.505 176.51 397.5 148.875 c 8
 407.746 123.123 426.101 110.069 447.375 98.25 c 0
EndSplineSet
Ref: 47 47 N 1 0 0 1 0 0
EndChar
StartChar: uni2031
Encoding: 8241 8241 49
Width: 1036
VWidth: 1080
Flags: HW
Fore
194.625 543.75 m 24
 183.287 537.857 174.347 537.461 162 540.75 c 24
 142.829 545.859 130.144 552.73 120.375 570 c 24
 111.279 586.081 111.916 599.489 117 617.25 c 24
 121.926 634.463 128.165 646.023 144 654.375 c 24
 161.989 663.863 177.197 663.316 196.125 655.875 c 24
 209.118 650.768 215.336 643.215 221.625 630.75 c 24
 230.012 614.131 233.537 601.385 228.375 583.5 c 24
 222.735 563.962 212.67 553.128 194.625 543.75 c 24
138.375 518.25 m 0
 168.75 501.375 190.072 499.814 219.375 511.875 c 24
 246.513 523.045 259.434 540.965 268.5 568.875 c 24
 278.293 599.024 277.877 622.585 261.75 649.875 c 24
 248.439 672.399 230.921 679.438 205.875 687 c 24
 179.413 694.99 160.7 697.176 135 687 c 24
 113.547 678.506 102.307 667.081 91.875 646.5 c 16
 78.0635 619.251 77.5049 596.51 88.5 568.875 c 8
 98.7461 543.123 117.101 530.069 138.375 518.25 c 0
937.875 128.25 m 24
 926.537 122.357 917.597 121.961 905.25 125.25 c 24
 886.079 130.359 873.394 137.23 863.625 154.5 c 24
 854.529 170.581 855.166 183.989 860.25 201.75 c 24
 865.176 218.963 871.415 230.523 887.25 238.875 c 24
 905.239 248.363 920.447 247.816 939.375 240.375 c 24
 952.368 235.268 958.586 227.715 964.875 215.25 c 24
 973.262 198.631 976.787 185.885 971.625 168 c 24
 965.985 148.462 955.92 137.628 937.875 128.25 c 24
881.625 102.75 m 0
 912 85.875 933.322 84.3145 962.625 96.375 c 24
 989.763 107.545 1002.68 125.465 1011.75 153.375 c 24
 1021.54 183.524 1021.13 207.085 1005 234.375 c 24
 991.689 256.899 974.171 263.938 949.125 271.5 c 24
 922.663 279.49 903.95 281.676 878.25 271.5 c 24
 856.797 263.006 845.557 251.581 835.125 231 c 16
 821.313 203.751 820.755 181.01 831.75 153.375 c 8
 841.996 127.623 860.351 114.569 881.625 102.75 c 0
717.375 119.25 m 24
 706.037 113.357 697.097 112.961 684.75 116.25 c 24
 665.579 121.359 652.894 128.23 643.125 145.5 c 24
 634.029 161.581 634.666 174.989 639.75 192.75 c 24
 644.676 209.963 650.915 221.523 666.75 229.875 c 24
 684.739 239.363 699.947 238.816 718.875 231.375 c 24
 731.868 226.268 738.086 218.715 744.375 206.25 c 24
 752.762 189.631 756.287 176.885 751.125 159 c 24
 745.485 139.462 735.42 128.628 717.375 119.25 c 24
661.125 93.75 m 0
 691.5 76.875 712.822 75.3145 742.125 87.375 c 24
 769.263 98.5449 782.184 116.465 791.25 144.375 c 24
 801.043 174.524 800.627 198.085 784.5 225.375 c 24
 771.189 247.899 753.671 254.938 728.625 262.5 c 24
 702.163 270.49 683.45 272.676 657.75 262.5 c 24
 636.297 254.006 625.057 242.581 614.625 222 c 16
 600.813 194.751 600.255 172.01 611.25 144.375 c 8
 621.496 118.623 639.851 105.569 661.125 93.75 c 0
503.625 123.75 m 24
 492.287 117.857 483.347 117.461 471 120.75 c 24
 451.829 125.859 439.144 132.73 429.375 150 c 24
 420.279 166.081 420.916 179.489 426 197.25 c 24
 430.926 214.463 437.165 226.023 453 234.375 c 24
 470.989 243.863 486.197 243.316 505.125 235.875 c 24
 518.118 230.768 524.336 223.215 530.625 210.75 c 24
 539.012 194.131 542.537 181.385 537.375 163.5 c 24
 531.735 143.962 521.67 133.128 503.625 123.75 c 24
447.375 98.25 m 0
 477.75 81.375 499.072 79.8145 528.375 91.875 c 24
 555.513 103.045 568.434 120.965 577.5 148.875 c 24
 587.293 179.024 586.877 202.585 570.75 229.875 c 24
 557.439 252.399 539.921 259.438 514.875 267 c 24
 488.413 274.99 469.7 277.176 444 267 c 24
 422.547 258.506 411.307 247.081 400.875 226.5 c 16
 387.063 199.251 386.505 176.51 397.5 148.875 c 8
 407.746 123.123 426.101 110.069 447.375 98.25 c 0
EndSplineSet
Ref: 47 47 N 1 0 0 1 0 0
EndChar
StartChar: guilsinglleft
Encoding: 8249 8249 50
Width: 314
VWidth: 1080
Flags: HW
Fore
201.777 491 m 28
 232.027 500.438 263.777 500 280.777 472 c 5
 289.777 459 282.777 433 274.777 419 c 5
 267.777 404 247.777 421 238.777 411 c 5
 200.777 370 163.777 340 108.777 267 c 5
 140.777 186 195.777 159 256.777 80 c 5
 263.777 60 273.777 44 261.777 27 c 5
 223.777 9 211.777 13 176.777 9 c 4
 143.777 6 110.537 63.0029 98.7773 112 c 20
 92.7773 137 6.17676 245.399 34.7773 274 c 4
 46.7773 298 81.5898 350.74 116.777 396 c 28
 147.292 435.249 154.318 476.192 201.777 491 c 28
EndSplineSet
EndChar
StartChar: uni203D
Encoding: 8253 8253 53
Width: 373
Flags: HW
Fore
141.266 12 m 24
 125.047 21.7188 121.312 38.2031 123.266 57 c 24
 125.891 82.1719 136.25 100.469 159.266 111 c 24
 185 122.781 213.734 124.219 231.266 102 c 24
 250.953 77.0469 244.734 43.4688 222.266 21 c 24
 199.781 -1.46875 168.531 -4.34375 141.266 12 c 24
237.433 473.41 m 1
 258.283 472.649 278.498 472.817 300.266 478 c 1
 315.719 492.734 319.75 513.406 309.266 532 c 16
 293.473 560.031 270.539 570.472 243.974 576.323 c 1
 242.696 543.606 240.514 511.845 237.433 473.41 c 1
151.98 192.97 m 1
 138.38 195.44 124.955 205.094 115.266 217 c 1
 88.2656 325 88.2656 355 97.2656 460 c 1
 111.606 464.78 124.931 468.113 137.455 470.399 c 1
 134.872 516.577 132.18 557.287 131.022 600.967 c 1
 78.6028 613.826 17.1566 612.493 7.26562 640 c 1
 -1.73438 682 4.95312 705.203 34.2656 721 c 1
 65.0126 723.928 98.2307 725.323 132.394 721.152 c 1
 164.364 758.963 206.816 762.488 244.266 730 c 1
 244.661 712.994 244.946 697.338 245.121 682.709 c 1
 305.27 646.626 337.731 610.478 358.266 540 c 8
 371.766 487.594 381.266 448 336.266 403 c 0
 306.905 373.639 263.512 375.168 228.063 369.166 c 1
 223.814 331.75 218.457 301.201 204.266 212 c 1
 189.815 196.049 170.165 182.816 151.98 192.97 c 1
EndSplineSet
EndChar
StartChar: zerosuperior
Encoding: 8304 8304 55
Width: 410
Flags: HW
Fore
235.052 399.263 m 28
 214.644 388.656 198.551 387.94 176.326 393.862 c 28
 141.817 403.058 118.984 415.428 101.401 446.513 c 28
 85.0293 475.457 86.1758 499.592 95.3262 531.562 c 28
 104.192 562.544 115.424 583.353 143.927 598.388 c 28
 176.306 615.467 203.684 614.482 237.751 601.088 c 28
 261.139 591.893 272.329 578.299 283.651 555.862 c 28
 298.746 525.95 305.094 503.004 295.802 470.812 c 28
 285.649 435.643 267.533 416.143 235.052 399.263 c 28
133.802 353.362 m 4
 188.477 322.987 226.856 320.179 279.602 341.888 c 28
 328.45 361.993 351.707 394.247 368.026 444.487 c 28
 385.654 498.755 384.905 541.164 355.876 590.287 c 28
 331.917 630.83 300.385 643.5 255.302 657.112 c 28
 207.672 671.494 173.986 675.429 127.727 657.112 c 28
 89.1123 641.823 68.8779 621.257 50.1016 584.213 c 20
 25.2412 535.165 24.2363 494.229 44.0264 444.487 c 12
 62.4697 398.133 95.5078 374.638 133.802 353.362 c 4
EndSplineSet
EndChar
